<svg xmlns="http://www.w3.org/2000/svg" viewBox="0 0 840 272" preserveAspectRatio="xMidYMin">
  <path id="Selection"
        fill="#F98667" stroke="none"
        d="M 840.00,0.00
           C 840.00,0.00 840.00,191.00 840.00,191.00
             840.00,191.00 840.00,246.00 840.00,246.00
             840.00,246.00 839.00,272.00 839.00,272.00
             823.60,244.57 797.55,213.04 776.09,190.00
             709.17,118.17 621.81,68.74 526.00,47.58
             501.71,42.21 477.78,38.61 453.00,36.91
             453.00,36.91 443.00,36.00 443.00,36.00
             443.00,36.00 399.00,36.00 399.00,36.00
             399.00,36.00 387.00,36.91 387.00,36.91
             387.00,36.91 339.00,42.59 339.00,42.59
             285.43,51.58 233.78,69.47 186.00,95.31
             138.34,121.08 89.93,159.28 54.29,200.00
             42.53,213.43 30.96,227.38 20.72,242.00
             20.72,242.00 0.00,272.00 0.00,272.00
             0.00,272.00 0.00,0.00 0.00,0.00
             0.00,0.00 840.00,0.00 840.00,0.00 Z" />
</svg>
