<svg xmlns="http://www.w3.org/2000/svg" viewBox="0 0 249 960" preserveAspectRatio="xMaxYMid">
  <path id="Selection" fill="#F98667"
        d="M 230.00,950.20
           C 230.00,950.20 201.00,926.13 201.00,926.13
             201.00,926.13 185.00,911.09 185.00,911.09
             147.16,875.84 115.39,834.75 87.95,791.00
             51.07,732.20 22.90,657.32 10.58,589.00
             6.30,565.28 3.55,542.00 1.91,518.00
             1.91,518.00 1.00,506.00 1.00,506.00
             1.00,506.00 1.00,490.00 1.00,490.00
             1.00,490.00 0.18,478.00 0.18,478.00
             0.18,478.00 1.00,452.00 1.00,452.00
             1.00,452.00 1.91,442.00 1.91,442.00
             4.41,405.44 9.56,369.63 18.47,334.00
             34.53,269.78 60.55,212.96 95.58,157.00
             123.06,113.09 163.76,65.90 203.00,32.27
             203.00,32.27 230.00,9.80 230.00,9.80
             236.64,4.51 240.22,0.23 249.00,0.00
             249.00,0.00 249.00,960.00 249.00,960.00
             240.22,959.77 236.64,955.49 230.00,950.20 Z" />
</svg>
