<svg width="13" height="13" viewBox="0 0 13 13" fill="none" xmlns="http://www.w3.org/2000/svg">
<path fill-rule="evenodd" clip-rule="evenodd" d="M12.5415 1.31642C13.0581 1.83304 13.0581 2.67065 12.5415 3.18726L8.7998 6.92896L12.5415 10.6706C13.0581 11.1873 13.0581 12.0249 12.5415 12.5415C12.0249 13.0581 11.1873 13.0581 10.6706 12.5415L6.92896 8.7998L3.18726 12.5415C2.67065 13.0581 1.83304 13.0581 1.31642 12.5415C0.7998 12.0249 0.7998 11.1873 1.31642 10.6706L5.05811 6.92896L1.31642 3.18726C0.7998 2.67065 0.7998 1.83304 1.31642 1.31642C1.83304 0.7998 2.67065 0.7998 3.18726 1.31642L6.92896 5.05811L10.6706 1.31642C11.1873 0.7998 12.0249 0.7998 12.5415 1.31642Z" fill="#6F7376"/>
</svg>
