<?xml version="1.0" encoding="utf-8"?>
<!-- Generator: Adobe Illustrator 22.1.0, SVG Export Plug-In . SVG Version: 6.00 Build 0)  -->
<svg version="1.1" id="Layer_1" xmlns="http://www.w3.org/2000/svg" xmlns:xlink="http://www.w3.org/1999/xlink" x="0px" y="0px"
	 viewBox="0 0 30 30" style="enable-background:new 0 0 30 30;" xml:space="preserve">
<style type="text/css">
	.st0{fill:#D5EEF1;}
</style>
<g>
	<g>
		<path class="st0" d="M13.4,23.5v-14l-5.1,5c-0.5,0.6-1.1,0.6-1.7,0c-0.6-0.6-0.6-1.1,0-1.7l7.1-7.1c0.1-0.1,0.2-0.2,0.4-0.3
			c0.3-0.1,0.6-0.1,0.9,0c0.1,0,0.3,0.1,0.4,0.3l7.1,7.1c0.6,0.5,0.6,1.1,0,1.7c-0.6,0.6-1.1,0.6-1.7,0l-5.1-5v14
			c0,0.3-0.1,0.6-0.3,0.9c-0.2,0.2-0.5,0.3-0.9,0.3c-0.3,0-0.6-0.1-0.9-0.3C13.5,24.1,13.4,23.8,13.4,23.5z"/>
	</g>
</g>
</svg>
