<svg xmlns="http://www.w3.org/2000/svg" viewBox="0 0 448 512"><path d="M 356.125,32 H 91.875 C 41.215125,32 0,73.215125 0,123.875 v 264.25 C 0,438.78487 41.215125,480 91.875,480 h 264.25 C 406.78487,480 448,438.78487 448,388.125 V 123.875 C 448,73.215125 406.78487,32 356.125,32 Z m -86.13675,297.96987 -8.11388,64.91188 c -1.64237,13.1355 -12.80912,22.99325 -26.047,22.99325 H 212.1735 c -13.23875,0 -24.4055,-9.85775 -26.047,-22.99413 L 178.01262,329.969 C 174.55375,302.30763 196.1225,277.875 224,277.875 c -21.71137,0 -39.375,-17.66363 -39.375,-39.375 0,-21.71137 17.66363,-39.375 39.375,-39.375 21.71137,0 39.375,17.66363 39.375,39.375 0,21.71137 -17.66363,39.375 -39.375,39.375 27.8775,0 49.44625,24.43263 45.98825,52.09487 z M 224,172.875 c -41.01038,0 -74.375,33.36462 -74.375,74.375 0,14.78138 4.35225,28.55737 11.81687,40.14762 -5.3655,9.1175 -8.6695,19.29988 -9.6915,29.813 C 134.197,299.08938 123.375,274.41175 123.375,247.25 c 0,-55.48463 45.14037,-100.625 100.625,-100.625 55.48462,0 100.625,45.14037 100.625,100.625 0,27.16175 -10.822,51.83938 -28.3745,69.9615 -1.022,-10.514 -4.32687,-20.6955 -9.6915,-29.813 7.46375,-11.59113 11.816,-25.36713 11.816,-40.1485 0,-41.01038 -33.36463,-74.375 -74.375,-74.375 z m 65.48325,212.772 4.03987,-32.32075 C 328.03838,330.62788 350.875,291.55912 350.875,247.25 350.875,177.29112 293.95887,120.375 224,120.375 c -69.95888,0 -126.875,56.91612 -126.875,126.875 0,44.30912 22.83662,83.37788 57.35187,106.07625 l 4.03988,32.32075 C 106.7535,361.05512 70.875,308.26725 70.875,247.25 70.875,162.81687 139.56687,94.125 224,94.125 c 84.43313,0 153.125,68.69187 153.125,153.125 0,61.01725 -35.8785,113.80512 -87.64175,138.397 z"/></svg>
