<?xml version="1.0" encoding="UTF-8" standalone="no"?>
<svg
   xmlns:dc="http://purl.org/dc/elements/1.1/"
   xmlns:cc="http://creativecommons.org/ns#"
   xmlns:rdf="http://www.w3.org/1999/02/22-rdf-syntax-ns#"
   xmlns:svg="http://www.w3.org/2000/svg"
   xmlns="http://www.w3.org/2000/svg"
   width="80"
   height="80"
   viewBox="0 0 80 80"
   version="1.1"
   id="svg10">
  <metadata
     id="metadata16">
    <rdf:RDF>
      <cc:Work
         rdf:about="">
        <dc:format>image/svg+xml</dc:format>
        <dc:type
           rdf:resource="http://purl.org/dc/dcmitype/StillImage" />
        <dc:title>Comments_10</dc:title>
      </cc:Work>
    </rdf:RDF>
  </metadata>
  <defs
     id="defs14" />
  <title
     id="title2">Comments_10</title>
  <g
     id="Icons"
     stroke="none"
     stroke-width="1"
     fill="none"
     fill-rule="evenodd"
     transform="matrix(7.4871189,0,0,7.4871189,-1.0732021e-7,3.1668992)">
    <g
       transform="translate(-699,-417)"
       fill="#6F7370"
       fill-rule="nonzero"
       id="Comments">
      <g
         transform="translate(582,403)"
         id="g6">
        <g
           id="Comments_10"
           transform="translate(117,14)">
          <path
             d="m 6.86894,0 c 2.1075616,0 3.816078,1.7085162 3.816078,3.8160778 v 0.7632156 c 0,2.1075615 -1.7085164,3.8160778 -3.816078,3.8160778 L 4.749,8.395 2.0963327,9.7321454 C 1.9059127,9.8280672 1.6908893,9.8601245 1.482694,9.8255615 L 1.3588475,9.7968073 C 0.82989697,9.6379686 0.52986199,9.0804052 0.68870067,8.5514546 v 0 L 1.0816524,7.2411318 C 0.41229445,6.5536362 0,5.614613 0,4.5792934 V 3.8160778 C 0,1.7085162 1.7085162,0 3.8160778,0 Z m 0,1.373788 H 3.8160778 c -1.3023277,0 -2.3665758,1.0193402 -2.4384236,2.3037001 l -0.00387,0.1385897 v 0.7632156 c 0,1.1151363 0.747368,2.0557154 1.7685397,2.3481731 L 3.6281446,7.01446 c 0.016403,0.00125 0.032851,0.00233 0.049343,0.00326 L 3.8160773,7.02159 H 6.86894 c 1.3023277,0 2.3665758,-1.0193401 2.4384237,-2.3037 l 0.00387,-0.1385897 V 3.8160778 c 0,-1.3023277 -1.0193402,-2.3665758 -2.3037,-2.4384236 z"
             id="Combined-Shape" />
        </g>
      </g>
    </g>
  </g>
</svg>
