<?xml version="1.0" encoding="UTF-8"?>
<svg width="24px" height="24px" viewBox="0 0 24 24" version="1.1" xmlns="http://www.w3.org/2000/svg" xmlns:xlink="http://www.w3.org/1999/xlink">
    <title>delete copy</title>
    <defs>
        <filter id="filter-1">
            <feColorMatrix in="SourceGraphic" type="matrix" values="0 0 0 0 0.435294 0 0 0 0 0.450980 0 0 0 0 0.462745 0 0 0 1.000000 0"></feColorMatrix>
        </filter>
    </defs>
    <g id="Icons" stroke="none" stroke-width="1" fill="none" fill-rule="evenodd">
        <g transform="translate(-313.000000, -251.000000)" id="Delete">
            <g transform="translate(313.000000, 251.000000)" id="Group">
                <circle id="Oval" fill="#ECECEC" cx="12" cy="12" r="12"></circle>
                <g transform="translate(7.000000, 7.000000)" id="close_12" filter="url(#filter-1)">
                    <g>
                        <path d="M9.39497475,0.205041759 L9.43963892,0.254266739 L9.47751275,0.305063403 C9.66577379,0.582273916 9.63454372,0.95542228 9.39497475,1.19499125 L5.69,4.89961651 L9.39497355,8.60504056 C9.66834175,8.87840876 9.66834175,9.32162425 9.39497475,9.59499125 C9.12160774,9.86835826 8.67839226,9.86835826 8.40502525,9.59499125 L4.8,5.989 L1.1949746,9.59499125 C0.948944293,9.84102156 0.56533672,9.86562459 0.291790962,9.66880034 L0.205025103,9.59499125 C-0.068341901,9.32162425 -0.068341901,8.87840876 0.205026303,8.60504056 L0.205026303,8.60504056 L3.90999985,4.89961651 L0.205025103,1.19499125 C-0.0345438696,0.95542228 -0.0657739389,0.582273916 0.122487104,0.305063403 L0.122487104,0.305063403 L0.160360933,0.254266739 L0.205025103,0.205041759 C0.459567137,-0.0495002749 0.86490778,-0.0688472182 1.14189948,0.157071178 L1.14189948,0.157071178 L1.1949746,0.205041759 L4.8,3.811 L8.40502525,0.205041759 L8.45810037,0.157071178 C8.73509207,-0.0688472182 9.14043271,-0.0495002749 9.39497475,0.205041759 Z" id="Combined-Shape" fill="#020202" fill-rule="nonzero"></path>
                    </g>
                </g>
            </g>
        </g>
    </g>
</svg>