<svg width="22" height="17" viewBox="0 0 22 17" fill="none" xmlns="http://www.w3.org/2000/svg">
	<path fill-rule="evenodd" clip-rule="evenodd" d="M20 15V7C19.0086 7.78713 17.6018 8.89057 15.4585 10.5623C14.4837 11.3274 12.848 12.9402 11 12.931C9.14277 12.9402 7.48677 11.3034 6.54154 10.5623C4.39815 8.89057 2.99138 7.78713 2 7V15H20ZM2 2V3.91397C2.96923 4.76795 4.51631 6.09993 7.82277 8.90388C8.552 9.52587 9.99569 11.0178 11 10.9998C12.0043 11.0178 13.448 9.52587 14.1772 8.90388C17.4837 6.09993 19.0308 4.76795 20 3.91397V2H2ZM22 2.125V14.875C22 16.048 21.076 17 19.9375 17H2.0625C0.924 17 0 16.048 0 14.875V2.125C0 0.952 0.924 0 2.0625 0H19.9375C21.076 0 22 0.952 22 2.125Z" fill="white"/>
</svg>
