<?xml version="1.0" encoding="UTF-8" standalone="no"?>
<svg
   xmlns:dc="http://purl.org/dc/elements/1.1/"
   xmlns:cc="http://creativecommons.org/ns#"
   xmlns:rdf="http://www.w3.org/1999/02/22-rdf-syntax-ns#"
   xmlns:svg="http://www.w3.org/2000/svg"
   xmlns="http://www.w3.org/2000/svg"
   viewBox="0 0 80 80"
   version="1.1"
   id="svg4"
   width="80"
   height="80">
  <metadata
     id="metadata10">
    <rdf:RDF>
      <cc:Work
         rdf:about="">
        <dc:format>image/svg+xml</dc:format>
        <dc:type
           rdf:resource="http://purl.org/dc/dcmitype/StillImage" />
        <dc:title></dc:title>
      </cc:Work>
    </rdf:RDF>
  </metadata>
  <defs
     id="defs8" />
  <path
     d="m 24.09209,0 0.343944,0.00993696 c 3.072794,0.17804184 5.509711,2.72629544 5.509711,5.84372164 0,3.2328862 -2.620772,5.8536584 -5.853659,5.8536584 v 0 H 13.658537 l -0.227552,0.01312 c -0.970419,0.11272 -1.723668,0.937445 -1.723668,1.9381 v 0 52.682926 l 0.01312,0.227552 c 0.112712,0.970417 0.937437,1.723667 1.938093,1.723667 v 0 h 52.682926 l 0.227552,-0.01312 c 0.970426,-0.112719 1.723675,-0.937444 1.723675,-1.938099 v 0 -9.820279 l 0.0099,-0.343944 c 0.178059,-3.072798 2.726312,-5.509714 5.843739,-5.509714 3.232886,0 5.853658,2.620772 5.853658,5.853658 v 0 9.820279 l -0.0079,0.469561 C 79.744583,74.137008 73.72771,80 66.341463,80 v 0 H 13.658537 L 13.188976,79.9921 C 5.862992,79.744583 0,73.72771 0,66.341463 v 0 L 0.00792003,13.188976 C 0.2554172,5.862992 6.2722893,0 13.658537,0 v 0 z m 50.593085,0.01491648 0.294888,0.02894416 0.21232,0.0308588 0.479688,0.0990004 0.189216,0.0517 c 0.226368,0.0653432 0.446528,0.14430712 0.65988,0.23591224 l 0.403632,0.192072 0.410048,0.23827712 0.421264,0.2953848 0.163816,0.1315504 c 0.05672,0.046808 0.11312,0.095618 0.168824,0.145716 l 0.244912,0.2335056 c 0.119392,0.120624 0.232368,0.2452272 0.33892,0.3733816 l 0.200584,0.2555496 0.242712,0.355748 0.148904,0.2494272 c 0.144568,0.2580752 0.270008,0.5282072 0.374328,0.8086132 l 0.161048,0.5039968 0.0568,0.2271736 0.0536,0.2656856 0.05632,0.3962392 0.03192,0.5097304 L 80,34.244876 C 80,37.423343 77.434318,40 74.269389,40 71.217494,40 68.722806,37.604103 68.548506,34.583034 l -0.0098,-0.33816 V 19.588523 L 49.770615,38.326528 c -2.244633,2.240777 -5.873039,2.229868 -8.104271,-0.02437 -2.141983,-2.164066 -2.217651,-5.60887 -0.23437,-7.863489 L 41.690607,30.163223 60.374568,11.510248 H 45.730611 c -3.051896,0 -5.546584,-2.3958968 -5.720883,-5.4169669 L 40,5.7551239 C 40,2.6901734 42.385691,0.18481456 45.393894,0.00976968 L 45.730611,0 h 28.538778 c 0.139824,0 0.278472,0.00502894 0.415786,0.01491648 z"
     id="path2"
     style="stroke-width:0.8" />
</svg>
