<svg width="24" height="24" viewBox="0 0 24 24" xmlns="http://www.w3.org/2000/svg"><path d="M11.9756 0.0498047C5.36171 0.0498047 0 5.41152 0 12.0254C0 17.9572 4.31743 22.8698 9.97829 23.8211V14.5238H7.08943V11.1781H9.97829V8.71109C9.97829 5.84866 11.7266 4.28881 14.2804 4.28881C15.5036 4.28881 16.5547 4.37995 16.8599 4.42009V7.41209L15.0886 7.41295C13.7 7.41295 13.4323 8.07266 13.4323 9.04109V11.1764H16.7456L16.3134 14.5221H13.4323V23.9011C19.3574 23.1799 23.951 18.1422 23.951 12.0219C23.951 5.41152 18.5893 0.0498047 11.9756 0.0498047Z"/></svg>
