<?xml version="1.0" encoding="UTF-8" standalone="no"?>
<svg
   xmlns:dc="http://purl.org/dc/elements/1.1/"
   xmlns:cc="http://creativecommons.org/ns#"
   xmlns:rdf="http://www.w3.org/1999/02/22-rdf-syntax-ns#"
   xmlns:svg="http://www.w3.org/2000/svg"
   xmlns="http://www.w3.org/2000/svg"
   viewBox="0 0 80 100"
   version="1.1"
   id="svg4">
  <metadata
     id="metadata10">
    <rdf:RDF>
      <cc:Work
         rdf:about="">
        <dc:format>image/svg+xml</dc:format>
        <dc:type
           rdf:resource="http://purl.org/dc/dcmitype/StillImage" />
        <dc:title></dc:title>
      </cc:Work>
    </rdf:RDF>
  </metadata>
  <defs
     id="defs8" />
  <path
     d="m 48.884134,0 c 3.568113,0 6.966148,1.5248367 9.338117,4.1903925 L 75.409545,23.505018 c 2.036692,2.28878 3.161884,5.245847 3.161884,8.309608 V 87.5 c 0,6.903559 -5.596441,12.5 -12.5,12.5 H 12.5 C 5.5964406,100 0,94.403559 0,87.5 v -75 C 0,5.5964406 5.5964406,0 12.5,0 Z m 0,11.25 H 12.5 c -0.5753,0 -1.059821,0.38864 -1.205349,0.9177 L 11.25,12.5 v 75 c 0,0.5753 0.38864,1.059821 0.9177,1.205349 L 12.5,88.75 h 53.571429 c 0.5753,0 1.059821,-0.38864 1.205348,-0.9177 L 67.321429,87.5 V 31.814626 c 0,-0.19696 -0.0465,-0.3895 -0.13382,-0.56272 L 60,31.25 c -5.522848,0 -10,-4.477152 -10,-10 L 49.99,11.86 49.817946,11.669039 C 49.659815,11.491335 49.456081,11.36433 49.232106,11.299405 Z M 50.625,60 c 3.106602,0 5.625,2.518398 5.625,5.625 0,3.106602 -2.518398,5.625 -5.625,5.625 h -26.25 c -3.106602,0 -5.625,-2.518398 -5.625,-5.625 0,-3.106602 2.518398,-5.625 5.625,-5.625 z m -12.5,-22.5 c 3.106602,0 5.625,2.518398 5.625,5.625 0,3.106602 -2.518398,5.625 -5.625,5.625 h -13.75 c -3.106602,0 -5.625,-2.518398 -5.625,-5.625 0,-3.106602 2.518398,-5.625 5.625,-5.625 z"
     id="path2" />
</svg>
