<svg width="24" height="24" viewBox="0 0 24 24" xmlns="http://www.w3.org/2000/svg"><path fill-rule="evenodd" clip-rule="evenodd" d="M11.9146 23.8288C18.4949 23.8288 23.8292 18.4944 23.8292 11.9141C23.8292 5.33387 18.4949 -0.000488281 11.9146 -0.000488281C5.33436 -0.000488281 0 5.33387 0 11.9141C0 18.4944 5.33436 23.8288 11.9146 23.8288ZM5.74896 6.57027C5.74896 5.73006 6.38634 5.09056 7.36057 5.09056C8.33501 5.09056 8.93373 5.73006 8.95264 6.57027C8.95264 7.39264 8.33501 8.05063 7.34166 8.05063H7.32319C6.36786 8.05063 5.74896 7.39264 5.74896 6.57027ZM19.0335 17.7851V12.8729C19.0335 10.2425 17.6287 9.01827 15.755 9.01827C14.2418 9.01827 13.5668 9.85084 13.1883 10.4332V9.21941H10.34C10.3782 10.0229 10.34 17.7849 10.34 17.7849H13.1881V13.001C13.1881 12.7442 13.2074 12.49 13.2824 12.3069C13.4888 11.7946 13.9563 11.2656 14.7432 11.2656C15.7744 11.2656 16.1856 12.0514 16.1856 13.2021V17.7851H19.0335ZM13.1883 10.4332V10.4612H13.1694C13.1721 10.4564 13.1757 10.4515 13.1793 10.4465L13.1793 10.4465C13.1824 10.4421 13.1856 10.4377 13.1883 10.4332ZM5.91823 17.7851H8.76531V9.21941H5.91823V17.7851Z"/></svg>