<svg width="512" height="512" viewBox="0 0 512 512" xmlns="http://www.w3.org/2000/svg">
	<path d="M91.0002 345.998C115.259 345.998 137.235 336.355 153.42 320.748L331.749 409.916C331.305 413.553 331 417.236 331 420.999C331 470.704 371.295 510.999 421 510.999C470.705 510.999 511 470.704 511 420.999C511 371.294 470.705 330.999 421 330.999C396.741 330.999 374.765 340.646 358.58 356.252L180.251 267.08C180.695 263.443 181 259.76 181 255.997C181 252.235 180.695 248.552 180.251 244.915L358.58 155.747C374.769 171.353 396.741 181 421 181C470.705 181 511 140.705 511 91.0002C511 41.2955 470.705 1 421 1C371.295 1 331 41.2955 331 91.0002C331 94.7628 331.305 98.4458 331.749 102.087L153.42 191.247C137.236 175.64 115.259 165.997 91.0002 165.997C41.2955 165.997 1 206.293 1 255.997C1 305.702 41.2955 345.998 91.0002 345.998V345.998Z" />
</svg>
