<svg xmlns:svg="http://www.w3.org/2000/svg" viewBox="0 0 11 11"><path d="M 1.9439232,1.9439232 C 3.5199307,0.36791563 6.0577047,0.34965826 7.612208,1.9041616 8.9757534,3.267707 9.1432023,5.4143705 8.0512269,6.9980478 l -0.021626,0.029953 2.3409811,2.4981787 c 0.08606,0.09764 0.143955,0.2159193 0.167522,0.3433902 l 0.0089,0.064448 0.003,0.065662 c 0,0.3924833 -0.318171,0.7106533 -0.7106541,0.7106533 -0.1548184,0 -0.3020944,-0.04979 -0.4273458,-0.143759 L 9.3597123,10.523615 7.0240004,8.0328004 6.9980478,8.0512269 C 5.4810743,9.0972088 3.4475413,8.9876248 2.0805247,7.7781332 L 1.9903907,7.6958716 1.9041616,7.612208 C 0.34965826,6.0577047 0.36791563,3.5199307 1.9439232,1.9439232 Z M 2.7712323,2.7712323 C 1.657173,3.8852916 1.644277,5.6778245 2.7414111,6.7749585 3.8385451,7.8720925 5.631078,7.8591966 6.7451373,6.7451373 7.8591966,5.631078 7.8720925,3.8385451 6.7749585,2.7414111 5.6778245,1.644277 3.8852916,1.657173 2.7712323,2.7712323 Z" /></svg>
