<svg width="512" height="512" viewBox="0 0 512 512" xmlns="http://www.w3.org/2000/svg"><path fill-rule="evenodd" clip-rule="evenodd" d="M48 0C21.4903 0 0 21.4903 0 48V464C0 490.51 21.4903 512 48 512H464C490.51 512 512 490.51 512 464V48C512 21.4903 490.51 0 464 0H48ZM147.595 325.663C154.246 319.005 157.99 309.984 158.008 300.574V265.084H122.518C113.109 265.102 104.09 268.847 97.4335 275.497C90.7774 282.148 87.026 291.164 87 300.574C87.0186 309.989 90.7662 319.014 97.4227 325.673C104.079 332.332 113.103 336.084 122.518 336.106C131.929 336.076 140.945 332.322 147.595 325.663ZM186.337 275.502C179.684 282.153 175.934 291.167 175.908 300.574V389.482C175.93 398.893 179.678 407.912 186.331 414.567C192.984 421.223 202.001 424.974 211.412 425C220.823 424.974 229.84 421.223 236.494 414.567C243.147 407.912 246.894 398.893 246.916 389.482V300.574C246.89 291.167 243.141 282.153 236.488 275.502C229.835 268.852 220.819 265.106 211.412 265.084C202.005 265.106 192.99 268.852 186.337 275.502ZM186.341 147.586C192.993 154.235 202.006 157.982 211.412 158.008H246.916V122.518C246.894 113.107 243.147 104.088 236.494 97.4326C229.84 90.7769 220.823 87.026 211.412 87C202.001 87.026 192.984 90.7769 186.331 97.4326C179.678 104.088 175.93 113.107 175.908 122.518C175.938 131.924 179.688 140.936 186.341 147.586ZM236.489 186.336C229.836 179.683 220.82 175.934 211.412 175.908H122.518C113.107 175.93 104.088 179.678 97.4326 186.331C90.7769 192.984 87.026 202.001 87 211.412C87.026 220.823 90.7769 229.84 97.4326 236.494C104.088 243.147 113.107 246.894 122.518 246.916H211.412C220.82 246.89 229.836 243.141 236.489 236.489C243.141 229.836 246.89 220.82 246.916 211.412C246.89 202.004 243.141 192.988 236.489 186.336ZM364.396 186.331C357.741 192.984 353.99 202.001 353.964 211.412V246.916H389.482C398.893 246.894 407.912 243.147 414.567 236.494C421.223 229.84 424.974 220.823 425 211.412C424.974 202.001 421.223 192.984 414.567 186.331C407.912 179.678 398.893 175.93 389.482 175.908C380.071 175.93 371.052 179.678 364.396 186.331ZM325.668 236.499C332.327 229.845 336.08 220.825 336.106 211.412V122.518C336.084 113.103 332.332 104.079 325.673 97.4227C319.014 90.7662 309.989 87.0186 300.574 87C291.164 87.026 282.148 90.7774 275.497 97.4335C268.847 104.09 265.102 113.109 265.084 122.518V211.412C265.106 220.819 268.852 229.835 275.502 236.488C282.153 243.141 291.167 246.89 300.574 246.916C309.987 246.898 319.01 243.152 325.668 236.499ZM325.673 364.386C319.014 357.73 309.989 353.982 300.574 353.964H265.084V389.482C265.102 398.891 268.847 407.91 275.497 414.566C282.148 421.223 291.164 424.974 300.574 425C309.989 424.981 319.014 421.234 325.673 414.577C332.332 407.921 336.084 398.897 336.106 389.482C336.084 380.066 332.332 371.043 325.673 364.386ZM275.492 325.668C282.144 332.327 291.162 336.08 300.574 336.106H389.482C398.897 336.084 407.921 332.332 414.577 325.673C421.234 319.014 424.981 309.989 425 300.574C424.974 291.164 421.223 282.148 414.566 275.497C407.91 268.847 398.891 265.102 389.482 265.084H300.574C291.168 265.106 282.154 268.852 275.503 275.503C268.852 282.154 265.106 291.168 265.084 300.574C265.099 309.986 268.841 319.008 275.492 325.668Z"/></svg>
