<svg width="338" height="338" viewBox="0 0 338 338" xmlns="http://www.w3.org/2000/svg"><path d="M71.0082 213.574C70.9896 222.984 67.2459 232.005 60.5954 238.663C53.945 245.322 44.9289 249.076 35.5182 249.106C26.1026 249.084 17.0792 245.332 10.4227 238.673C3.7662 232.014 0.0185962 222.989 0 213.574C0.0260466 204.164 3.77739 195.148 10.4335 188.497C17.0896 181.847 26.1087 178.102 35.5182 178.084H71.0082V213.574ZM88.9081 213.574C88.9341 204.167 92.6835 195.153 99.3366 188.502C105.99 181.852 115.005 178.106 124.412 178.084C133.819 178.106 142.835 181.852 149.488 188.502C156.141 195.153 159.89 204.167 159.916 213.574V302.482C159.894 311.893 156.147 320.912 149.494 327.567C142.84 334.223 133.823 337.974 124.412 338C115.001 337.974 105.984 334.223 99.3308 327.567C92.6777 320.912 88.9304 311.893 88.9081 302.482V213.574ZM124.412 71.0082C115.006 70.9822 105.993 67.2351 99.3407 60.5855C92.6884 53.9359 88.9378 44.924 88.9081 35.5182C88.9304 26.1075 92.6777 17.0884 99.3308 10.4326C105.984 3.77692 115.001 0.0260318 124.412 0C133.823 0.0260318 142.84 3.77692 149.494 10.4326C156.147 17.0884 159.894 26.1075 159.916 35.5182V71.0082H124.412ZM124.412 88.9081C133.82 88.9341 142.836 92.683 149.489 99.3357C156.141 105.988 159.89 115.004 159.916 124.412C159.89 133.82 156.141 142.836 149.489 149.489C142.836 156.141 133.82 159.89 124.412 159.916H35.5182C26.1075 159.894 17.0884 156.147 10.4326 149.494C3.77692 142.84 0.0260318 133.823 0 124.412C0.0260318 115.001 3.77692 105.984 10.4326 99.3308C17.0884 92.6777 26.1075 88.9304 35.5182 88.9081H124.412ZM266.964 124.412C266.99 115.001 270.741 105.984 277.396 99.3308C284.052 92.6777 293.071 88.9304 302.482 88.9081C311.893 88.9304 320.912 92.6777 327.567 99.3308C334.223 105.984 337.974 115.001 338 124.412C337.974 133.823 334.223 142.84 327.567 149.494C320.912 156.147 311.893 159.894 302.482 159.916H266.964V124.412ZM249.106 124.412C249.08 133.825 245.327 142.845 238.668 149.499C232.01 156.152 222.987 159.898 213.574 159.916C204.167 159.89 195.153 156.141 188.502 149.488C181.852 142.835 178.106 133.819 178.084 124.412V35.5182C178.102 26.1087 181.847 17.0896 188.497 10.4335C195.148 3.77739 204.164 0.0260466 213.574 0C222.989 0.0185962 232.014 3.7662 238.673 10.4227C245.332 17.0792 249.084 26.1026 249.106 35.5182V124.412ZM213.574 266.964C222.989 266.982 232.014 270.73 238.673 277.386C245.332 284.043 249.084 293.066 249.106 302.482C249.084 311.897 245.332 320.921 238.673 327.577C232.014 334.234 222.989 337.981 213.574 338C204.164 337.974 195.148 334.223 188.497 327.566C181.847 320.91 178.102 311.891 178.084 302.482V266.964H213.574ZM213.574 249.106C204.162 249.08 195.144 245.327 188.492 238.668C181.841 232.008 178.099 222.986 178.084 213.574C178.106 204.168 181.852 195.154 188.503 188.503C195.154 181.852 204.168 178.106 213.574 178.084H302.482C311.891 178.102 320.91 181.847 327.566 188.497C334.223 195.148 337.974 204.164 338 213.574C337.981 222.989 334.234 232.014 327.577 238.673C320.921 245.332 311.897 249.084 302.482 249.106H213.574Z"/></svg>
