<svg xmlns="http://www.w3.org/2000/svg" viewBox="0 0 320.141 277.947" preserveAspectRatio="none">
    <defs>
        <style>
            .gradient {
                fill: url(#linear-gradient);
            }
        </style>
        <linearGradient id="linear-gradient" x1="0%" y1="0%" x2="100%" y2="0%" gradientUnits="objectBoundingBox">
            <stop offset="0" stop-color="#ff513c"/>
            <stop offset="1" stop-color="#e74656"/>
        </linearGradient>
    </defs>
  <path id="campaign-cover" class="gradient" d="M-14,0V277.947H306.141V0ZM285.09,96.949a46.732,46.732,0,0,1,.245,7.905c-.092,2.451-.245,4.9-.368,7.354-.031.46-.061.919-.061,1.379-.092,1.379-.092,2.727-.061,4.137.031,2.206.061,4.474.031,6.71,0,2.421-.061,4.841-.092,7.231-.031,1.318-.092,2.6-.153,3.922-.153,2.942-.184,5.883-.092,8.794.031.674.031,1.379.031,2.084-.061,2.972-.123,5.914-.184,8.886-.061,2.421-.153,4.811-.215,7.2-.061,1.716-.123,3.4-.184,5.086-.031.858-.061,1.685-.123,2.543-.031.827-.031,1.685-.061,2.513-.092,3.34-.214,6.649-.4,9.9a24.036,24.036,0,0,0,0,2.972c.092,1.348.123,2.758.245,4.045.276,3.248.368,6.619.368,10.081.031,4.657,0,9.315-.061,13.972-.031,2.543-.061,5.117-.092,7.66v7.722c0,2.88,0,5.761.214,8.457l.092,1.655v2.39c0,.429-.031.858-.031,1.256l-.031.613v.46l-.031.123c-.184.552-.337,1.134-.521,1.685-.123.368-.215.735-.337,1.1l-.031.123-.031.061V247h-.031a1.243,1.243,0,0,1-.276-.153l-.521-.306-1.042-.643a3.109,3.109,0,0,1-.552-.4c-.092-.061-.184-.153-.306-.245l-.306-.276c-.552-.552-1.1-1.072-1.624-1.593l-.766-.766-.092-.092-.061-.061-.123-.153-.276-.306c-.46-.337-.889-.643-1.348-.981-.613-.429-1.2-.858-1.808-1.348a43.341,43.341,0,0,1-7.354-6.956,35.317,35.317,0,0,0-5.148-4.872,11.546,11.546,0,0,0-1.2-.8c-.643-.429-1.226-.8-1.9-1.256a13.86,13.86,0,0,1-3.064-2.911c-.306-.368-.582-.735-.889-1.134a13.989,13.989,0,0,0-2.942-2.788,81.038,81.038,0,0,1-8.518-7.109c-1.869-1.777-3.738-3.524-5.577-5.332-2.022-1.93-4.014-3.922-6.036-5.914a28.816,28.816,0,0,1-2.543-2.788,36.667,36.667,0,0,0-4.137-4.382c-1.593-1.471-3.187-3.033-4.78-4.657a8.027,8.027,0,0,1-1.624-2.114c-.552-1.256-1.226-2.6-.7-2.88.092-.061-.613-.7-1.042-1.164-.092.429-.552.521-.919.674-.123.061-.4-.031-.613-.061a10.139,10.139,0,0,1-3.432-2.359c-2.206-1.992-4.443-3.983-6.649-6.1-1.9-1.838-3.83-3.677-5.73-5.485-.889-.858-1.808-1.747-2.635-2.6-1.716-1.808-3.493-3.616-5.3-5.424q-3.447-3.493-6.986-6.8c-.95-.889-1.93-1.777-2.88-2.6-1.5-1.318-2.911-2.635-4.382-4.106-4.719-4.719-9.315-9.407-13.7-14.126-.4-.429-.858-.889-1.226-1.318a42.124,42.124,0,0,0-3.922-3.83c-1.134-.981-2.267-1.93-3.4-2.911-1.256-1.072-2.482-2.206-3.738-3.4-3.217-3.064-6.343-6.19-9.468-9.315-3.983-4.014-7.967-8-11.95-12.011-1.042-1.042-2.114-2.084-3.156-3.125-1.011-.981-2.022-1.93-3.033-2.788l-2.022-1.747a29,29,0,0,1-2.911-2.911c-1.164-1.318-2.176-2.574-3.156-3.8-.766-.981-1.5-1.93-2.513-3.033-.46-.368-.919-.735-1.41-1.134-.8-.674-1.624-1.318-2.421-2.022a40.269,40.269,0,0,1-5.3-5.454,10.22,10.22,0,0,1-.827-1.072,26.006,26.006,0,0,0-4.229-4.535,12.358,12.358,0,0,0-1.348-1.042c-.582-.4-1.072-.7-1.655-1.134-.46-.337-1.011-.766-1.532-1.226a11.776,11.776,0,0,1-1.808-1.93l-1.1-1.563a11.665,11.665,0,0,0-2.911-2.972,78.537,78.537,0,0,1-8.4-7.568c-2.6-2.7-5.178-5.393-7.783-8.12-1.716-1.808-3.432-3.585-5.148-5.27-.49-.46-.981-.981-1.44-1.471-1.961-2.145-3.891-4.29-5.761-6.619l-.49-.643a7.586,7.586,0,0,1-.582-.8,16.131,16.131,0,0,1-1.072-1.593,2.532,2.532,0,0,1-.214-.4c-.061-.123-.153-.276-.214-.4-.092-.245-.214-.521-.276-.735-.123-.46-.214-.889-.306-1.348-.061-.245-.092-.46-.153-.735v-.061h.031l.092-.031.153-.061.337-.092,1.287-.429.643-.214c.031-.031.153,0,.214-.031h.735l1.992-.061,3.953-.123,3.462-.061c2.3-.031,4.6-.092,6.894-.061,1.318,0,2.635,0,3.953.031,3.279,0,6.557,0,9.805-.092,3.616-.092,7.231-.245,10.878-.306,3.248-.061,6.527-.092,9.775.061,1.624.061,3.125.184,4.6.306.674.061,1.379.153,2.145.214.766-.061,1.532-.123,2.267-.184.552-.061,1.072-.123,1.624-.153a40.583,40.583,0,0,1,5.852-.123c2.3.123,4.443.276,6.619.46,1.379.092,2.788.184,4.167.306a20.213,20.213,0,0,0,3.616-.061l2.022-.184a33.863,33.863,0,0,1,5.607-.092c1.042.061,2.145.092,3.156.184a92.812,92.812,0,0,0,11.674.031c1.1-.061,2.206-.123,3.309-.153a46.516,46.516,0,0,1,10.2.521c.337.061.7.123.981.153.98-.031,1.869-.061,2.758-.123.368-.031.766-.031,1.042-.061a64.121,64.121,0,0,1,9.56-.276c2.482.061,4.964.153,7.415.245,3.248.123,6.5.123,9.775.092,4.259-.061,8.518-.153,12.808-.123h4.872c1.869,0,3.738-.031,5.577-.031.735,0,1.471-.031,2.206-.031.735-.031,1.471-.031,2.206-.061,3.156-.092,6.343-.184,9.437-.031a69.563,69.563,0,0,0,7.568-.123c1.808-.123,3.616-.245,5.515-.276l6.036-.092c.766,0,1.532-.031,2.3-.061l1.869-.092c2.329-.092,4.658-.184,6.986-.306,1.409-.092,2.788-.153,4.2-.245l2.972-.184.368-.031h.368v.8l.031,1.624c0,1.134.031,2.267.031,3.4V29.63c0,1.5-.031,3-.061,4.5-.031,2.237-.031,4.474.061,6.741a57.121,57.121,0,0,1-.276,8.763,21.076,21.076,0,0,0-.092,2.85c.031,1.011.092,2.022.123,3,.031.368.061.8.092,1.072a57.091,57.091,0,0,1,.521,7.538c.031,1.011.031,2.022.031,3a40.111,40.111,0,0,0,.276,4.78c.092.8.184,1.593.245,2.39a16.449,16.449,0,0,1,.031,3.462c-.031.214-.061.46-.092.7a6.979,6.979,0,0,0-.061.8,10.326,10.326,0,0,0-.092,2.6c.061.889.153,1.808.215,2.7l.276,3.493a19.073,19.073,0,0,1-.245,5.362,18.8,18.8,0,0,0-.337,2.145A5.5,5.5,0,0,0,285.09,96.949Z" transform="translate(14)"/>
</svg>
