<svg xmlns="http://www.w3.org/2000/svg" viewBox="0 0 2144 1026" preserveAspectRatio="none">
    <defs>
        <style>
            .gradient {
            fill: url(#linear-gradient);
            }
        </style>
        <linearGradient id="linear-gradient" x1="0%" y1="0%" x2="100%" y2="0%" gradientUnits="objectBoundingBox">
            <stop offset="0" stop-color="#30efe8"/>
            <stop offset="1" stop-color="#1fd59b"/>
        </linearGradient>
    </defs>
  <path id="happy-point-half" class="gradient"
        d="M 2144.00,0.00
           C 2144.00,0.00 2144.00,1025.00 2144.00,1025.00
             2144.00,1025.00 0.00,1025.00 0.00,1025.00
             0.00,1025.00 0.00,0.00 0.00,0.00
             0.00,0.00 2144.00,0.00 2144.00,0.00 Z
           M 2081.96,948.00
           C 2081.96,948.00 2081.04,937.00 2081.04,937.00
             2081.04,937.00 2083.00,915.00 2083.00,915.00
             2083.00,915.00 2083.00,811.00 2083.00,811.00
             2083.00,811.00 2084.00,796.00 2084.00,796.00
             2084.00,796.00 2084.00,710.00 2084.00,710.00
             2084.00,710.00 2083.00,695.00 2083.00,695.00
             2083.00,695.00 2083.00,666.00 2083.00,666.00
             2083.00,666.00 2082.04,656.00 2082.04,656.00
             2082.04,656.00 2082.04,641.00 2082.04,641.00
             2082.04,641.00 2079.04,614.00 2079.04,614.00
             2079.04,614.00 2080.83,593.00 2080.83,593.00
             2080.83,593.00 2077.04,570.00 2077.04,570.00
             2076.65,561.19 2078.08,558.75 2078.91,551.00
             2078.91,551.00 2078.91,534.00 2078.91,534.00
             2078.91,534.00 2077.04,511.00 2077.04,511.00
             2077.04,511.00 2079.96,483.00 2079.96,483.00
             2079.96,483.00 2078.00,453.00 2078.00,453.00
             2078.00,453.00 2078.00,412.00 2078.00,412.00
             2078.00,412.00 2079.00,397.00 2079.00,397.00
             2079.00,397.00 2079.00,377.00 2079.00,377.00
             2079.00,377.00 2080.00,362.00 2080.00,362.00
             2080.00,362.00 2080.00,341.00 2080.00,341.00
             2080.00,341.00 2078.09,310.00 2078.09,310.00
             2078.09,310.00 2080.00,282.00 2080.00,282.00
             2080.00,282.00 2080.96,272.00 2080.96,272.00
             2080.96,272.00 2080.96,260.00 2080.96,260.00
             2080.96,260.00 2082.00,245.00 2082.00,245.00
             2082.00,245.00 2082.00,205.00 2082.00,205.00
             2082.00,205.00 2083.00,191.00 2083.00,191.00
             2083.00,191.00 2084.00,166.00 2084.00,166.00
             2084.00,166.00 2085.00,150.00 2085.00,150.00
             2085.00,150.00 2085.00,103.00 2085.00,103.00
             2085.00,103.00 2083.08,83.00 2083.08,83.00
             2082.58,80.27 2082.06,77.43 2079.72,75.60
             2076.86,73.36 2074.57,74.98 2071.28,73.34
             2069.35,72.37 2067.34,69.76 2062.00,68.53
             2051.52,66.10 2021.62,70.84 2008.00,71.00
             2008.00,71.00 1986.00,73.73 1986.00,73.73
             1972.83,75.67 1949.38,80.39 1937.00,84.51
             1937.00,84.51 1916.00,92.76 1916.00,92.76
             1916.00,92.76 1896.00,97.47 1896.00,97.47
             1896.00,97.47 1884.00,104.14 1884.00,104.14
             1884.00,104.14 1874.00,108.72 1874.00,108.72
             1874.00,108.72 1850.00,117.31 1850.00,117.31
             1844.06,119.99 1837.53,123.38 1832.00,126.81
             1832.00,126.81 1821.00,133.73 1821.00,133.73
             1821.00,133.73 1791.00,148.44 1791.00,148.44
             1791.00,148.44 1770.00,164.26 1770.00,164.26
             1740.48,185.63 1710.17,211.44 1687.45,240.00
             1687.45,240.00 1668.28,268.00 1668.28,268.00
             1668.28,268.00 1648.69,296.00 1648.69,296.00
             1634.64,317.83 1622.25,346.23 1614.34,371.00
             1614.34,371.00 1609.63,390.00 1609.63,390.00
             1605.21,407.90 1599.22,430.64 1599.00,449.00
             1599.00,449.00 1598.00,466.00 1598.00,466.00
             1598.00,466.00 1597.00,488.00 1597.00,488.00
             1597.00,488.00 1597.00,512.00 1597.00,512.00
             1597.00,512.00 1598.49,531.00 1598.49,531.00
             1598.49,531.00 1597.09,545.00 1597.09,545.00
             1597.09,545.00 1600.99,575.00 1600.99,575.00
             1600.99,575.00 1600.32,588.00 1600.32,588.00
             1600.32,588.00 1603.72,611.00 1603.72,611.00
             1603.72,611.00 1607.42,638.00 1607.42,638.00
             1607.42,638.00 1614.27,662.00 1614.27,662.00
             1614.27,662.00 1619.81,685.00 1619.81,685.00
             1626.85,703.57 1645.48,734.31 1656.98,751.00
             1670.12,770.07 1682.98,789.54 1698.29,807.00
             1698.29,807.00 1709.91,819.00 1709.91,819.00
             1709.91,819.00 1728.04,839.96 1728.04,839.96
             1742.19,854.12 1768.77,875.16 1786.00,885.55
             1806.39,897.85 1849.95,916.00 1873.00,922.57
             1873.00,922.57 1901.00,928.44 1901.00,928.44
             1901.00,928.44 1924.00,936.35 1924.00,936.35
             1924.00,936.35 1969.00,944.00 1969.00,944.00
             1982.22,946.64 1995.41,950.84 2009.00,951.00
             2030.64,951.25 2051.33,959.97 2073.00,960.00
             2073.00,960.00 2081.96,960.00 2081.96,960.00
             2081.96,960.00 2081.96,948.00 2081.96,948.00 Z" />
</svg>
