<svg xmlns="http://www.w3.org/2000/svg" viewBox="0 0 2144 879"  preserveAspectRatio="none">
    <defs>
        <style>
            .gradient {
            fill: url(#linear-gradient);
            }
        </style>
        <linearGradient id="linear-gradient" x1="0%" y1="0%" x2="100%" y2="0%" gradientUnits="objectBoundingBox">
            <stop offset="0" stop-color="#30efe8"/>
            <stop offset="1" stop-color="#1fd59b"/>
        </linearGradient>
    </defs>
  <path id="happy-point-quarter" class="gradient"
        d="M 2144.00,0.00
           C 2144.00,0.00 2144.00,879.00 2144.00,879.00
             2144.00,879.00 0.00,879.00 0.00,879.00
             0.00,879.00 0.00,0.00 0.00,0.00
             0.00,0.00 2144.00,0.00 2144.00,0.00 Z
           M 2046.00,69.00
           C 2046.00,69.00 2012.00,71.00 2012.00,71.00
             2012.00,71.00 1975.00,72.09 1975.00,72.09
             1975.00,72.09 1943.00,77.79 1943.00,77.79
             1943.00,77.79 1936.00,77.18 1936.00,77.18
             1924.23,76.35 1905.08,83.55 1893.00,86.00
             1893.00,86.00 1874.00,87.67 1874.00,87.67
             1874.00,87.67 1853.00,93.34 1853.00,93.34
             1853.00,93.34 1825.00,99.43 1825.00,99.43
             1825.00,99.43 1799.00,107.97 1799.00,107.97
             1799.00,107.97 1763.00,116.34 1763.00,116.34
             1723.75,129.92 1690.40,146.01 1654.00,165.69
             1654.00,165.69 1628.00,179.60 1628.00,179.60
             1628.00,179.60 1604.00,194.95 1604.00,194.95
             1604.00,194.95 1577.00,210.69 1577.00,210.69
             1554.96,224.88 1523.85,249.01 1505.00,267.04
             1505.00,267.04 1471.84,303.00 1471.84,303.00
             1461.51,314.56 1450.96,326.30 1442.04,339.00
             1442.04,339.00 1424.76,369.00 1424.76,369.00
             1424.76,369.00 1406.78,395.00 1406.78,395.00
             1406.78,395.00 1386.69,440.00 1386.69,440.00
             1386.69,440.00 1372.06,471.00 1372.06,471.00
             1372.06,471.00 1364.19,498.00 1364.19,498.00
             1364.19,498.00 1347.08,540.00 1347.08,540.00
             1347.08,540.00 1340.43,570.00 1340.43,570.00
             1340.43,570.00 1334.69,585.00 1334.69,585.00
             1334.69,585.00 1326.89,611.00 1326.89,611.00
             1326.89,611.00 1315.58,669.00 1315.58,669.00
             1308.70,707.14 1303.06,742.07 1303.00,781.00
             1303.00,781.00 1302.00,798.00 1302.00,798.00
             1302.00,798.00 1302.00,808.00 1302.00,808.00
             1302.00,808.00 1318.00,808.00 1318.00,808.00
             1318.00,808.00 1329.00,808.92 1329.00,808.92
             1329.00,808.92 1342.00,808.03 1342.00,808.03
             1342.00,808.03 1378.00,808.03 1378.00,808.03
             1378.00,808.03 1393.00,808.03 1393.00,808.03
             1396.87,808.35 1398.71,809.15 1403.00,808.91
             1403.00,808.91 1415.00,807.92 1415.00,807.92
             1415.00,807.92 1430.00,807.92 1430.00,807.92
             1430.00,807.92 1450.00,806.00 1450.00,806.00
             1450.00,806.00 1472.00,807.99 1472.00,807.99
             1482.93,807.72 1486.77,803.79 1505.00,804.00
             1505.00,804.00 1535.00,806.00 1535.00,806.00
             1535.00,806.00 1553.00,804.71 1553.00,804.71
             1553.00,804.71 1563.00,803.34 1563.00,803.34
             1563.00,803.34 1592.00,806.00 1592.00,806.00
             1592.00,806.00 1607.00,806.00 1607.00,806.00
             1607.00,806.00 1635.00,804.00 1635.00,804.00
             1635.00,804.00 1756.00,804.00 1756.00,804.00
             1756.00,804.00 1768.00,803.09 1768.00,803.09
             1768.00,803.09 1800.00,802.00 1800.00,802.00
             1800.00,802.00 1810.00,802.91 1810.00,802.91
             1810.00,802.91 1833.00,804.00 1833.00,804.00
             1833.00,804.00 1848.00,805.00 1848.00,805.00
             1848.00,805.00 1869.00,806.00 1869.00,806.00
             1869.00,806.00 1912.00,806.00 1912.00,806.00
             1912.00,806.00 1930.00,805.00 1930.00,805.00
             1930.00,805.00 1941.00,805.98 1941.00,805.98
             1941.00,805.98 1957.00,805.98 1957.00,805.98
             1957.00,805.98 1988.00,808.00 1988.00,808.00
             1988.00,808.00 2026.00,808.00 2026.00,808.00
             2026.00,808.00 2047.00,807.00 2047.00,807.00
             2051.85,806.98 2060.35,806.75 2062.96,801.89
             2064.42,799.19 2063.10,796.81 2064.15,794.37
             2065.17,791.99 2067.30,792.00 2069.76,785.00
             2071.60,779.74 2071.06,770.77 2071.00,765.00
             2071.00,765.00 2069.04,742.00 2069.04,742.00
             2069.04,742.00 2070.00,723.00 2070.00,723.00
             2070.00,723.00 2070.00,704.00 2070.00,704.00
             2070.00,704.00 2069.00,688.00 2069.00,688.00
             2069.00,688.00 2069.00,645.00 2069.00,645.00
             2069.00,645.00 2066.82,617.58 2066.82,617.58
             2066.82,617.58 2068.99,592.00 2068.99,592.00
             2068.99,592.00 2066.00,564.00 2066.00,564.00
             2066.00,564.00 2068.91,541.00 2068.91,541.00
             2068.91,541.00 2068.91,518.00 2068.91,518.00
             2068.91,518.00 2067.86,500.00 2067.86,500.00
             2067.86,500.00 2072.00,463.00 2072.00,463.00
             2072.00,463.00 2071.00,444.00 2071.00,444.00
             2071.00,444.00 2072.00,402.00 2072.00,402.00
             2072.00,402.00 2073.00,385.00 2073.00,385.00
             2073.00,385.00 2074.00,357.00 2074.00,357.00
             2074.00,357.00 2075.00,341.00 2075.00,341.00
             2075.00,341.00 2075.00,327.00 2075.00,327.00
             2075.00,327.00 2075.95,315.00 2075.95,315.00
             2075.95,315.00 2075.95,301.00 2075.95,301.00
             2075.95,301.00 2075.00,286.00 2075.00,286.00
             2075.00,286.00 2075.00,264.00 2075.00,264.00
             2075.00,264.00 2077.00,239.00 2077.00,239.00
             2077.00,239.00 2077.00,135.00 2077.00,135.00
             2077.00,135.00 2076.00,120.00 2076.00,120.00
             2076.00,120.00 2076.00,87.00 2076.00,87.00
             2076.00,87.00 2075.00,69.00 2075.00,69.00
             2075.00,69.00 2046.00,69.00 2046.00,69.00 Z" />
</svg>
