<svg xmlns="http://www.w3.org/2000/svg" width="25" height="25" viewBox="0 0 25 25" fill="none">
  <rect width="25" height="25" fill="white"/>
  <path d="M8.53408 14.7966C6.69033 14.7966 4.84658 14.7966 3.00283 14.7966C2.52158 14.7966 2.15283 14.5966 1.93721 14.1653C1.85596 14.0028 1.81846 13.806 1.81533 13.6247C1.81221 11.0341 1.81221 8.44658 1.81533 5.85596C1.81533 5.29971 2.13408 4.87783 2.66221 4.73096C2.76846 4.69971 2.88721 4.70283 2.99971 4.69971C3.55283 4.69658 4.10908 4.69658 4.66221 4.69971C4.77158 4.69971 4.82783 4.66221 4.88721 4.57471C5.32783 3.90283 5.77783 3.23408 6.21846 2.56533C6.27471 2.48096 6.33408 2.44971 6.43408 2.44971C7.84033 2.45283 9.24658 2.45283 10.6528 2.44971C10.7403 2.44971 10.7935 2.47471 10.8435 2.54971C11.2935 3.23408 11.7528 3.91533 12.2028 4.59971C12.2528 4.67471 12.3028 4.69971 12.3903 4.69971C13.0216 4.69658 13.656 4.69658 14.2872 4.70596C14.7622 4.71533 15.231 5.16533 15.281 5.64033C15.2935 5.75596 15.2997 5.87471 15.2997 5.99033C15.2997 8.53408 15.2997 11.0747 15.2997 13.6185C15.2997 14.1841 14.9716 14.6122 14.4216 14.7528C14.3028 14.7841 14.1747 14.7903 14.0497 14.7903C12.2122 14.7966 10.3716 14.7966 8.53408 14.7966ZM8.54971 6.35908C7.10283 6.30908 5.72783 7.60283 5.71533 9.14971C5.70283 10.7028 6.92783 11.9653 8.52783 11.9903C10.0872 12.0153 11.3403 10.7622 11.356 9.21221C11.3685 7.68721 10.1216 6.32783 8.54971 6.35908Z" fill="black"/>
  <path d="M19.7813 17.1218C19.7813 15.2155 19.7813 13.3187 19.7813 11.4093C18.6625 11.4093 17.5438 11.4093 16.4156 11.4093C16.4156 10.2968 16.4156 9.19678 16.4156 8.0874C18.275 8.0874 20.1375 8.0874 22.0125 8.0874C22.0157 8.12803 22.0188 8.1749 22.0188 8.21865C22.0188 12.0687 22.0188 15.9218 22.0188 19.7718C22.0188 20.5187 21.8125 21.1843 21.2969 21.7437C20.6719 22.4187 19.8969 22.7249 18.9844 22.6405C17.8157 22.5312 17.0063 21.8999 16.5782 20.828C16.275 20.0687 16.3375 19.2937 16.7313 18.5624C17.05 17.9687 17.5188 17.528 18.1407 17.2593C18.6282 17.0499 19.1375 16.9812 19.6625 17.0999C19.6969 17.1124 19.7375 17.1155 19.7813 17.1218Z" fill="black"/>
  <path d="M11.9218 17.0938C11.9218 16.7345 11.9218 16.3532 11.9218 15.9595C12.6687 15.9595 13.403 15.9595 14.1437 15.9595C14.1468 15.9813 14.153 16.0063 14.153 16.0282C14.153 17.3313 14.1624 18.6376 14.1468 19.9407C14.1312 21.097 13.4124 22.097 12.3249 22.497C11.8624 22.6657 11.378 22.6938 10.8937 22.6157C9.95929 22.4626 9.29054 21.9407 8.83742 21.1282C8.60617 20.7095 8.52804 20.2501 8.54367 19.772C8.57804 18.7907 9.04367 18.0532 9.83117 17.5032C10.2218 17.2313 10.6624 17.072 11.1437 17.0595C11.3999 17.0532 11.6562 17.0813 11.9218 17.0938Z" fill="black"/>
</svg>
