<svg width="24" height="24" viewBox="0 0 24 24" fill="none" xmlns="http://www.w3.org/2000/svg">
<mask id="mask0_6365_3057" style="mask-type:alpha" maskUnits="userSpaceOnUse" x="0" y="0" width="24" height="24">
<rect width="24" height="24" fill="#D9D9D9"/>
</mask>
<g mask="url(#mask0_6365_3057)">
<path d="M7.8248 13L12.7248 17.9C12.9248 18.1 13.0206 18.3334 13.0123 18.6C13.004 18.8667 12.8998 19.1 12.6998 19.3C12.4998 19.4834 12.2665 19.5792 11.9998 19.5875C11.7331 19.5959 11.4998 19.5 11.2998 19.3L4.6998 12.7C4.5998 12.6 4.52897 12.4917 4.4873 12.375C4.44564 12.2584 4.4248 12.1334 4.4248 12C4.4248 11.8667 4.44564 11.7417 4.4873 11.625C4.52897 11.5084 4.5998 11.4 4.6998 11.3L11.2998 4.70005C11.4831 4.51672 11.7123 4.42505 11.9873 4.42505C12.2623 4.42505 12.4998 4.51672 12.6998 4.70005C12.8998 4.90005 12.9998 5.13755 12.9998 5.41255C12.9998 5.68755 12.8998 5.92505 12.6998 6.12505L7.8248 11H18.9998C19.2831 11 19.5206 11.0959 19.7123 11.2875C19.904 11.4792 19.9998 11.7167 19.9998 12C19.9998 12.2834 19.904 12.5209 19.7123 12.7125C19.5206 12.9042 19.2831 13 18.9998 13H7.8248Z" fill="#1C1C1C"/>
</g>
</svg>
