<svg xmlns="http://www.w3.org/2000/svg" width="15" height="16" viewBox="0 0 15 16" fill="none">
<path fill-rule="evenodd" clip-rule="evenodd" d="M0.191386 0.488101L0.250564 0.406827L0.320352 0.328067C0.718074 -0.0792004 1.35142 -0.110156 1.78422 0.251314L1.86715 0.328067L7.5 6.09611L13.1329 0.328067L13.2158 0.251314C13.6486 -0.110156 14.2819 -0.0792004 14.6796 0.328067L14.7494 0.406827L14.8086 0.488101C15.1028 0.931638 15.054 1.52868 14.6796 1.91199L8.89062 7.83939L14.6796 13.7681C15.1068 14.2055 15.1068 14.9146 14.6796 15.352C14.2525 15.7894 13.56 15.7894 13.1329 15.352L7.5 9.58394L1.86715 15.352C1.44001 15.7894 0.747488 15.7894 0.320352 15.352C-0.106784 14.9146 -0.106784 14.2055 0.320354 13.7681L6.10937 7.83939L0.320352 1.91199C-0.0539748 1.52868 -0.102772 0.931638 0.191386 0.488101Z" fill="#020202"/>
</svg>
