<svg width="24" height="24" viewBox="0 0 24 24" fill="none" xmlns="http://www.w3.org/2000/svg">
<circle cx="12" cy="12" r="12" fill="#ECECEC"/>
<path fill-rule="evenodd" clip-rule="evenodd" d="M7.12249 7.30506L7.16036 7.25427L7.20503 7.20504C7.45957 6.9505 7.86491 6.93115 8.1419 7.15707L8.19497 7.20504L11.8008 10.8108L15.4066 7.20504L15.4597 7.15707C15.7367 6.93115 16.142 6.9505 16.3965 7.20504L16.4412 7.25427L16.4791 7.30506C16.6673 7.58227 16.6361 7.95542 16.3965 8.19499L12.6916 11.8996L16.3965 15.605C16.6699 15.8784 16.6699 16.3216 16.3965 16.595C16.1232 16.8684 15.68 16.8684 15.4066 16.595L11.8008 12.9892L8.19497 16.595C7.92161 16.8684 7.47839 16.8684 7.20503 16.595C6.93166 16.3216 6.93166 15.8784 7.20503 15.605L10.91 11.8996L7.20503 8.19499C6.96546 7.95542 6.93423 7.58227 7.12249 7.30506Z" fill="#1C1C1C"/>
</svg>
