<svg width="18" height="17" viewBox="0 0 18 17" fill="none" xmlns="http://www.w3.org/2000/svg">
<path fill-rule="evenodd" clip-rule="evenodd" d="M10.9903 0C14.3624 0 17.096 2.73363 17.096 6.10572V7.32687C17.096 10.699 14.3624 13.4326 10.9903 13.4326H7.60012L5.9048 14.2866L3.72272 15.3858L3.65832 15.4182L3.0511 15.7241L2.10836 16.199C1.32429 16.594 0.44823 15.8591 0.700724 15.0183L1.00432 14.0073L1.19986 13.3561L1.2206 13.2871L1.73128 11.5865C0.659931 10.4864 0 8.98371 0 7.32687V6.10572C0 2.73363 2.73363 0 6.10572 0H10.9903ZM5.82589 11.2247L5.44877 11.1572L5.0076 11.0782C3.38408 10.6037 2.19814 9.10379 2.19814 7.32693V6.10578L2.20432 5.88404C2.31928 3.82906 4.02207 2.19812 6.1058 2.19812H10.9904L11.2121 2.20431C13.2671 2.31926 14.898 4.02206 14.898 6.10578V7.32693L14.8919 7.54867C14.7769 9.60365 13.0741 11.2346 10.9904 11.2346H6.1058L5.88406 11.2284C5.86463 11.2273 5.84524 11.2261 5.82589 11.2247Z" fill="#6F7370"/>
</svg>
