<svg xmlns="http://www.w3.org/2000/svg" viewBox="0 0 24 24"><g data-name="Layer 2"><path d="M12 0a12 12 0 1 0 12 12A12 12 0 0 0 12 0zM5.06 10.84a.45.45 0 0 0-.25-.12c-.35-.05-.44-.24-.43-.32s.1 0-.38-.07a2.38 2.38 0 0 1-.56-.14.6.6 0 0 1-.25-.19 1.13 1.13 0 0 1-.09-.34v-.19a1.74 1.74 0 0 0-.1-.42l-.16-.36-.08-.16a.73.73 0 0 0-.19-.23.51.51 0 0 1-.19-.3 1.09 1.09 0 0 1 0-.4 3.66 3.66 0 0 1 .5-.86l.52-.7a.48.48 0 0 0 .12-.29 1.5 1.5 0 0 1 0-.3.68.68 0 0 0 0-.12c.12-.15.24-.3.37-.44a.38.38 0 0 1 .31-.12c.1 0 .14 0 .14-.07s0 0 .07-.06a2.52 2.52 0 0 0 .54-.29 5.73 5.73 0 0 0 .92-.74.4.4 0 0 1 .33-.11h.15a.88.88 0 0 0 .36 0c.09 0 .23-.08.29 0a.49.49 0 0 1 .08.1c.12.19.23.06.24-.18s0-.19 0-.27.08-.29.18-.33.31 0 .55.36.38.31.42.17a.56.56 0 0 1 .21-.29l.18-.16.14-.1c.08-.07 0-.13 0-.21a.19.19 0 0 1 .07-.13.29.29 0 0 1 .16-.09.8.8 0 0 1 .37.11 1.31 1.31 0 0 1 .15.12.6.6 0 0 0 .18.15c.1.06.24.11.3.15s.24.11.24.22a.49.49 0 0 1-.09.18c-.21.25-.19.09-.17.27a.41.41 0 0 1 0 .1.14.14 0 0 1-.12.1h-.2a.43.43 0 0 0-.24.23c-.18.19-.44.5-.19.55a2 2 0 0 0 .29 0c.11 0 .21 0 .21.1a.34.34 0 0 0 .04.15h.16a.12.12 0 0 1 .09.08v.16a1.06 1.06 0 0 0 .06.28.22.22 0 0 0 .08.09c.15.13.25.31 0 .42l-.15.17a2 2 0 0 0-.27.15h-.09s-.48.25-.4 0S9.49 6 9.37 6h-.22a2.58 2.58 0 0 0-2.09 1c-.07.09-.16.25-.22.34a2 2 0 0 1-.52.53.45.45 0 0 0-.19.3v.53s0 .29-.15.16a1.24 1.24 0 0 1-.1-.39.2.2 0 0 0-.29-.16 4.86 4.86 0 0 1-.59.12 1.34 1.34 0 0 0-.39.11 1 1 0 0 0-.4 1.14c0 .14 0 .42.23.37.11 0 .27-.12.38-.14s.46-.07.43.13a3.08 3.08 0 0 0 .21 1c0 .12.44.16.47.14s-.06.47-.21.33l-.41-.35a3.46 3.46 0 0 1-.25-.32zm5.64 3.09a2.1 2.1 0 0 1-.15.3.58.58 0 0 0 0 .33V15.14a1.21 1.21 0 0 1 0 .3.53.53 0 0 1-.11.21.39.39 0 0 1-.2.12.33.33 0 0 0-.21.17.51.51 0 0 0-.1.3v.28a.4.4 0 0 1-.06.22.23.23 0 0 0 0 .17.37.37 0 0 1 0 .08v.08a.25.25 0 0 1-.05.16.72.72 0 0 0-.11.19.51.51 0 0 0 0 .21c0 .05-.07.14-.17.19a.4.4 0 0 0-.2.28 1.51 1.51 0 0 0 0 .37.77.77 0 0 0 .14.32.76.76 0 0 1 .13.31.69.69 0 0 0 .12.26 1 1 0 0 0 .28.18c.1 0 .15.12.11.17a.36.36 0 0 1-.28.07.73.73 0 0 1-.35-.15l-.48-.44a1.61 1.61 0 0 1-.28-.3 7.13 7.13 0 0 1-1.12-3.08 1.78 1.78 0 0 0-.32-.42 2 2 0 0 0-.32-.25H6.9a1.94 1.94 0 0 1-.34-.21 1.29 1.29 0 0 1-.2-.35 1.33 1.33 0 0 0-.22-.34L6 14.1l-.22-.29-.09-.14s-.17-.21.17-1.07a1.29 1.29 0 0 0 .07-.67v-.26a1.18 1.18 0 0 0 .21-.26c.1-.16.27-.36.45-.17a.46.46 0 0 0 .31.16 3.61 3.61 0 0 0 .38-.08.5.5 0 0 1 .34.09l.27.21a.51.51 0 0 1 .11.18h.3a.4.4 0 0 1 .27.06.18.18 0 0 0 .1.07s.06 0 .09.07l.09.15a.44.44 0 0 1 0 .08l.09.16a.54.54 0 0 0 .29.22l.2.07.4.1a1.29 1.29 0 0 1 .38.12l.28.14a.57.57 0 0 1 .23.26 1.13 1.13 0 0 1 0 .3.78.78 0 0 1-.02.33zm10.66 2.65l-.81 1.18c-.36.55-.55.37-.68.16a.54.54 0 0 0-.31-.21c-.25 0-.38.11-.69.39a1.27 1.27 0 0 1-.34.23c-.2.08-.24 0-.23-.17s0-.29.05-.4a.78.78 0 0 1 .12-.29 2.5 2.5 0 0 0 .21-.35 2.3 2.3 0 0 0 .13-.56 1 1 0 0 1 .12-.75l.22-.34.24-.38.2-.27.05-.07a1.58 1.58 0 0 1 .22-.13c.09 0 .19-.19.29-.24a1.08 1.08 0 0 1 .53-.09.88.88 0 0 1 .39.11.38.38 0 0 1 .11.23 1.29 1.29 0 0 1 0 .39.66.66 0 0 0 0 .51c.06.09.18.23.24.33a.65.65 0 0 1 .1.35.81.81 0 0 1-.16.37zm.87-7.07a.42.42 0 0 1 .09.34v.1a1.36 1.36 0 0 0 0 .4v.09a.35.35 0 0 1-.07.27.13.13 0 0 1-.18 0 .86.86 0 0 0-.23-.17h-.14s0 .1-.06.1-.12-.07-.16-.15a1 1 0 0 1-.1-.27c0-.06 0-.19-.07-.3l-.09-.28c0-.11-.21-.12-.3-.19s-.27-.09-.32 0a1.82 1.82 0 0 0-.11.4l-.05.22-.11.4a2.27 2.27 0 0 0 0 .62v.29c0 .04-.22-.1-.28-.19l-.2-.31-.26-.44-.12-.22c-.06-.1-.15-.26-.22-.35L19 9.73a1.24 1.24 0 0 0-.28-.28l-.19-.13a1.48 1.48 0 0 1-.29-.27c-.16-.2-.44-.54-.7-.81a.41.41 0 0 0-.54-.12 1.6 1.6 0 0 1-.25.15.45.45 0 0 1-.25 0 .8.8 0 0 0-.33-.08c-.14 0-.14.06-.1.12a1.94 1.94 0 0 0 .31.26l.22.18s.66.5 1.15.8c.1.06.27.13.37.18a.38.38 0 0 1 .13.11c.06.1 0 .25-.06.32a.71.71 0 0 1-.18.27l-.32.32a.17.17 0 0 0 0 .26c.35.27.37.43.37.6A1.86 1.86 0 0 1 18 12a.2.2 0 0 0 0 .26c.07.09.15.24.09.34a.18.18 0 0 1-.24.09l-.14-.05a.32.32 0 0 0-.28.14 1.29 1.29 0 0 0-.24.69c0 .11.06.29.07.4s0 .32 0 .53a.57.57 0 0 1-.16.34.78.78 0 0 0-.16.22v.4a6.28 6.28 0 0 1-.4 1.12.62.62 0 0 1-1 .3.56.56 0 0 1-.23-.31c0-.12-.09-.31-.16-.61 0-.11-.09-.28-.13-.39a2.42 2.42 0 0 1-.19-.89v-.4l.05-.57a.66.66 0 0 0-.11-.36.69.69 0 0 1-.14-.34v-.28a.59.59 0 0 0-.18-.34 1 1 0 0 0-.85-.16 2.46 2.46 0 0 0-.38.14.45.45 0 0 1-.61-.22l-.08-.17a.72.72 0 0 0-.19-.25.84.84 0 0 1-.21-.27c-.15-.27-.24-.44-.3-.56a3.9 3.9 0 0 1-.19-.35l-.17-.31a1.8 1.8 0 0 1-.16-.38 1.61 1.61 0 0 1 .52-1.93 1 1 0 0 1 .37-.15h.13a1 1 0 0 1 .32 0 .31.31 0 0 1 .21.11.54.54 0 0 0 .19.13l.22.06a.53.53 0 0 0 .25 0 2 2 0 0 1 .34-.07 2.63 2.63 0 0 0 .53-.15.27.27 0 0 0 .18-.28c0-.27-.18-.26-.32-.22a.83.83 0 0 1-.37.05.32.32 0 0 1-.19-.31.44.44 0 0 1-.06-.16.11.11 0 0 0-.08-.09s-.08 0-.1.09a.51.51 0 0 0 0 .24c0 .07 0 .11-.12 0a1.47 1.47 0 0 1-.18-.24.77.77 0 0 0-.5-.34.6.6 0 0 0-.39.07 1.5 1.5 0 0 0-.23.15 1.53 1.53 0 0 0-.26.31c-.26.38-.34.32-.37.21s0-.3 0-.41l-.06-.4a1.35 1.35 0 0 1 0-.4l.11-.46.09-.39a1.45 1.45 0 0 1 .18-.35A2.09 2.09 0 0 0 12 4.4a.91.91 0 0 1 .26-.29l.09-.05a.68.68 0 0 1 .39-.06h.56a1.55 1.55 0 0 0 .3 0 1.22 1.22 0 0 0 .31-.1 2.18 2.18 0 0 0 .55-.38.94.94 0 0 1 .88-.19 1.73 1.73 0 0 0 .38.05h.47a.81.81 0 0 1 .33 0 .36.36 0 0 0 .3 0h.06a.73.73 0 0 1 .39-.06h.94a.53.53 0 0 1 .37.1l-.16-.13a10.8 10.8 0 0 1 4 5.66 1.3 1.3 0 0 1 0 .26c0 .09-.13.18-.22.25s-.02-.02.03.05z" fill="#a7e021" opacity=".7" data-name="2-nav_drawer_S,M"/></g></svg>