<svg width="20" height="20" viewBox="0 0 20 20" fill="none" xmlns="http://www.w3.org/2000/svg">
<circle cx="10" cy="10" r="10" fill="white" fill-opacity="0.1"/>
<path fill-rule="evenodd" clip-rule="evenodd" d="M5.93539 6.08753L5.96695 6.0452L6.00417 6.00418C6.21629 5.79206 6.55407 5.77594 6.7849 5.96421L6.82913 6.00418L9.83331 9.00837L12.8375 6.00418L12.8817 5.96421C13.1126 5.77594 13.4503 5.79206 13.6625 6.00418L13.6997 6.0452L13.7312 6.08753C13.8881 6.31854 13.8621 6.6295 13.6625 6.82914L10.575 9.91633L13.6625 13.0042C13.8903 13.232 13.8903 13.6013 13.6625 13.8291C13.4347 14.0569 13.0653 14.0569 12.8375 13.8291L9.83331 10.825L6.82913 13.8291C6.60132 14.0569 6.23197 14.0569 6.00417 13.8291C5.77636 13.6013 5.77636 13.232 6.00417 13.0042L9.09165 9.91633L6.00417 6.82914C5.80453 6.6295 5.7785 6.31854 5.93539 6.08753Z" fill="white"/>
</svg>
