<svg width="16" height="16" viewBox="0 0 16 16" fill="none" xmlns="http://www.w3.org/2000/svg">
<path fill-rule="evenodd" clip-rule="evenodd" d="M0.195979 0.488101L0.256577 0.406827L0.32804 0.328067C0.735307 -0.0792004 1.38385 -0.110156 1.82704 0.251314L1.91196 0.328067L7.68 6.09611L13.448 0.328067L13.533 0.251314C13.9761 -0.110156 14.6247 -0.0792004 15.032 0.328067L15.1034 0.406827L15.164 0.488101C15.4652 0.931638 15.4153 1.52868 15.032 1.91199L9.104 7.83939L15.032 13.7681C15.4693 14.2055 15.4693 14.9146 15.032 15.352C14.5946 15.7894 13.8854 15.7894 13.448 15.352L7.68 9.58394L1.91196 15.352C1.47457 15.7894 0.765427 15.7894 0.32804 15.352C-0.109347 14.9146 -0.109347 14.2055 0.328042 13.7681L6.256 7.83939L0.32804 1.91199C-0.0552702 1.52868 -0.105238 0.931638 0.195979 0.488101Z" fill="white"/>
</svg>
