<?xml version="1.0" encoding="utf-8"?>
<!-- Generator: Adobe Illustrator 23.0.1, SVG Export Plug-In . SVG Version: 6.00 Build 0)  -->
<svg version="1.1" id="Layer_1" xmlns="http://www.w3.org/2000/svg" xmlns:xlink="http://www.w3.org/1999/xlink" x="0px" y="0px"
	 viewBox="0 0 595.3 841.9" style="enable-background:new 0 0 595.3 841.9;" xml:space="preserve">
<style type="text/css">
	.st0{fill:#070707;}
	.st1{fill:#080808;}
</style>
<g>
	<path class="st0" d="M170.3,562.7c-0.2-0.7-0.9-0.6-1.3-0.8c-8.2-3-12.5-9.1-12.5-17.9c0-74.9,0-149.8,0-224.7c0-7.3,0-14.6,0-21.9
		c0-10.5,7.7-18.2,18.1-18.2c37.9,0,75.8,0,113.8,0c6.3,0,9.8,3.5,9.8,9.7c0,5.3,0,10.5,0,15.8c0,6.4-3.5,9.9-9.9,9.9
		c-31.1,0-62.2,0-93.3,0c-2.4,0-3.2,0.4-3.2,3c0.1,68.7,0.1,137.4,0,206.2c0,3,0.8,3.5,3.6,3.5c68.6-0.1,137.1-0.1,205.7,0
		c3,0,3.5-0.9,3.5-3.6c-0.1-30.8-0.1-61.6-0.1-92.4c0-7,3.4-10.3,10.3-10.3c4.5,0,9.1,0.2,13.6-0.1c5.5-0.4,9.4,1.6,11.5,6.7
		c0,40.4,0,80.8,0,121.2c-1.5,2.6-2.4,5.6-4.5,8c-2.9,3.1-6.5,4.7-10.4,5.9C340.1,562.7,255.2,562.7,170.3,562.7z"/>
	<path class="st1" d="M440,379.5c-0.7,0.1-0.7,0.8-1,1.2c-3.3,5.7-9.8,6.6-14.4,2c-9.9-9.8-19.7-19.6-29.5-29.6
		c-1.6-1.7-2.4-1.5-4,0.1c-28.4,28.5-56.8,56.9-85.3,85.3c-5.3,5.3-9.9,5.3-15.2,0c-3.5-3.5-6.9-6.9-10.4-10.4
		c-4.6-4.7-4.6-9.6,0-14.2c28.5-28.5,57-57,85.5-85.4c1.9-1.9,1.9-2.7,0-4.5c-9.7-9.5-19.2-19.1-28.8-28.7c-3.1-3-4.4-6.4-2.6-10.5
		c1.7-4,5.1-5.5,9.4-5.4c28.3,0.1,56.6,0.1,84.9,0c5.4,0,9.1,1.7,11.3,6.7C440,317.1,440,348.3,440,379.5z"/>
</g>
</svg>
