<svg xmlns="http://www.w3.org/2000/svg" width="183" height="30" viewBox="0 0 1358.09 216.66">
	<title>gp-logo</title>
	<path fill="#66cc00" d="M170.08,113.63c-.36,4-2,9.48-4.86,16.55q-5,11.88-6.12,16.74a302.41,302.41,0,0,0-5.22,33.47,49.46,49.46,0,0,0-.18,7.75q.36,7,.36,8.64,0,15.1-10.08,17.44l-4.5,1.63q-3.06,1.08-4.32.72-4.5-1.44-13.49-5.4-3.08-2-3.6-8.64V192.27c0-1-.07-2.69-.19-5.22s-.18-4.31-.18-5.4a14.26,14.26,0,0,1,.72-3.5,14.34,14.34,0,0,0,.72-3.7,5.66,5.66,0,0,0-2-4.31c-1.93-.37-3.18-.37-3.79,0q-14.94,8.64-36,9.53a106.72,106.72,0,0,1-39.6-5.57Q18.18,167.44,9,155.55q-3.78-4.67-6.39-14.75A80.76,80.76,0,0,1,0,120.47a54.07,54.07,0,0,1,1.26-12.24q1.26-5.4,4.32-15.48.9-2.35,10.62-17.82,5-6.5,14-18.72Q34,50.81,49.68,37.14q10.6-9.19,21.23-18.54Q81,9.58,86.57,6.54A45.32,45.32,0,0,1,105.83,1c2-.11,4.85.48,8.45,1.8,2.89,1.32,5.82,2.58,8.82,3.78q7,2.88,11.88,14.21a50.59,50.59,0,0,1,4.5,21.42q-.18,12.24-6.84,14.94-4.5,1.8-11.34-1.62-2.52-1.25-6.65-11.33-3.78-9-8.1-8.82-6.67.16-18.36,8.09A119.11,119.11,0,0,0,70.55,58.2q-20.88,21-30.23,34Q29.14,107.51,24.83,123a11.14,11.14,0,0,0,1.45,9q3.59,6.3,13.68,9,9,2,18,3.78a21.59,21.59,0,0,0,5.22,3.06q6.12.18,11.16.18,33.83-.36,46.44-14a6.83,6.83,0,0,0,1.79-5,3.64,3.64,0,0,0-2-3.42q-2.72.36-26.1,5.22A216.45,216.45,0,0,1,65.87,135c-2.16.13-4.5-1.47-7-4.76a21.62,21.62,0,0,1-4.5-10A24.8,24.8,0,0,1,54,115.6q0-15.46,7-18.35,13.5-6,40.32-10.26,36.35-5.94,40.49-7a28.79,28.79,0,0,1,7.38-.18q5.22.36,7.74,2.34,6.48,5.22,10.26,14.75A38.88,38.88,0,0,1,170.08,113.63ZM297,160.24q-2,3.6-11.34,15.48-2,2.33-9.9,2.33a21.17,21.17,0,0,1-7.2-1q-2.7-1-8.28-7.47c-2.52-3-5.09-5.93-7.74-8.82q-13.49-13.67-23.21-20-4-2.52-12.06-8.64-2,.18-4.14,3.6a41.57,41.57,0,0,0-1.8,7.92q-.18.9.72,11,1.08,11.34,1.08,16.91c0,4-.3,6.66-.9,8.1l-1.62,3.07a4.09,4.09,0,0,1-3.06,2.33q-10.08,1.63-16.2-1.8T182,171.21a43.12,43.12,0,0,1-2.7-15.29,120.59,120.59,0,0,1,1.52-16,118.5,118.5,0,0,0,1.53-14.58c0-1.32-.06-2.57-.17-3.78-.13-.48-1.12-1.7-3-3.68a13.32,13.32,0,0,1-3.33-5,43.15,43.15,0,0,1-2-11.69q0-9.92,6.66-15.12c.36-.24,2.09-.54,5.21-.9a5.87,5.87,0,0,0,5.05-3.78,124.62,124.62,0,0,0,6.65-28.8c.12-.36-.3-1-1.26-1.8L194,49a27.26,27.26,0,0,1-5.4-10.25,14.88,14.88,0,0,1-.53-4.15,34.76,34.76,0,0,1,4.32-16.19q4.66-9.18,11.69-11.88,11.52-4.32,28.08-4.14,20,0,34.55,20.88,13.5,19.24,13.5,41.21a40.55,40.55,0,0,1-2.88,15.84q-2,5.94-6.66,16.73-2.88,4-5.76,8.11-4.68,6.84-4.68,7.73c0,1.08,1.32,2.83,4,5.22q3.41,3.42,11.33,8.1,9.72,5.94,13.5,8.64,9.54,7,9.54,18.54A13.73,13.73,0,0,1,297,160.24ZM230.73,41.1q-1.8,0-2.16,2.88c.24,2.75.36,6.54.36,11.33q-1.8,9.9-3.78,25.73a27.6,27.6,0,0,0,16.56-9.89q5.94-7.2,5.94-15.3a14.28,14.28,0,0,0-4.32-10.8C240.45,42.29,236.24,41,230.73,41.1Zm195.81,3.06c-1.44,3-4.56,5.1-9.36,6.29l-8.64,1.44a77.61,77.61,0,0,1-14.75,3.78,97,97,0,0,0-9.91,1.62c-4.79,1.09-9.53,2.16-14.21,3.24a86.29,86.29,0,0,0-17.82,6.84q-4.32,2-5,11.34,1.26,2.16,2.88,2.16,6.66.18,19.71-3.78t19.53-4q2.16,0,4.14.18,7.73,1.26,12.77,13.32a50.7,50.7,0,0,1,4.32,19.8,11.63,11.63,0,0,1-.35,3q-.56,3.26-11.34,6-7.38,1.78-22.14,2.15-11.34.19-38.51,7.2-2.18.54-2.71,3.78a7.07,7.07,0,0,0,.36,4.15c.73,1.43,2.31,2.39,4.77,2.87s3.87.9,4.23,1.26A15.16,15.16,0,0,0,354.73,141q4.32,0,11.34-3t9.54-3a6.23,6.23,0,0,1,4.32,1.62q11.16,10.8,11.16,23.93a23.27,23.27,0,0,1-2.7,11.17q-7,13.31-28.26,12.6a54.3,54.3,0,0,1-25.92-6.84q-5.94-1.82-17.27-7.75-6.12-4.49-10.8-15.29a63.14,63.14,0,0,1-5.22-18.9q-.18-3.24-.18-6.47,0-17.64,12.23-47.7,4.69,1.08,4.69-5c0-2-.48-3.47-1.44-4.32a25,25,0,0,1-4.86-.54q-7.92-8.28-7.92-21.24,0-12.24,6.84-18.17A14.72,14.72,0,0,1,316.76,29l6.83-1.45a47.3,47.3,0,0,1,6.66-3.6A695.19,695.19,0,0,1,400.44,7.62a18.39,18.39,0,0,1,3.6-.36q11.52,0,16.56,14c0,.11,1.38,3.42,4.14,9.89q2.52,6,2.52,9.37A8.8,8.8,0,0,1,426.54,44.16Zm124.9-13.5a11.9,11.9,0,0,1,.72,4.68A25.84,25.84,0,0,1,549.28,47q-8.28,1.81-36.89,4.68-20,2-35.09,9-1.1.54-2.88,4.32c-1.56,3.6-2.41,5.52-2.52,5.76q-1.08,1.62-3.79,5.22a17.19,17.19,0,0,0,7.74,1.61,52.64,52.64,0,0,0,12.06-1.8q5.58-1.42,11.34-2.87a23.21,23.21,0,0,0,5.4-2.35c3-1.78,4.92-2.87,5.76-3.23A3.57,3.57,0,0,1,512,67a15.44,15.44,0,0,1,7.47,2.42,14.56,14.56,0,0,1,5.85,5.49q5.58,10.44,6.47,15.84,2,12.06-1.79,14.93-5.58,4.14-18.27,7.83t-20.6,3.16a9,9,0,0,0-3.16,1.43,13.46,13.46,0,0,1-3.33,1.62l-30.05,4.33a6.78,6.78,0,0,0-4,2.33,5.81,5.81,0,0,0-1.8,3.78,2.43,2.43,0,0,0,.72,1.8q7,5.94,20.7,6,18.53,0,25.37-8.29a3.13,3.13,0,0,1,2.16-1.08,3.33,3.33,0,0,1,2.34.36A29.71,29.71,0,0,1,510.32,142a37.05,37.05,0,0,1,3.15,17.18q-1.44,20-20.88,22.32c-2.64.61-6.72,1.32-12.24,2.16q-8.46.9-25.19-3.24-17.46-4.48-21.42-9.36a110.93,110.93,0,0,1-9.9-16.37q-7.38-14.58-7.56-23c-.12-2.63.54-7.32,2-14l2.88-14.75a143,143,0,0,1,5-19.44Q427.8,78.53,436.62,60q.54-1.28,1.44-12.24t2.34-15.13q1.26-3.6,6.84-5.75c3-1.09,6.06-2.16,9.18-3.24q6.1-3.42,10.08-4c2.16-.12,4.37-.25,6.65-.36q4.14-.55,28.44-6.48,20-4.86,28.44-4,9.72,1.08,12.78,6.47Q545.87,20,551.44,30.66Zm268.35,23q.36,10.8-9.18,22.86A80.89,80.89,0,0,1,792.79,93.1Q784,99,764.17,105.52L750.5,110q-2.34.89-4.87,15.66-2.34,12.94-2.33,19.07v24.83c-.6,2.64-1.26,5.29-2,7.93a12.23,12.23,0,0,1-6,7.55,12.08,12.08,0,0,1-9.63.72c-2.76-.84-4.62-1.43-5.58-1.8a11.07,11.07,0,0,1-4.5-3.05q-6.66-7.74-6.66-21.06a136.29,136.29,0,0,1,1.35-15.76,135,135,0,0,0,1.35-15.2,36.27,36.27,0,0,0-.54-6.65q-.18-.92-5.58-5.77-6.84-6.12-8.63-8.09-4-4.51-4-12.78a41.27,41.27,0,0,1,2.52-14,25.4,25.4,0,0,1,3.78-5.31c2.17-2.58,3.84-4,5-4.23a64.91,64.91,0,0,0,7.92-1.8A4.62,4.62,0,0,0,715,66.11q1.44-16.92,1.44-18.72c0-1.43-1-2.16-2.88-2.16a37.9,37.9,0,0,0-17.82,4c-6.83,3.6-12,5.41-15.47,5.41a11.74,11.74,0,0,1-3.15-.37,21.82,21.82,0,0,1-5-2.87q-3.71-2.53-5-2.17-3.06,3.42-2.52,5.41a54.34,54.34,0,0,1,2.7,16.19q0,1.8-.54,8.82a75.43,75.43,0,0,0,0,10.43,143,143,0,0,1-1.08,20.88q-1.08,11.35-2.34,22.68a18,18,0,0,0,1,5.76q1.17,4.14,1.35,4.86a96.28,96.28,0,0,1,0,18.72c-.72,5-1.2,8-1.44,9a25.52,25.52,0,0,1-6.12,11.69q-2.34,2.88-13,2.89c-4.68,0-7.74-.49-9.18-1.45q-8.1-5.2-11.52-21.41-3.6-17.64-9.17-23.4-2.7-2.88-12.6-20.16l-3.24-6.47a19.92,19.92,0,0,0-6.12-7.2q-4.32,1.8-10.8,35.81,0,.36-2,15.3-1.26,9-3.42,13.14-3.78,6.84-11.88,5.57-19.62-3.41-19.62-24.83A100.41,100.41,0,0,1,548,132.88q3.06-14.2,6.12-28.61a229.62,229.62,0,0,0,4-30.78q1.44-23.38,1.44-24.11A6.88,6.88,0,0,0,558.37,47a6.4,6.4,0,0,1-1.17-3q0-18.36.63-23.85T564,9.24q5.58-5.4,11.52-5.4a10.44,10.44,0,0,1,4.68,1.07q.54.2,5.94,1.27,4.5.9,6.12,2.52,5.22,5,6.3,18,.72,10.62,1.26,21.24a40.09,40.09,0,0,0,7.2,16.19l10.43,13.32q3.42,5.22,6.85,10.26,5,6.84,7.55,6.3.18-2.7,1.44-11.34,1.26-7.92,1.26-8.64V50.09q0-.36.72-6.38c.48-4,.78-7.05.9-9.1q.36-6.28,1.8-20.69a7.52,7.52,0,0,1,3.24-5.13,10.06,10.06,0,0,1,5.94-1.89q6.66,0,12.78,6t6.12,12.34q2.34-3.07,10.08-8.64c.59-.36,3.72-1.59,9.36-3.7s8.75-3.2,9.35-3.32a89.94,89.94,0,0,1,9.36-1.44,12.68,12.68,0,0,1,8.1,2.7Q715.76,8.7,719,6.54q4.32-2.7,7-2.7a24.34,24.34,0,0,1,5.49,1.07,18.73,18.73,0,0,0,6.21.91c4.44-.25,10.08-.48,16.92-.72a196.4,196.4,0,0,1,32.57,2.34q1.62.36,6.66,2.07A38.68,38.68,0,0,1,800,11.93q8.28,6,13.77,17.82A63.58,63.58,0,0,1,819.79,53.69Zm-37.44-4.5q.72-5.56-13.86-7.56-9.72-.54-19.44-1.26c-2.63-.23-4.25.78-4.85,3.06q1.08,8.1,3.95,21.42c.61,1.69,2.1,2.52,4.5,2.52q6.12,0,18.54-7Q781.63,54.59,782.35,49.19ZM952.79,28.68q.54,7,.54,5.57a12,12,0,0,1-5,10.09q-3.42,2.52-29.52,7.55l-22.5,3.6q-12.4,2.16-32.93,9.18-3.42,1.26-6.93,7.38c-2.34,4.08-3.69,7.37-4,9.9,1.56,1.8,4.32,2.69,8.28,2.69q2.16,0,15.3-2,14.58-2,20.88-4.68,6.48-3.42,13.13-6.66,5.22,2,9.27,11a42.39,42.39,0,0,1,4,17.46q0,9.17-6.12,13.68-4.86,3.42-14.39,4.49l-15.48,1.44Q876.84,121.54,856,125q-5,.38-10.26.54a24.17,24.17,0,0,0-9.62,2.52c-2.34,1.32-3.51,3.07-3.51,5.22a2.46,2.46,0,0,0,.36,1.44q7,9.72,18.35,9.72a35.86,35.86,0,0,0,16.56-4.5q1.62-.54,11.7-4.32,7.92-2.88,9.9-2.87a1,1,0,0,1,.72.17q10.44,8.84,10.43,23.76a26.93,26.93,0,0,1-4.67,15.84,24.37,24.37,0,0,1-15.3,9.71,62.47,62.47,0,0,1-7.2,3.6q-4.68,1.62-15.48,1.44-33.3-1.06-49-22.86-8.82-12.59-8.82-31.13a87.29,87.29,0,0,1,2.34-19.79,155.91,155.91,0,0,1,13-33.93Q824.65,61.8,834,44a64.26,64.26,0,0,0,2.52-9.19,22.35,22.35,0,0,1,4.87-9.63q3.23-3.5,11.69-5.84,7.38-1.8,14.76-3.42,22.3-5,62.63-15.66,1.8-.72,6.66.72,5.58,1.62,7,4.14,2.16,5.58,6.66,15.47A20.6,20.6,0,0,1,952.79,28.68Zm402.78,22.68c-.36.71-1.26,1.07-2.7,1.07q-2.88,0-14.4-3.78c-.24-.12-1.91.25-5,1.09a77.9,77.9,0,0,1-9.9,2,216.71,216.71,0,0,1-23.4,1.45q-25,0-37.43,3.05-11.34,2-22.68,3.79-13.86,3.59-13.86,14.39a28.56,28.56,0,0,0,.54,5.22h24.84q14.76-.18,24.3-3.79,1.43-.52,5.39,2.89a40.42,40.42,0,0,1,11.52,16.74,22.13,22.13,0,0,1,1.44,10.8q-.54,3.77-1.08,7.56-.9,5.2-3.06,7.73t-7.74,4.5a78.18,78.18,0,0,0-9.36,3.6c.37.72,1.74,2.13,4.14,4.23s3.84,4,4.32,5.67a28,28,0,0,1,.9,7.74q0,12.06-5,18.36-3.6,4.68-14.57,7l-19.44,3.59a31.14,31.14,0,0,0-3,1.09,13.35,13.35,0,0,1-4.41,1.07,88.55,88.55,0,0,1-28.44-4.49q-17.46-5.78-24.84-17.46c-2-3.24-3.53-4.86-4.49-4.86a2.42,2.42,0,0,0-1.44.53q-4.14,7.56-8.46,15.13-6.84,11-13.86,13.86a33.59,33.59,0,0,1-11.7,2.15q-15.3,0-39.05-9.71a128.78,128.78,0,0,1-32-19.26q-15.12-12-20.52-22c-1.68-1.91-4-4.74-7-8.45a2.53,2.53,0,0,0-2,1.07,40.65,40.65,0,0,0-2.17,13.68c0,2.41.21,5.91.64,10.53s.63,8.07.63,10.35a36.55,36.55,0,0,1-2.88,14.93c-2.41,5.53-5.11,8.4-8.1,8.64q-16.74,2-21.6-16.37-2-7.2-2.34-31.14,0-2.88-3.42-3.42a30.76,30.76,0,0,0-6.3-.54,105.17,105.17,0,0,0-19.08,2q-10.62,2-15.83,4.5-1.26,2.34-3.42,5.94a165.52,165.52,0,0,0-7.38,15.66q-7.56,17.64-15.48,20.51c-3.48-1.67-8.64-4.26-15.48-7.73q-1.08-.54-3.05-7.38a33.75,33.75,0,0,1-1.45-9.73,24.44,24.44,0,0,1,5.22-15.83q6.84-8.46,11.16-21.78Q939.29,95.1,940,93.28q.36-.89,3.15-3.14a21.34,21.34,0,0,0,3.69-3.51,73,73,0,0,0,5.4-8.64Q962.69,58,973,38q14.56-25.2,29.15-32.75a11.17,11.17,0,0,1,5.58-1.08q5.4,0,8.1,2.51,13.86,12.43,20.34,35.83,3.78,13.68,5.76,37.43,3.76,0,8.45-8.1,6.32-11.52,7.2-12.42,16-18.18,40-29.15,23.38-10.8,45.35-10.8a75.55,75.55,0,0,1,13,1.07c2.64.49,5.79,2.79,9.45,6.94s6.09,8.07,7.29,11.79a72.13,72.13,0,0,1,3.6,23.21,33.36,33.36,0,0,1-.9,8.28,36,36,0,0,1-6.12,12.6q-5,7-10.62,8.82a7.76,7.76,0,0,1-3.06.54c-3.84,0-8.25-1.09-13.23-3.24s-7.83-4.38-8.55-6.67q-3.42-9.34-1.43-16.91c.11-.36.59-1.62,1.43-3.78a11.14,11.14,0,0,0,.9-3.77,5.11,5.11,0,0,0-1.62-3.78q-17.64-2-36.89,16.19t-18.54,35.28q.18,4.68,14.4,14.4A89.43,89.43,0,0,0,1110.8,130q13.15,4.86,22.33,4.86,9.52,0,21.95-8.1a47.86,47.86,0,0,1,9.36-4.67q3.06,2.86,8.64,7.73,2.34-1.44,2.51-8.82.2-9.18.73-11,2-7.56,6.84-23.22,3.78-8.66,10.79-25.56,0-4.5.37-11.87a36.19,36.19,0,0,1,5.4-14.14q4.13-6.38,16-10,3.42-1.08,15.12-2.16,15.84-1.62,19.8-2.17,10.78-2,21.78-4,14.38-2.5,23.57-2.33,1.8,0,7-2a46.93,46.93,0,0,1,8.28-2.7q.9-.18,11.16-2.7a45.85,45.85,0,0,1,11.16-1.8q11.69,0,18.53,11.34a42.51,42.51,0,0,1,5.94,22.32Q1358.09,46.68,1355.57,51.36ZM1008.76,66.11a89.56,89.56,0,0,0-1.08-9.36,4.69,4.69,0,0,0-2.07-2.7,7.37,7.37,0,0,0-3.69-1.62q-4.5,8.48-9,17.1-5.76,10.8-5.76,16.2H998q5.76-.36,7.92-2T1008.76,66.11Zm256.82,62.27q-14.4-1.26-19.79-1.26h-18.54c-2.4-.11-6.12-.18-11.16-.18-4.44.25-6.54,2.22-6.3,5.94q11.34,4.86,18.9,4.86A29.79,29.79,0,0,0,1240,135.4a12.29,12.29,0,0,1,6.57-.45,16.8,16.8,0,0,0,6.75-.09Q1258.21,133.78,1265.58,128.38Z"/>
</svg>
