<?xml version="1.0" encoding="utf-8"?>
<svg version="1.1" id="Calque_1" xmlns="http://www.w3.org/2000/svg" xmlns:xlink="http://www.w3.org/1999/xlink" x="0px" y="0px"
	 viewBox="0 0 183 30" style="enable-background:new 0 0 183 30;" xml:space="preserve">
<style type="text/css">
	.st0{fill:#FFFFFF;}
</style>
<title>gp-logo-light</title>
<g>
	<path class="st0" d="M57.7,6.6c-0.5,0.4-1.4,0.5-5.9,1.3c0,0-0.2,0-0.9,0.4c-1.1,0-2.8,0.8-3.3,1.1c-0.2,0.1-0.5,0.7-0.6,1.8
		c0.3,0.4,0.5,0.3,0.8,0.3c2.2,0,5.3-1.1,5.7-1c1.4,0.3,2.1,2.5,2.1,3.6c0,0.1-0.1,0.8-0.2,0.9c-0.2,0.5-1,0.9-2.1,1
		c-4.9,0.4-7.2,0.8-7.7,1.2c-0.1,0.1-0.3,0.6-0.3,0.9c0,1.2,2.4,1.4,2.9,1.4c1.5,0,2.3-0.8,2.8-0.8c0.7,0,2,1.6,2,3.4
		c0,1.2-0.7,3.1-3.7,3.1c-0.8,0-4.1-0.6-6.5-2.3c0,0,0.1-0.5-0.9-1.2c-0.3-0.6-1-2.6-1-4.2c0-3.5,1.7-5.8,2-7.1c0,0-0.8-1.2-1.1-1.6
		c-0.2-0.2-0.4-0.4-0.4-1.3c0-2.7,1.8-3.2,1.9-3.2h0.6c0,0,1.3-0.6,1.5-0.9l1-0.1c0.6-0.1,7.1-1.8,8.4-1.8c1,0,1.4,0.2,1.9,0.8
		c0.3,0.4,1.4,2.4,1.4,3.2C57.9,5.9,57.8,6.4,57.7,6.6z"/>
	<path class="st0" d="M60.9,17.1c-0.1,0.1-0.3,0.7-0.3,1c0,0.4,1.5,1.1,2.8,1.1c4,0.2,3.5-1.7,4.7-1.1c0.8,0.4,1.5,2.3,1.5,3.5
		c0,2.6-2.5,3.3-4.8,3.3c-3.1,0-5.8-1.4-5.8-1.4s-2.4-3-2.4-5.1c0-4.9,2.6-10.2,2.7-10.5c0,0,0.2-1.4,0.3-2.3c0.1-1,0.8-1.2,1.4-1.9
		c1.3-0.1,3.7-1.2,11-2c0.9-0.1,2.1,1.2,2.7,3.1c0.1,0.3-0.1,1.7-0.5,1.9c-0.3,0.1-1,0.2-7,0.8c-1,0.1-2.1,0.3-2.5,0.6
		c-0.5,0.3-1.4,1.9-1.5,2.4c-0.1,0.5,0.1,0.8,0.8,0.7c3.1-0.3,5.2-1.7,5.5-1.7c1.1,0,2.2,1.5,2.5,3.1c0.2,1-0.1,1.7-0.4,1.9
		c-0.9,0.6-2.4,1-3.9,1.3c-0.7,0.1-1.2,0.1-1.4,0.1c-0.1,0-0.5,0.2-0.6,0.2C63.3,16.5,61.3,16.7,60.9,17.1z"/>
	<path class="st0" d="M128.4,4.4c0,1.2-0.4,2-0.8,2.2c-1.9,0.7-8.3,1.6-11.3,2.6c-0.5,0.2-1.5,1.8-1.5,2.4c0,0.3,0.4,0.4,0.9,0.4
		c4.3-0.6,5-0.9,6.8-1.7c0.3,0,0.7,0.1,1,0.3c0.5,0.6,1,1.6,1,3.2c0,1-0.4,2-2.1,2.2c-2.2,0.3-7.3,1.1-8.8,1.3
		c-0.8,0.1-1.2,0.3-1.3,0.4c-0.7,1-0.4,3,4.2,2c1.9-0.4,2.3-1.1,3.4-1.1c0.1,0,0.2,0,0.3,0c0.9,0.8,1.1,1.7,1.1,3
		c0,1.5-0.7,2.6-2,3.2c-0.1,0.1-0.6,0.2-0.7,0.2s-0.7,0.4-1,0.4c-0.8,0.2-1.4,0.3-1.7,0.3c-3.1,0-8.1-1.4-8.1-7.2
		c0-5.3,3.6-8.9,4.5-12.4c0,0,0.2-0.2,0.5-0.6c0.1-0.6,0.6-2,1.3-2.1c1.7-0.2,6.8-1.3,11.4-2.8c0.4-0.1,0.7-0.1,1,0.1
		C127.4,1.3,128.4,2.8,128.4,4.4z"/>
	<path class="st0" d="M40.3,19.6c-0.9-1-3.9-2.7-5-3.8c0.4-0.5,2.9-3.9,2.9-6.6c0-3.8-2.7-8.3-6.4-8.3c0,0-1.1,0-2.4,0.1
		c-0.2,0.4-1,0.3-1,0.3c-1.3,0.6-2.5,1.6-2.5,4.7c0,0.6,0.8,1.1,1.3,1.6c-0.1,1-0.4,2.7-0.9,3.9c-0.2,0.4-1.4,0.6-1.4,0.6l-0.6,0.8
		c-0.4,2.4,0,2.7,0.8,3.8c0.1,1.3-0.4,3.5-0.4,4.8c0,0.9,0.3,0.8,0.2,1.8c0,0,0.1,0.2,0.2,0.4c0.3,1,1.4,1.8,2.5,1.8
		s1.5-0.8,1.5-1.2c0-1.1-0.3-4.4-0.3-4.7c0.1-1,0.5-1.6,0.5-1.6c0.7,0,3.9,2.9,6.6,5.6c0.4,0.4,1.2,0.8,1.9,0.8
		c1.6,0,2.3-1.9,2.8-2.3C40.8,21.8,40.9,20.2,40.3,19.6z M30.8,12.2c-0.2,0.1-0.6-0.1-0.7-0.1c0,0,0.8-4.9,0.9-5.9
		c1.2-0.3,2.7,0.3,2.7,1.9C33.8,9.4,33.2,11,30.8,12.2z"/>
	<path class="st0" d="M108,2.2l-1.2-0.3l-0.6-0.3c-1.6-0.3-5.4-0.4-6.7-0.2c-0.2,0-1.1-0.2-1.4-0.3c-1,0.6-1.8,0.8-1.8,0.8
		c-0.2,0-0.8-0.2-0.8-0.2c-0.9,0.1-3.3,0.6-4.4,1.3c-0.5,0.3-0.8,0.8-1,1.2l0,0c0,0.1-0.2,0.2-0.2,0l0,0c0-0.2-0.1-0.5-0.1-0.6
		c-0.3-1.1-1.7-2-2.5-2c-0.3,0-1.1,0.4-1.1,0.8c-0.1,0.5-0.1,2.8-0.4,5c0,0.2,0,4.4-0.4,5.8c-0.1,0-0.4,0.1-0.5,0
		c-1.1-1.6-3.8-4.3-4.1-6.2c-0.2-1.7,0.1-4.3-0.8-5c-0.3-0.3-1.9-0.7-2.4-0.7c-0.7,0-1.2,0.3-1.5,0.7L76,2.5l-0.5,0.7
		c-0.1,0.5-0.2,1.3-0.3,3l0.4,2.1c0,0,0,0.5-0.4,0.9l0.1,1.6c0,1.8-1.6,8-1.6,9.8c0,4.2,3.7,3.8,3.9,3.7c0.3-0.2,0.8-1.1,0.8-1.4
		c0.2-2.5,0.5-6.7,1.2-7.9c0.1-0.3,0.5-0.4,0.7-0.2c0.6,0.6,1.2,1.8,1.3,1.9c0.7,0.9,2.5,3.2,2.9,5.3c0,0.2,0,0.6,0.1,0.9
		c0.1,0.7,0.4,1.5,1.4,2.3c0.3,0.2,1.3,0.3,2,0.2s2-0.3,2-3.5c0-2.1-0.3-3-0.3-3.4s0.5-4.3,0.5-9.7c0,0-0.2-0.5-0.3-0.8
		c0.1-0.5,0.2-0.8,0.2-1.1l0,0c0-0.1,0.1-0.2,0.1-0.1l0,0c0,0.1,0.1,0.2,0.1,0.2c0.3,0.4,0.9,0.8,1.6,0.8c1.2,0,2.7-1.4,3.7-1.1
		c0.1,0,0.3-0.2,1.1-0.3c0,0.5,0,1.6-0.1,3.1c-0.1,0.7-0.4,0.9-1.7,0.9c-0.5,0-0.8,0.4-0.9,0.7c-0.2,0.4-0.5,2.2-0.5,2.7
		c0,1,1.1,2.3,2.5,2.7c0.1,0.4-0.3,3.7-0.3,5.4s0.4,2.4,0.5,2.5s1.3,1,2.2,1c0.7,0,1.4-0.4,1.6-0.7c0.1-0.2,0.3-0.6,0.3-1.4
		c0.1-3.8,0.5-7.8,1-7.9c2.3-0.7,4.5-1.5,6.7-3.2c1.2-0.8,2.6-2.6,2.6-4.4C110.6,5.5,109.1,2.9,108,2.2z M101.3,9.8
		c-0.3,0-0.5-0.1-0.5-0.3c-0.3-0.8-0.4-2.6-0.4-3.6c1-0.2,5.4,0.1,5.4,1.2C105.7,8.1,102.8,9.8,101.3,9.8z"/>
	<path class="st0" d="M23.5,15.7c0-0.7-0.7-2.9-1.1-3.5c-0.6-0.7-1.3-0.8-2.2-0.8c-0.6,0-10.3,1.5-11.6,2.3
		c-0.6,0.4-0.8,1.2-0.8,2.4c0,1.7,1.1,2.4,1.4,2.4c0.7,0,5.7-1,7.4-1.3c0.4-0.1,0.5,0.1,0.5,0.2c0,0.4-0.1,0.9-0.3,1.2
		c-0.7,0.8-1.7,1.2-2.6,1.5c-1.4-0.3-2.6,0.9-4,0.2c-0.6,0-1.5,0.4-1.9-0.2c-1.4-0.3-2.9-0.4-4.1-1.4c-0.4-0.4-0.5-0.9-0.5-1.5
		c0-1.5,2.3-5.5,6.2-9.1c0.8-0.8,3.7-2.9,5-2.9c0.9,0,1.2,1.9,1.8,2.6c0.2,0.2,0.9,0.2,1.2,0c0.7-0.3,1.3-0.7,1.3-1.6
		c0-2-0.8-3.6-1.4-4.4c-0.4-0.5-2.3-1.3-3.1-1.3c-1.6,0-2.4,1-3,1C9.3,3,8.1,4.4,7.6,4.8C7.4,5,7.2,5,7.2,5S7.1,5.5,6.8,5.9
		C6.7,6,5.9,6.5,5.9,6.5C4.8,7.6,0,13.6,0,15.9C0,18,1.4,21,1.9,21.4c1.8,1.6,5,2.8,8.7,2.8c2.6,0,5-1,5.7-1.4l0,0
		c0.2-0.1,0.3-0.1,0.3,0.1c0,0.2-0.1,0.5-0.1,0.8s-0.1,1.5-0.1,2.4c0,1.5,0.4,2.3,0.8,2.7c0.2,0.2,1.5,0.5,2.3,0.5
		c0.4,0,1.7-0.6,1.7-2c0-0.8-0.1-1.8-0.1-2.1C21.5,18.7,23.5,16.9,23.5,15.7z"/>
	<path class="st0" d="M182.9,4.5c-0.4-1.6-1.6-3.1-2.7-3.3c-1,0.2-8.8,1.7-13.9,2.4c-0.7,0.1-1.6,0.1-1.6,0.1L164.1,4
		c0,0-1,0.1-1.5,0.4c-0.7,0.5-1.6,1.4-1.8,2.9l0.1,1.3c-1.6,3.2-2.7,5.7-2.7,9.1c0,0.1,0,0.1,0,0.2c0,0.3,0,0.4-0.1,0.3
		c-0.1-0.1-0.2-0.3-0.3-0.4c-0.6-0.7-0.8-0.8-1.1-0.8c-0.8,0-1.5,1.6-4.3,1.6c-2.6,0-7.3-2.7-7.3-4.1c0-3.1,4.1-6.9,7.1-6.9
		c0.5,0,0.7,0.2,0.7,0.5c0,0.6-0.5,1.6-0.5,2.2c0,1.5,2.2,2.5,3.4,2.5c0.3,0,2.7-0.9,2.7-4.3c0-2-1.5-5.4-3.9-5.4
		c-3.1,0-7.6,1.6-10.7,3.8c0,0-0.2,0.4-0.4,0.6s-1,0.8-1,0.8c-0.7,0.9-1.3,2.2-1.5,2.6c-0.1,0.1-0.1,0.3-0.2,0.5l0,0
		c-0.1,0.4-0.3,0.5-0.4,0.3c0-0.2,0-0.4-0.1-0.7c-0.1-1.3-0.2-2.1-0.4-3.1c0,0-0.3-0.9-0.4-1.3c0-0.1,0-0.6,0-0.6
		c-0.7-2.7-2.4-4.5-2.6-4.6c-1.1-0.4-1.4-0.5-1.9-0.2c-1.9,1.2-4.1,4.9-7.5,11.2c0,0-0.6,0.6-1.3,1.1c0.1,1,0,1.5-0.1,1.8
		c-0.7,2.2-2.7,4.9-2.6,5.5l0.1,0.7l-0.1,0.8c0,0.5,1.6,2.3,2.9,2.3c0.1,0,0.2,0,0.3,0c1.3-1.2,1.7-3.4,2.9-5.3
		c0.1-0.2,0.2-0.2,0.5-0.4c0.8-0.3,2.3-0.5,2.9-0.6c0.6-0.1,1.3,0.1,1.3,0.1l0.6-0.2c0.5,0,0.8,0.1,0.8,0.6c0,2.1,0,3.9,0.2,4.5
		c0.2,1,1.2,1.7,3.1,1.9c0.2,0,1-0.5,1.2-1.2c0.4-1.1,0.1-2.5,0.1-3.7c0-1.8,0.1-2.8,0.1-3.4c0-0.2,0.2-0.3,0.2-0.1l0,0
		c0.2,0.5,0.5,1.2,0.9,1.7c2.4,2.8,6.3,6.1,11.9,6.4c2.2,0.1,3.9-1,4.7-3.2c0.2-0.5,0.3-0.9,0.4-1.1c0-0.1,0.1,0,0.2,0.1l0,0
		c0.1,0.2,0.3,0.5,0.6,0.9c1.9,2.4,4.6,3.2,8.1,2.6c3.8-0.6,4.3-1,4.7-1.4c0.5-0.7,0.7-1.7,0.8-2.6c0.1-0.6,0.1-1.3-0.4-1.9
		c-0.6-0.6-2.4,0-4.8,0.4c-3.2,0.5-4.5-0.8-4.5-1.2c0-0.2,0.1-0.8,0.5-0.8c0.3-0.1,1,0,1.3,0.1c0.1,0,1.9-0.3,3.2-0.3
		c0.5,0,1.1,0.1,1.3,0.1c0,0,2.1-0.2,3.4-0.4c0.8-0.2,1.5-0.8,1.5-1.2c0.2-1.2,0-2-0.2-2.4c-0.9-1.8-1.9-2-2.2-2
		c-1.1,0.2-3.3,0.9-6.3,0.7c-0.4,0-0.6-0.4-0.6-0.7c0.1-0.8,1-2,2-2.2c2.4-0.5,9.5-1.2,12.1-1.3c1.6-0.1,3.4,0.4,3.7-0.1
		C183.1,6.3,183,4.9,182.9,4.5z M135.8,11.9c-0.2,0.4-1.3,0.7-3.3,0.7c-0.1,0-0.2-0.2-0.1-0.3c0.8-1.9,2.3-5.2,2.5-5.2
		c0.2,0,0.5,0.1,0.7,0.3C136.1,7.9,136.1,11.4,135.8,11.9z"/>
</g>
</svg>
