<?xml version="1.0" encoding="utf-8"?>
<svg id="Calque_1" data-name="Calque 1" xmlns="http://www.w3.org/2000/svg" viewBox="0 0 183.02 28.8">
<title>gp-logo-dark</title>
<path d="M57.7,6.6c-.5.4-1.4.5-5.9,1.3a2.53,2.53,0,0,0-.9.4,8.5,8.5,0,0,0-3.3,1.1c-.2.1-.5.7-.6,1.8.3.4.5.3.8.3,2.2,0,5.3-1.1,5.7-1,1.4.3,2.1,2.5,2.1,3.6a2.92,2.92,0,0,1-.2.9c-.2.5-1,.9-2.1,1-4.9.4-7.2.8-7.7,1.2a1.9,1.9,0,0,0-.3.9c0,1.2,2.4,1.4,2.9,1.4,1.5,0,2.3-.8,2.8-.8.7,0,2,1.6,2,3.4,0,1.2-.7,3.1-3.7,3.1a14.29,14.29,0,0,1-6.5-2.3s.1-.5-.9-1.2a11.68,11.68,0,0,1-1-4.2c0-3.5,1.7-5.8,2-7.1,0,0-.8-1.2-1.1-1.6-.2-.2-.4-.4-.4-1.3,0-2.7,1.8-3.2,1.9-3.2h.6a6.51,6.51,0,0,0,1.5-.9l1-.1c.6-.1,7.1-1.8,8.4-1.8a2,2,0,0,1,1.9.8,9.4,9.4,0,0,1,1.4,3.2C57.9,5.9,57.8,6.4,57.7,6.6Z" transform="translate(0 -0.5)"/><path d="M60.9,17.1a2.37,2.37,0,0,0-.3,1c0,.4,1.5,1.1,2.8,1.1,4,.2,3.5-1.7,4.7-1.1.8.4,1.5,2.3,1.5,3.5,0,2.6-2.5,3.3-4.8,3.3A14.15,14.15,0,0,1,59,23.5s-2.4-3-2.4-5.1c0-4.9,2.6-10.2,2.7-10.5,0,0,.2-1.4.3-2.3s.8-1.2,1.4-1.9c1.3-.1,3.7-1.2,11-2,.9-.1,2.1,1.2,2.7,3.1.1.3-.1,1.7-.5,1.9a69.27,69.27,0,0,1-7,.8,6.49,6.49,0,0,0-2.5.6,6.08,6.08,0,0,0-1.5,2.4c-.1.5.1.8.8.7a17.93,17.93,0,0,0,5.5-1.7c1.1,0,2.2,1.5,2.5,3.1a1.93,1.93,0,0,1-.4,1.9,11.88,11.88,0,0,1-3.9,1.3,9.51,9.51,0,0,1-1.4.1c-.1,0-.5.2-.6.2C63.3,16.5,61.3,16.7,60.9,17.1Z" transform="translate(0 -0.5)"/><path d="M128.4,4.4c0,1.2-.4,2-.8,2.2-1.9.7-8.3,1.6-11.3,2.6a4.32,4.32,0,0,0-1.5,2.4c0,.3.4.4.9.4,4.3-.6,5-.9,6.8-1.7a1.93,1.93,0,0,1,1,.3,4.83,4.83,0,0,1,1,3.2,2,2,0,0,1-2.1,2.2c-2.2.3-7.3,1.1-8.8,1.3a2.64,2.64,0,0,0-1.3.4c-.7,1-.4,3,4.2,2,1.9-.4,2.3-1.1,3.4-1.1h.3a3.53,3.53,0,0,1,1.1,3,3.3,3.3,0,0,1-2,3.2,1.85,1.85,0,0,1-.7.2c-.1,0-.7.4-1,.4a8.57,8.57,0,0,1-1.7.3c-3.1,0-8.1-1.4-8.1-7.2,0-5.3,3.6-8.9,4.5-12.4a6.12,6.12,0,0,0,.5-.6c.1-.6.6-2,1.3-2.1A77.38,77.38,0,0,0,125.5.6a1.15,1.15,0,0,1,1,.1A4.79,4.79,0,0,1,128.4,4.4Z" transform="translate(0 -0.5)"/><path d="M40.3,19.6c-.9-1-3.9-2.7-5-3.8.4-.5,2.9-3.9,2.9-6.6,0-3.8-2.7-8.3-6.4-8.3,0,0-1.1,0-2.4.1-.2.4-1,.3-1,.3-1.3.6-2.5,1.6-2.5,4.7,0,.6.8,1.1,1.3,1.6a15.51,15.51,0,0,1-.9,3.9c-.2.4-1.4.6-1.4.6l-.6.8c-.4,2.4,0,2.7.8,3.8.1,1.3-.4,3.5-.4,4.8,0,.9.3.8.2,1.8l.2.4a2.71,2.71,0,0,0,2.5,1.8,1.37,1.37,0,0,0,1.5-1.2c0-1.1-.3-4.4-.3-4.7a3.78,3.78,0,0,1,.5-1.6c.7,0,3.9,2.9,6.6,5.6a3,3,0,0,0,1.9.8c1.6,0,2.3-1.9,2.8-2.3A2.89,2.89,0,0,0,40.3,19.6Zm-9.5-7.4c-.2.1-.6-.1-.7-.1s.8-4.9.9-5.9a2,2,0,0,1,2.7,1.9C33.8,9.4,33.2,11,30.8,12.2Z" transform="translate(0 -0.5)"/><path d="M108,2.2l-1.2-.3-.6-.3a30.57,30.57,0,0,0-6.7-.2,8.87,8.87,0,0,1-1.4-.3,7.37,7.37,0,0,1-1.8.8,4.54,4.54,0,0,1-.8-.2A13.58,13.58,0,0,0,91.1,3a2.81,2.81,0,0,0-1,1.2h0c0,.1-.2.2-.2,0h0c0-.2-.1-.5-.1-.6a3.12,3.12,0,0,0-2.5-2c-.3,0-1.1.4-1.1.8s-.1,2.8-.4,5a34.77,34.77,0,0,1-.4,5.8c-.1,0-.4.1-.5,0-1.1-1.6-3.8-4.3-4.1-6.2-.2-1.7.1-4.3-.8-5a6.11,6.11,0,0,0-2.4-.7,1.81,1.81,0,0,0-1.5.7l-.1.5-.5.7a23.16,23.16,0,0,0-.3,3l.4,2.1a1.39,1.39,0,0,1-.4.9l.1,1.6c0,1.8-1.6,8-1.6,9.8,0,4.2,3.7,3.8,3.9,3.7a2.85,2.85,0,0,0,.8-1.4c.2-2.5.5-6.7,1.2-7.9a.44.44,0,0,1,.7-.2,12.89,12.89,0,0,1,1.3,1.9c.7.9,2.5,3.2,2.9,5.3a3.08,3.08,0,0,0,.1.9A3.43,3.43,0,0,0,86,25.2a4,4,0,0,0,2,.2c.7-.1,2-.3,2-3.5a22.43,22.43,0,0,0-.3-3.4c0-.4.5-4.3.5-9.7,0,0-.2-.5-.3-.8a6.53,6.53,0,0,0,.2-1.1h0c0-.1.1-.2.1-.1h0a.35.35,0,0,0,.1.2,2.08,2.08,0,0,0,1.6.8c1.2,0,2.7-1.4,3.7-1.1a3.91,3.91,0,0,1,1.1-.3c0,.5,0,1.6-.1,3.1-.1.7-.4.9-1.7.9a1,1,0,0,0-.9.7,11.73,11.73,0,0,0-.5,2.7A3.39,3.39,0,0,0,96,16.5c.1.4-.3,3.7-.3,5.4a4.28,4.28,0,0,0,.5,2.5,4.49,4.49,0,0,0,2.2,1,2.19,2.19,0,0,0,1.6-.7,2.84,2.84,0,0,0,.3-1.4c.1-3.8.5-7.8,1-7.9a19.59,19.59,0,0,0,6.7-3.2,5.93,5.93,0,0,0,2.6-4.4A7.81,7.81,0,0,0,108,2.2Zm-6.7,7.6c-.3,0-.5-.1-.5-.3a13.7,13.7,0,0,1-.4-3.6c1-.2,5.4.1,5.4,1.2S102.8,9.8,101.3,9.8Z" transform="translate(0 -0.5)"/><path d="M23.5,15.7a11,11,0,0,0-1.1-3.5,2.54,2.54,0,0,0-2.2-.8c-.6,0-10.3,1.5-11.6,2.3-.6.4-.8,1.2-.8,2.4,0,1.7,1.1,2.4,1.4,2.4.7,0,5.7-1,7.4-1.3.4-.1.5.1.5.2a2.38,2.38,0,0,1-.3,1.2,5.73,5.73,0,0,1-2.6,1.5c-1.4-.3-2.6.9-4,.2-.6,0-1.5.4-1.9-.2-1.4-.3-2.9-.4-4.1-1.4a2,2,0,0,1-.5-1.5c0-1.5,2.3-5.5,6.2-9.1.8-.8,3.7-2.9,5-2.9.9,0,1.2,1.9,1.8,2.6a1.27,1.27,0,0,0,1.2,0c.7-.3,1.3-.7,1.3-1.6a7.59,7.59,0,0,0-1.4-4.4A6.22,6.22,0,0,0,14.7.5c-1.6,0-2.4,1-3,1A25,25,0,0,0,7.6,4.8a.62.62,0,0,1-.4.2,2.52,2.52,0,0,1-.4.9c-.1.1-.9.6-.9.6C4.8,7.6,0,13.6,0,15.9a10.81,10.81,0,0,0,1.9,5.5,13.48,13.48,0,0,0,8.7,2.8,13.14,13.14,0,0,0,5.7-1.4h0c.2-.1.3-.1.3.1s-.1.5-.1.8-.1,1.5-.1,2.4a3.71,3.71,0,0,0,.8,2.7,5.61,5.61,0,0,0,2.3.5,2,2,0,0,0,1.7-2c0-.8-.1-1.8-.1-2.1C21.5,18.7,23.5,16.9,23.5,15.7Z" transform="translate(0 -0.5)"/><path d="M182.9,4.5c-.4-1.6-1.6-3.1-2.7-3.3-1,.2-8.8,1.7-13.9,2.4a13.61,13.61,0,0,1-1.6.1l-.6.3a4.66,4.66,0,0,0-1.5.4,4.2,4.2,0,0,0-1.8,2.9l.1,1.3c-1.6,3.2-2.7,5.7-2.7,9.1v.2c0,.3,0,.4-.1.3s-.2-.3-.3-.4c-.6-.7-.8-.8-1.1-.8-.8,0-1.5,1.6-4.3,1.6-2.6,0-7.3-2.7-7.3-4.1,0-3.1,4.1-6.9,7.1-6.9.5,0,.7.2.7.5,0,.6-.5,1.6-.5,2.2,0,1.5,2.2,2.5,3.4,2.5.3,0,2.7-.9,2.7-4.3,0-2-1.5-5.4-3.9-5.4a21.07,21.07,0,0,0-10.7,3.8,2.88,2.88,0,0,1-.4.6c-.2.2-1,.8-1,.8a16,16,0,0,0-1.5,2.6c-.1.1-.1.3-.2.5h0c-.1.4-.3.5-.4.3a2,2,0,0,0-.1-.7,23.59,23.59,0,0,0-.4-3.1s-.3-.9-.4-1.3V6a9.83,9.83,0,0,0-2.6-4.6c-1.1-.4-1.4-.5-1.9-.2-1.9,1.2-4.1,4.9-7.5,11.2a11.78,11.78,0,0,1-1.3,1.1,4.22,4.22,0,0,1-.1,1.8c-.7,2.2-2.7,4.9-2.6,5.5l.1.7-.1.8a4,4,0,0,0,2.9,2.3h.3c1.3-1.2,1.7-3.4,2.9-5.3.1-.2.2-.2.5-.4a18.78,18.78,0,0,1,2.9-.6,3.47,3.47,0,0,1,1.3.1l.6-.2c.5,0,.8.1.8.6a23.88,23.88,0,0,0,.2,4.5c.2,1,1.2,1.7,3.1,1.9a2,2,0,0,0,1.2-1.2c.4-1.1.1-2.5.1-3.7,0-1.8.1-2.8.1-3.4,0-.2.2-.3.2-.1h0a7,7,0,0,0,.9,1.7c2.4,2.8,6.3,6.1,11.9,6.4a4.51,4.51,0,0,0,4.7-3.2c.2-.5.3-.9.4-1.1s.1,0,.2.1h0a6.78,6.78,0,0,0,.6.9c1.9,2.4,4.6,3.2,8.1,2.6,3.8-.6,4.3-1,4.7-1.4a5.67,5.67,0,0,0,.8-2.6,2.25,2.25,0,0,0-.4-1.9c-.6-.6-2.4,0-4.8.4-3.2.5-4.5-.8-4.5-1.2,0-.2.1-.8.5-.8a2.88,2.88,0,0,1,1.3.1,28.38,28.38,0,0,1,3.2-.3c.5,0,1.1.1,1.3.1,0,0,2.1-.2,3.4-.4.8-.2,1.5-.8,1.5-1.2a4,4,0,0,0-.2-2.4c-.9-1.8-1.9-2-2.2-2a21.13,21.13,0,0,1-6.3.7.66.66,0,0,1-.6-.7,3,3,0,0,1,2-2.2,117.87,117.87,0,0,1,12.1-1.3c1.6-.1,3.4.4,3.7-.1A7,7,0,0,0,182.9,4.5Zm-47.1,7.4c-.2.4-1.3.7-3.3.7a.19.19,0,0,1-.1-.3,36.76,36.76,0,0,1,2.5-5.2,1.08,1.08,0,0,1,.7.3C136.1,7.9,136.1,11.4,135.8,11.9Z" transform="translate(0 -0.5)"/></svg>
