<?xml version="1.0" encoding="utf-8"?>
<svg version="1.1" id="Calque_1" xmlns="http://www.w3.org/2000/svg" xmlns:xlink="http://www.w3.org/1999/xlink" x="0px" y="0px"
	 viewBox="-50 127.5 183 30" enable-background="new -50 127.5 183 30" xml:space="preserve">
<title>gp-logo</title>
<g>
	<path fill="#66CC00" d="M7.7,134.1c-0.5,0.4-1.4,0.5-5.9,1.3c0,0-0.2,0-0.9,0.4c-1.1,0-2.8,0.8-3.3,1.1c-0.2,0.1-0.5,0.7-0.6,1.8
		c0.3,0.4,0.5,0.3,0.8,0.3c2.2,0,5.3-1.1,5.7-1c1.4,0.3,2.1,2.5,2.1,3.6c0,0.1-0.1,0.8-0.2,0.9c-0.2,0.5-1,0.9-2.1,1
		c-4.9,0.4-7.2,0.8-7.7,1.2c-0.1,0.1-0.3,0.6-0.3,0.9c0,1.2,2.4,1.4,2.9,1.4c1.5,0,2.3-0.8,2.8-0.8c0.7,0,2,1.6,2,3.4
		c0,1.2-0.7,3.1-3.7,3.1c-0.8,0-4.1-0.6-6.5-2.3c0,0,0.1-0.5-0.9-1.2c-0.3-0.6-1-2.6-1-4.2c0-3.5,1.7-5.8,2-7.1c0,0-0.8-1.2-1.1-1.6
		c-0.2-0.2-0.4-0.4-0.4-1.3c0-2.7,1.8-3.2,1.9-3.2l0.6,0c0,0,1.3-0.6,1.5-0.9l1-0.1c0.6-0.1,7.1-1.8,8.4-1.8c1,0,1.4,0.2,1.9,0.8
		c0.3,0.4,1.4,2.4,1.4,3.2C7.9,133.4,7.8,133.9,7.7,134.1z"/>
	<path fill="#66CC00" d="M10.9,144.6c-0.1,0.1-0.3,0.7-0.3,1c0,0.4,1.5,1.1,2.8,1.1c4,0.2,3.5-1.7,4.7-1.1c0.8,0.4,1.5,2.3,1.5,3.5
		c0,2.6-2.5,3.3-4.8,3.3c-3.1,0-5.8-1.4-5.8-1.4s-2.4-3-2.4-5.1c0-4.9,2.6-10.2,2.7-10.5c0,0,0.2-1.4,0.3-2.3c0.1-1,0.8-1.2,1.4-1.9
		c1.3-0.1,3.7-1.2,11-2c0.9-0.1,2.1,1.2,2.7,3.1c0.1,0.3-0.1,1.7-0.5,1.9c-0.3,0.1-1,0.2-7,0.8c-1,0.1-2.1,0.3-2.5,0.6
		c-0.5,0.3-1.4,1.9-1.5,2.4c-0.1,0.5,0.1,0.8,0.8,0.7c3.1-0.3,5.2-1.7,5.5-1.7c1.1,0,2.2,1.5,2.5,3.1c0.2,1-0.1,1.7-0.4,1.9
		c-0.9,0.6-2.4,1-3.9,1.3c-0.7,0.1-1.2,0.1-1.4,0.1c-0.1,0-0.5,0.2-0.6,0.2C13.3,144,11.3,144.2,10.9,144.6z"/>
	<path fill="#66CC00" d="M78.4,131.9c0,1.2-0.4,2-0.8,2.2c-1.9,0.7-8.3,1.6-11.3,2.6c-0.5,0.2-1.5,1.8-1.5,2.4
		c0,0.3,0.4,0.4,0.9,0.4c4.3-0.6,5-0.9,6.8-1.7c0.3,0,0.7,0.1,1,0.3c0.5,0.6,1,1.6,1,3.2c0,1-0.4,2-2.1,2.2
		c-2.2,0.3-7.3,1.1-8.8,1.3c-0.8,0.1-1.2,0.3-1.3,0.4c-0.7,1-0.4,3,4.2,2c1.9-0.4,2.3-1.1,3.4-1.1c0.1,0,0.2,0,0.3,0
		c0.9,0.8,1.1,1.7,1.1,3c0,1.5-0.7,2.6-2,3.2c-0.1,0.1-0.6,0.2-0.7,0.2c-0.1,0-0.7,0.4-1,0.4c-0.8,0.2-1.4,0.3-1.7,0.3
		c-3.1,0-8.1-1.4-8.1-7.2c0-5.3,3.6-8.9,4.5-12.4c0,0,0.2-0.2,0.5-0.6c0.1-0.6,0.6-2,1.3-2.1c1.7-0.2,6.8-1.3,11.4-2.8
		c0.4-0.1,0.7-0.1,1,0.1C77.4,128.8,78.4,130.3,78.4,131.9z"/>
	<path fill="#66CC00" d="M-9.7,147.1c-0.9-1-3.9-2.7-5-3.8c0.4-0.5,2.9-3.9,2.9-6.6c0-3.8-2.7-8.3-6.4-8.3c0,0-1.1,0-2.4,0.1
		c-0.2,0.4-1,0.3-1,0.3c-1.3,0.6-2.5,1.6-2.5,4.7c0,0.6,0.8,1.1,1.3,1.6c-0.1,1-0.4,2.7-0.9,3.9c-0.2,0.4-1.4,0.6-1.4,0.6l-0.6,0.8
		c-0.4,2.4,0,2.7,0.8,3.8c0.1,1.3-0.4,3.5-0.4,4.8c0,0.9,0.3,0.8,0.2,1.8c0,0,0.1,0.2,0.2,0.4c0.3,1,1.4,1.8,2.5,1.8
		c1.1,0,1.5-0.8,1.5-1.2c0-1.1-0.3-4.4-0.3-4.7c0.1-1,0.5-1.6,0.5-1.6c0.7,0,3.9,2.9,6.6,5.6c0.4,0.4,1.2,0.8,1.9,0.8
		c1.6,0,2.3-1.9,2.8-2.3C-9.2,149.3-9.1,147.7-9.7,147.1z M-19.2,139.7c-0.2,0.1-0.6-0.1-0.7-0.1c0,0,0.8-4.9,0.9-5.9
		c1.2-0.3,2.7,0.3,2.7,1.9C-16.2,136.9-16.8,138.5-19.2,139.7z"/>
	<path fill="#66CC00" d="M58,129.7l-1.2-0.3l-0.6-0.3c-1.6-0.3-5.4-0.4-6.7-0.2c-0.2,0-1.1-0.2-1.4-0.3c-1,0.6-1.8,0.8-1.8,0.8
		c-0.2,0-0.8-0.2-0.8-0.2c-0.9,0.1-3.3,0.6-4.4,1.3c-0.5,0.3-0.8,0.8-1,1.2c0,0,0,0,0,0c0,0.1-0.2,0.2-0.2,0l0,0
		c0-0.2-0.1-0.5-0.1-0.6c-0.3-1.1-1.7-2-2.5-2c-0.3,0-1.1,0.4-1.1,0.8c-0.1,0.5-0.1,2.8-0.4,5c0,0.2,0,4.4-0.4,5.8
		c-0.1,0-0.4,0.1-0.5,0c-1.1-1.6-3.8-4.3-4.1-6.2c-0.2-1.7,0.1-4.3-0.8-5c-0.3-0.3-1.9-0.7-2.4-0.7c-0.7,0-1.2,0.3-1.5,0.7l-0.1,0.5
		l-0.5,0.7c-0.1,0.5-0.2,1.3-0.3,3l0.4,2.1c0,0,0,0.5-0.4,0.9l0.1,1.6c0,1.8-1.6,8-1.6,9.8c0,4.2,3.7,3.8,3.9,3.7
		c0.3-0.2,0.8-1.1,0.8-1.4c0.2-2.5,0.5-6.7,1.2-7.9c0.1-0.3,0.5-0.4,0.7-0.2c0.6,0.6,1.2,1.8,1.3,1.9c0.7,0.9,2.5,3.2,2.9,5.3
		c0,0.2,0,0.6,0.1,0.9c0.1,0.7,0.4,1.5,1.4,2.3c0.3,0.2,1.3,0.3,2,0.2c0.7-0.1,2-0.3,2-3.5c0-2.1-0.3-3-0.3-3.4s0.5-4.3,0.5-9.7
		c0,0-0.2-0.5-0.3-0.8c0.1-0.5,0.2-0.8,0.2-1.1l0,0c0-0.1,0.1-0.2,0.1-0.1l0,0c0,0.1,0.1,0.2,0.1,0.2c0.3,0.4,0.9,0.8,1.6,0.8
		c1.2,0,2.7-1.4,3.7-1.1c0.1,0,0.3-0.2,1.1-0.3c0,0.5,0,1.6-0.1,3.1c-0.1,0.7-0.4,0.9-1.7,0.9c-0.5,0-0.8,0.4-0.9,0.7
		c-0.2,0.4-0.5,2.2-0.5,2.7c0,1,1.1,2.3,2.5,2.7c0.1,0.4-0.3,3.7-0.3,5.4c0,1.7,0.4,2.4,0.5,2.5c0.1,0.1,1.3,1,2.2,1
		c0.7,0,1.4-0.4,1.6-0.7c0.1-0.2,0.3-0.6,0.3-1.4c0.1-3.8,0.5-7.8,1-7.9c2.3-0.7,4.5-1.5,6.7-3.2c1.2-0.8,2.6-2.6,2.6-4.4
		C60.6,133,59.1,130.4,58,129.7z M51.3,137.3c-0.3,0-0.5-0.1-0.5-0.3c-0.3-0.8-0.4-2.6-0.4-3.6c1-0.2,5.4,0.1,5.4,1.2
		C55.7,135.6,52.8,137.3,51.3,137.3z"/>
	<path fill="#66CC00" d="M-26.5,143.2c0-0.7-0.7-2.9-1.1-3.5c-0.6-0.7-1.3-0.8-2.2-0.8c-0.6,0-10.3,1.5-11.6,2.3
		c-0.6,0.4-0.8,1.2-0.8,2.4c0,1.7,1.1,2.4,1.4,2.4c0.7,0,5.7-1,7.4-1.3c0.4-0.1,0.5,0.1,0.5,0.2c0,0.4-0.1,0.9-0.3,1.2
		c-0.7,0.8-1.7,1.2-2.6,1.5c-1.4-0.3-2.6,0.9-4,0.2c-0.6,0-1.5,0.4-1.9-0.2c-1.4-0.3-2.9-0.4-4.1-1.4c-0.4-0.4-0.5-0.9-0.5-1.5
		c0-1.5,2.3-5.5,6.2-9.1c0.8-0.8,3.7-2.9,5-2.9c0.9,0,1.2,1.9,1.8,2.6c0.2,0.2,0.9,0.2,1.2,0c0.7-0.3,1.3-0.7,1.3-1.6
		c0-2-0.8-3.6-1.4-4.4c-0.4-0.5-2.3-1.3-3.1-1.3c-1.6,0-2.4,1-3,1c-2.4,1.5-3.6,2.9-4.1,3.3c-0.2,0.2-0.4,0.2-0.4,0.2
		s-0.1,0.5-0.4,0.9c-0.1,0.1-0.9,0.6-0.9,0.6c-1.1,1.1-5.9,7.1-5.9,9.4c0,2.1,1.4,5.1,1.9,5.5c1.8,1.6,5,2.8,8.7,2.8
		c2.6,0,5-1,5.7-1.4l0,0c0.2-0.1,0.3-0.1,0.3,0.1c0,0.2-0.1,0.5-0.1,0.8c0,0.3-0.1,1.5-0.1,2.4c0,1.5,0.4,2.3,0.8,2.7
		c0.2,0.2,1.5,0.5,2.3,0.5c0.4,0,1.7-0.6,1.7-2c0-0.8-0.1-1.8-0.1-2.1C-28.5,146.2-26.5,144.4-26.5,143.2z"/>
	<path fill="#66CC00" d="M132.9,132c-0.4-1.6-1.6-3.1-2.7-3.3c-1,0.2-8.8,1.7-13.9,2.4c-0.7,0.1-1.6,0.1-1.6,0.1l-0.6,0.3
		c0,0-1,0.1-1.5,0.4c-0.7,0.5-1.6,1.4-1.8,2.9l0.1,1.3c-1.6,3.2-2.7,5.7-2.7,9.1c0,0.1,0,0.1,0,0.2c0,0.3,0,0.4-0.1,0.3
		c-0.1-0.1-0.2-0.3-0.3-0.4c-0.6-0.7-0.8-0.8-1.1-0.8c-0.8,0-1.5,1.6-4.3,1.6c-2.6,0-7.3-2.7-7.3-4.1c0-3.1,4.1-6.9,7.1-6.9
		c0.5,0,0.7,0.2,0.7,0.5c0,0.6-0.5,1.6-0.5,2.2c0,1.5,2.2,2.5,3.4,2.5c0.3,0,2.7-0.9,2.7-4.3c0-2-1.5-5.4-3.9-5.4
		c-3.1,0-7.6,1.6-10.7,3.8c0,0-0.2,0.4-0.4,0.6s-1,0.8-1,0.8c-0.7,0.9-1.3,2.2-1.5,2.6c-0.1,0.1-0.1,0.3-0.2,0.5c0,0,0,0,0,0
		c-0.1,0.4-0.3,0.5-0.4,0.3c0-0.2,0-0.4-0.1-0.7c-0.1-1.3-0.2-2.1-0.4-3.1c0,0-0.3-0.9-0.4-1.3c0-0.1,0-0.6,0-0.6
		c-0.7-2.7-2.4-4.5-2.6-4.6c-1.1-0.4-1.4-0.5-1.9-0.2c-1.9,1.2-4.1,4.9-7.5,11.2c0,0-0.6,0.6-1.3,1.1c0.1,1,0,1.5-0.1,1.8
		c-0.7,2.2-2.7,4.9-2.6,5.5l0.1,0.7l-0.1,0.8c0,0.5,1.6,2.3,2.9,2.3c0.1,0,0.2,0,0.3,0c1.3-1.2,1.7-3.4,2.9-5.3
		c0.1-0.2,0.2-0.2,0.5-0.4c0.8-0.3,2.3-0.5,2.9-0.6s1.3,0.1,1.3,0.1l0.6-0.2c0.5,0,0.8,0.1,0.8,0.6c0,2.1,0,3.9,0.2,4.5
		c0.2,1,1.2,1.7,3.1,1.9c0.2,0,1-0.5,1.2-1.2c0.4-1.1,0.1-2.5,0.1-3.7c0-1.8,0.1-2.8,0.1-3.4c0-0.2,0.2-0.3,0.2-0.1c0,0,0,0,0,0
		c0.2,0.5,0.5,1.2,0.9,1.7c2.4,2.8,6.3,6.1,11.9,6.4c2.2,0.1,3.9-1,4.7-3.2c0.2-0.5,0.3-0.9,0.4-1.1c0-0.1,0.1,0,0.2,0.1
		c0,0,0,0,0,0c0.1,0.2,0.3,0.5,0.6,0.9c1.9,2.4,4.6,3.2,8.1,2.6c3.8-0.6,4.3-1,4.7-1.4c0.5-0.7,0.7-1.7,0.8-2.6
		c0.1-0.6,0.1-1.3-0.4-1.9c-0.6-0.6-2.4,0-4.8,0.4c-3.2,0.5-4.5-0.8-4.5-1.2c0-0.2,0.1-0.8,0.5-0.8c0.3-0.1,1,0,1.3,0.1
		c0.1,0,1.9-0.3,3.2-0.3c0.5,0,1.1,0.1,1.3,0.1c0,0,2.1-0.2,3.4-0.4c0.8-0.2,1.5-0.8,1.5-1.2c0.2-1.2,0-2-0.2-2.4
		c-0.9-1.8-1.9-2-2.2-2c-1.1,0.2-3.3,0.9-6.3,0.7c-0.4,0-0.6-0.4-0.6-0.7c0.1-0.8,1-2,2-2.2c2.4-0.5,9.5-1.2,12.1-1.3
		c1.6-0.1,3.4,0.4,3.7-0.1C133.1,133.8,133,132.4,132.9,132z M85.8,139.4c-0.2,0.4-1.3,0.7-3.3,0.7c-0.1,0-0.2-0.2-0.1-0.3
		c0.8-1.9,2.3-5.2,2.5-5.2c0.2,0,0.5,0.1,0.7,0.3C86.1,135.4,86.1,138.9,85.8,139.4z"/>
</g>
</svg>
