<svg width="14" height="14" viewBox="0 0 14 14" fill="none" xmlns="http://www.w3.org/2000/svg">
<path d="M10 14C9.45 14 8.97917 13.8042 8.5875 13.4125C8.19583 13.0208 8 12.55 8 12V2C8 1.45 8.19583 0.979167 8.5875 0.5875C8.97917 0.195833 9.45 0 10 0H12C12.55 0 13.0208 0.195833 13.4125 0.5875C13.8042 0.979167 14 1.45 14 2V12C14 12.55 13.8042 13.0208 13.4125 13.4125C13.0208 13.8042 12.55 14 12 14H10ZM2 14C1.45 14 0.979167 13.8042 0.5875 13.4125C0.195833 13.0208 0 12.55 0 12V2C0 1.45 0.195833 0.979167 0.5875 0.5875C0.979167 0.195833 1.45 0 2 0H4C4.55 0 5.02083 0.195833 5.4125 0.5875C5.80417 0.979167 6 1.45 6 2V12C6 12.55 5.80417 13.0208 5.4125 13.4125C5.02083 13.8042 4.55 14 4 14H2ZM10 12H12V2H10V12ZM2 12H4V2H2V12Z" fill="#1C1C1C"/></svg>
