<svg width="11" height="14" viewBox="0 0 11 14" fill="none" xmlns="http://www.w3.org/2000/svg"><path d="M0 12.175V1.82501C0 1.54168 0.1 1.30418 0.3 1.11251C0.5 0.920846 0.733333 0.825012 1 0.825012C1.08333 0.825012 1.17083 0.837512 1.2625 0.862512C1.35417 0.887512 1.44167 0.925012 1.525 0.975012L9.675 6.15001C9.825 6.25001 9.9375 6.37501 10.0125 6.52501C10.0875 6.67501 10.125 6.83335 10.125 7.00001C10.125 7.16668 10.0875 7.32501 10.0125 7.47501C9.9375 7.62501 9.825 7.75001 9.675 7.85001L1.525 13.025C1.44167 13.075 1.35417 13.1125 1.2625 13.1375C1.17083 13.1625 1.08333 13.175 1 13.175C0.733333 13.175 0.5 13.0792 0.3 12.8875C0.1 12.6958 0 12.4583 0 12.175ZM2 10.35L7.25 7.00001L2 3.65001V10.35Z" fill="#1C1C1C"/></svg>
