<svg xmlns="http://www.w3.org/2000/svg" viewBox="0 0 24.12 24"><defs><style>.cls-1{fill:#a7e021;opacity:0.7;}</style></defs><title>search</title><g id="Layer_2" data-name="Layer 2"><g id="nav"><path class="cls-1" d="M23.86,23.74a.66.66,0,0,1-1.05,0l-7.31-7.3a9,9,0,0,1-6.13,2.29A9,9,0,0,1,2.74,16,9,9,0,0,1,0,9.37,9,9,0,0,1,2.74,2.74,9,9,0,0,1,9.37,0,9,9,0,0,1,16,2.74a9,9,0,0,1,2.74,6.63,9.22,9.22,0,0,1-2.15,6l7.26,7.35A.62.62,0,0,1,23.86,23.74ZM17.28,9.37A7.54,7.54,0,0,0,15,3.79,7.62,7.62,0,0,0,9.39,1.5,7.62,7.62,0,0,0,3.82,3.79,7.54,7.54,0,0,0,1.5,9.37a7.54,7.54,0,0,0,2.32,5.57,7.62,7.62,0,0,0,5.57,2.29A7.62,7.62,0,0,0,15,14.94,7.54,7.54,0,0,0,17.28,9.37Z"/></g></g></svg>