<?xml version="1.0" encoding="UTF-8"?>
<svg width="11px" height="11px" viewBox="0 0 11 11" version="1.1" xmlns="http://www.w3.org/2000/svg" xmlns:xlink="http://www.w3.org/1999/xlink">
    <title>search_10</title>
    <g id="Icons" stroke="none" stroke-width="1" fill="none" fill-rule="evenodd">
        <g transform="translate(-693.000000, -264.000000)" fill="#1c1c1c" fill-rule="nonzero" id="Search">
            <g transform="translate(581.749999, 250.749999)">
                <g id="search_10" transform="translate(112.000000, 14.000000)">
                    <path d="M1.19392319,1.19392319 C2.76993074,-0.382084369 5.30770466,-0.400341735 6.86220798,1.15416158 C8.22575338,2.51770698 8.39320229,4.66437048 7.3012269,6.24804784 L7.2796004,6.2780004 L9.62058204,8.77617905 C9.70664535,8.87381869 9.76453652,8.99209836 9.78810315,9.11956927 L9.7969976,9.18401765 L9.8000004,9.24967989 C9.8000004,9.64216315 9.48182985,9.9603337 9.08934659,9.9603337 C8.93452815,9.9603337 8.78725218,9.9105402 8.66200083,9.81657446 L8.60971234,9.7736154 L6.2740004,7.2828004 L6.24804784,7.3012269 C4.73107428,8.34720876 2.69754127,8.23762483 1.3305247,7.02813323 L1.24039068,6.94587158 L1.15416158,6.86220798 C-0.400341735,5.30770466 -0.382084369,2.76993074 1.19392319,1.19392319 Z M2.02123227,2.02123227 C0.907172975,3.13529157 0.894277054,4.92782448 1.99141107,6.02495849 C3.08854508,7.1220925 4.88107799,7.10919658 5.99513729,5.99513729 C7.10919658,4.88107799 7.1220925,3.08854508 6.02495849,1.99141107 C4.92782448,0.894277054 3.13529157,0.907172975 2.02123227,2.02123227 Z" id="search"></path>
                </g>
            </g>
        </g>
    </g>
</svg>
