<svg xmlns="http://www.w3.org/2000/svg" viewBox="0 0 757 712" preserveAspectRatio="none">
    <defs>
        <style>
            .gradient {
            fill: url(#linear-gradient);
            }
        </style>
        <linearGradient id="linear-gradient" x1="0%" y1="0%" x2="100%" y2="0%" gradientUnits="objectBoundingBox">
            <stop offset="0" stop-color="#30efe8"/>
            <stop offset="1" stop-color="#1fd59b"/>
        </linearGradient>
    </defs>
  <path id="Selection" class="gradient"
        d="M 757.00,0.00
           C 757.00,0.00 757.00,712.00 757.00,712.00
             757.00,712.00 0.00,712.00 0.00,712.00
             0.00,712.00 0.00,0.00 0.00,0.00
             0.00,0.00 757.00,0.00 757.00,0.00 Z
           M 689.00,36.00
           C 689.00,36.00 677.00,36.96 677.00,36.96
             677.00,36.96 665.00,36.96 665.00,36.96
             665.00,36.96 652.00,38.00 652.00,38.00
             652.00,38.00 635.00,38.00 635.00,38.00
             635.00,38.00 597.00,43.00 597.00,43.00
             583.92,43.02 574.45,47.48 562.00,50.00
             562.00,50.00 545.00,51.51 545.00,51.51
             545.00,51.51 529.00,55.77 529.00,55.77
             529.00,55.77 504.00,61.43 504.00,61.43
             504.00,61.43 487.00,67.14 487.00,67.14
             487.00,67.14 449.00,76.69 449.00,76.69
             449.00,76.69 399.00,96.78 399.00,96.78
             399.00,96.78 374.00,109.74 374.00,109.74
             374.00,109.74 338.00,128.43 338.00,128.43
             338.00,128.43 315.00,142.94 315.00,142.94
             315.00,142.94 290.00,157.69 290.00,157.69
             270.43,170.44 247.00,189.28 230.17,205.42
             216.85,218.20 185.32,253.86 175.20,269.00
             175.20,269.00 163.53,290.00 163.53,290.00
             163.53,290.00 148.31,312.00 148.31,312.00
             148.31,312.00 131.69,349.00 131.69,349.00
             131.69,349.00 118.06,378.00 118.06,378.00
             118.06,378.00 111.58,400.00 111.58,400.00
             111.58,400.00 97.35,435.00 97.35,435.00
             97.35,435.00 91.43,461.00 91.43,461.00
             91.43,461.00 81.88,489.00 81.88,489.00
             81.88,489.00 70.58,544.00 70.58,544.00
             62.10,590.99 59.00,615.97 59.00,664.00
             59.00,664.00 158.00,664.00 158.00,664.00
             158.00,664.00 185.00,662.00 185.00,662.00
             185.00,662.00 202.00,663.90 202.00,663.90
             212.93,663.41 215.17,659.82 231.00,660.00
             231.00,660.00 247.00,661.91 247.00,661.91
             247.00,661.91 258.00,661.91 258.00,661.91
             258.00,661.91 282.00,659.51 282.00,659.51
             282.00,659.51 316.00,662.00 316.00,662.00
             316.00,662.00 344.00,660.00 344.00,660.00
             344.00,660.00 446.00,660.00 446.00,660.00
             446.00,660.00 461.00,659.00 461.00,659.00
             461.00,659.00 476.00,658.08 476.00,658.08
             476.00,658.08 491.00,659.00 491.00,659.00
             491.00,659.00 501.00,659.91 501.00,659.91
             501.00,659.91 532.00,661.00 532.00,661.00
             532.00,661.00 548.00,662.00 548.00,662.00
             548.00,662.00 569.00,662.00 569.00,662.00
             569.00,662.00 582.00,661.01 582.00,661.01
             582.00,661.01 598.00,662.00 598.00,662.00
             598.00,662.00 614.00,662.00 614.00,662.00
             614.00,662.00 628.00,663.00 628.00,663.00
             628.00,663.00 688.00,663.00 688.00,663.00
             691.71,662.95 701.94,662.19 704.69,659.99
             707.71,657.58 706.21,655.05 707.26,652.17
             708.17,649.70 710.29,648.55 711.89,644.00
             713.40,639.71 713.05,632.67 713.00,628.00
             713.00,628.00 711.21,606.00 711.21,606.00
             711.21,606.00 712.00,593.00 712.00,593.00
             712.00,593.00 712.00,568.00 712.00,568.00
             712.00,568.00 711.00,551.00 711.00,551.00
             711.00,551.00 711.00,523.00 711.00,523.00
             711.00,523.00 709.09,499.00 709.09,499.00
             709.09,499.00 711.00,483.00 711.00,483.00
             711.13,471.66 710.03,473.57 709.09,465.00
             709.09,465.00 709.09,454.00 709.09,454.00
             709.09,454.00 711.82,424.00 711.82,424.00
             711.82,424.00 710.18,405.00 710.18,405.00
             710.18,405.00 713.99,370.00 713.99,370.00
             713.99,370.00 713.00,354.00 713.00,354.00
             713.00,354.00 713.00,339.00 713.00,339.00
             713.00,339.00 714.00,323.00 714.00,323.00
             714.00,323.00 715.00,293.00 715.00,293.00
             715.00,293.00 716.04,276.00 716.04,276.00
             716.04,276.00 716.04,262.00 716.04,262.00
             716.04,262.00 717.00,250.00 717.00,250.00
             717.00,250.00 717.00,227.00 717.00,227.00
             717.00,227.00 716.04,217.00 716.04,217.00
             716.04,217.00 716.04,206.00 716.04,206.00
             716.04,206.00 718.00,181.00 718.00,181.00
             718.00,181.00 718.00,93.00 718.00,93.00
             718.00,93.00 717.00,77.00 717.00,77.00
             717.00,77.00 717.00,36.00 717.00,36.00
             717.00,36.00 689.00,36.00 689.00,36.00 Z" />
</svg>
