<svg xmlns="http://www.w3.org/2000/svg" viewBox="0 0 50 50">
  <path id="Exclusion_1" data-name="Exclusion 1" fill="#ffffff" d="M7525-4838a24.857,24.857,0,0,1-9.731-1.964,24.914,24.914,0,0,1-7.946-5.358,24.914,24.914,0,0,1-5.358-7.946A24.857,24.857,0,0,1,7500-4863a24.854,24.854,0,0,1,1.964-9.73,24.917,24.917,0,0,1,5.358-7.946,24.914,24.914,0,0,1,7.946-5.358A24.845,24.845,0,0,1,7525-4888a24.842,24.842,0,0,1,9.73,1.965,24.913,24.913,0,0,1,7.947,5.358,24.917,24.917,0,0,1,5.358,7.946A24.842,24.842,0,0,1,7550-4863a24.845,24.845,0,0,1-1.965,9.731,24.914,24.914,0,0,1-5.358,7.946,24.913,24.913,0,0,1-7.947,5.358A24.85,24.85,0,0,1,7525-4838Zm-3-31.624v14l7-7Z" transform="translate(-7500 4888)"/>
</svg>
