<svg xmlns="http://www.w3.org/2000/svg" viewBox="0 0 313 960">
  <path id="Selection"
        fill="#FF80E9" stroke="none"
        d="M 205.00,0.00
           C 205.00,0.00 265.00,0.00 265.00,0.00
             265.00,0.00 292.00,1.00 292.00,1.00
             279.78,8.76 257.98,29.46 247.00,39.96
             247.00,39.96 238.01,48.04 238.01,48.04
             238.01,48.04 228.96,58.00 228.96,58.00
             228.96,58.00 217.17,70.00 217.17,70.00
             200.33,88.62 184.67,108.45 170.28,129.00
             118.35,203.19 84.98,284.73 69.92,374.00
             69.92,374.00 64.17,416.00 64.17,416.00
             64.17,416.00 62.91,437.00 62.91,437.00
             62.91,437.00 62.00,447.00 62.00,447.00
             62.00,447.00 62.00,497.00 62.00,497.00
             62.00,497.00 62.91,507.00 62.91,507.00
             62.91,507.00 64.17,528.00 64.17,528.00
             64.17,528.00 71.39,578.00 71.39,578.00
             82.65,640.51 104.08,701.11 134.31,757.00
             166.55,816.63 205.10,864.19 254.00,910.96
             254.00,910.96 294.00,944.80 294.00,944.80
             299.65,949.32 308.85,955.02 313.00,960.00
             313.00,960.00 0.00,960.00 0.00,960.00
             0.00,960.00 0.00,0.00 0.00,0.00
             0.00,0.00 205.00,0.00 205.00,0.00 Z" />
</svg>
