<svg version="1.1" id="Layer_1" xmlns="http://www.w3.org/2000/svg" xmlns:xlink="http://www.w3.org/1999/xlink" viewBox="0 0 1071.9 810.2" preserveAspectRatio="none slice">
<path id="shape" fill="#28E2C2" d="M917,0c0.1,0.2,0.1,0.4,0.1,0.6c2.1,9.5,3.8,18.9,5.6,27.8c1.5,7.1,2.4,14.4,2.8,21.6
	c0.3,4.9,0.5,9.6,0.7,14.4c0.1,3.4,0.2,6.8,0.3,10.4c0.2,1.9,0.4,3.7,0.7,5.4c0.3,2.5,0.6,4.9,0.8,7.5c1.1,11.3,1.2,22.6,0.2,33.9
	c-1,7.8-0.9,15.6-1.5,23.7c-0.1,1.8,0,3.2,0,4.8c0,1.2,0,2.5,0,3.7c-0.1,1.3-0.1,2.6-0.2,3.9c-0.2,4.7-0.9,9.4-2,14
	c-0.4,1.5-0.8,3.1-1.3,4.7c-1.2,4.7-1.9,8.9-2.7,13.4c-0.8,5.8-1.9,11.6-3.3,17.3c-0.7,3-1.5,6.1-2.4,9.3c-1,3.2-2,6.4-3.1,9.6
	c-1.3,4.1-2.8,8.2-4.4,12.2l-2.3,6.1c-0.8,2-1.7,4-2.5,6c-3.6,8.7-7.7,17.2-11.9,25.7c-2.1,4.1-4.2,7.9-6.1,11.1
	c-3.6,5.3-6.7,11.3-10.2,17.4c-1.9,3.2-3.7,6.4-5.5,9.6c-1.9,3.2-3.9,6.4-6,9.6c-1.5,2.6-3.3,5-5.3,7.2c-3.1,3.1-7.2,7.5-7.8,6.5
	c-0.8,2.4-1.5,3.1-2,3.5c0.7,0.1,0.8,1,1,1.7c0,0.6-0.2,1.2-0.4,1.7c-0.6,1.6-1.4,3.2-2.3,4.6c-1.5,2.5-3.2,5-5,7.3
	c-3.1,4-6.1,8.1-9.4,11.9l-4.9,5.8c-1.7,1.9-3.5,3.8-5.2,5.7l-4.6,4.9l-4.8,4.7l-4.8,4.7l-4.9,4.6c-3.1,2.8-6.2,5.8-9.4,8.3
	c-6.5,5.5-13.3,10.7-20.1,15.9c-8.9,6.5-17.8,12.9-27,19c-3.7,2.4-7.3,5-11,7.3c-2.9,1.8-5.7,3.6-8.5,5.3c-2.9,1.8-5.9,3.3-8.9,5
	c-19.4,10.6-39.7,19.7-60.6,27.2c-1.9,0.7-3.9,1.4-5.7,1.9c-5.8,1.8-11.6,4-17.5,6.1c-2.4,0.9-4.7,1.7-7.1,2.6l-7.1,2.4
	c-2.7,0.9-5.4,1.7-8,2.6c-2.8,0.7-5.5,1.5-8.4,2.2c-7.3,2-14.6,3.4-21.9,5c-7.4,1.3-14.7,2.7-22.1,3.5c-18.9,2.6-38,3.8-57.2,3.6
	c-5-0.1-10-0.1-15-0.3c-4.8-0.3-9.4-0.5-13.9-0.6c-3-0.2-6-0.4-9-0.6c-2.3-0.2-4.7-0.4-7-0.6c-2.3-0.3-4.6-0.7-6.8-1.2
	c-2.8-0.6-5.6-1.1-8.4-1.7c-2.6-0.7-5.2-1.4-7.8-2c-2-0.5-4.1-1.1-6.1-1.6c-2.1-0.5-4.3-1.3-6.7-1.9c-2-0.4-4-0.7-6-1.1
	c-3.5-0.6-6.8-1.5-10.3-2.3c-8.3-2-16.5-4.8-24.3-8.1c-1.4-0.6-3.1-1.4-4.1-1.9c-2.9-1.5-5.9-2.9-9-4c-3.2-1.3-6.7-2.7-10.2-4.1
	c-2-0.8-3.8-1.4-5.4-1.9c-2.2-0.7-4-1.4-6.3-2.2c-1.8-0.7-3.9-1.5-6.1-2.4c-1.4-0.6-2.8-1.2-4.2-1.9c-1.3-0.7-2.6-1.4-3.7-2.2
	c-1.8-1.2-3.6-2.3-5.4-3.5c-3.9-2.5-8-4.8-12.2-6.8c-2.5-1.2-5.1-2.5-7.8-3.8c-2.6-1.4-5.3-3-8.1-4.6c-5.6-3.1-11.2-6.8-17-10.8
	c-2.6-1.7-5.2-3.6-7.7-5.5L266,433c-5-3.9-9.9-7.9-14.8-11.8c-6.3-5.5-12.7-10.8-18.6-16.4c-1.7-1.5-3.4-3.1-5.1-4.7l-10.1-10.6
	c-3.3-3.6-6.4-7.3-9.6-11c-6.2-7.5-12.1-15.3-17.5-23.4c-8.7-12.8-16.8-26-24.2-39.5c-2.2-3.9-4.1-7.8-6.2-11.7
	c-5-9.8-9.8-19.6-14.4-29.6c-5.2-11-9.9-22.2-14.2-33.7c-3.8-10.3-7-20.8-9.5-31.5c-0.3-1.3-0.6-2.6-0.9-3.9
	c-0.3-1.3-0.5-2.6-0.7-3.9c-0.4-2.5-0.8-4.9-1.2-7.5c-0.3-2.3-0.8-4.5-0.9-7.2c-0.5-2.5-0.9-5-1.4-7.6c-0.3-1.8-0.7-3.6-1-5.4
	c-0.5-3.1-0.7-6.3-0.9-9.5c-0.1-1.7-0.2-3.3-0.3-5c0-0.9-0.1-1.7-0.1-2.6c0-0.9,0-1.7,0.1-2.6c0.1-3.8,0.3-7.5,0.5-11.3
	c0.2-3.7,0.6-7.3,0.8-10.9l0.6-7l0.8-7c0.5-4.1,0.7-8.2,0.8-12.1c0.1-2.3,0.2-4.5,0.3-6.8c0.1-2.9,0.4-6,0.7-9.1
	c0.3-3.1,0.9-6.3,1.4-9.6c0.6-3.5,1.1-7.1,1.8-10.5c1.4-6.5,2.5-13,3.7-19.4c1.3-6.4,2.4-12.8,3.7-19.1l2.3-10.9
	c1.2-5.9,2.8-11.8,4.6-17.6c0.2-0.8,0.5-1.6,0.8-2.4L0,0v810.2h1071.9V0H917z"/>
</svg>
