<svg xmlns="http://www.w3.org/2000/svg" xmlns:xlink="http://www.w3.org/1999/xlink" viewBox="0 0 1500.945 810.243" preserveAspectRatio="xMaxYMin">
  <path id="shape" fill="#28e2c2" d="M1297.353,0c.05.2.074.368.124.565,2.077,9.476,3.784,18.9,5.638,27.788a151.235,151.235,0,0,1,2.844,21.627c.346,4.861.52,9.6.717,14.385.1,3.412.173,6.824.272,10.384.247,1.915.445,3.682.668,5.45.3,2.479.618,4.91.841,7.487a183.365,183.365,0,0,1,.247,33.9c-.964,7.806-.915,15.637-1.508,23.664-.1,1.817-.025,3.216-.025,4.762,0,1.227.025,2.479.025,3.731-.074,1.3-.124,2.6-.173,3.879a73.133,73.133,0,0,1-2.028,14.017c-.42,1.547-.841,3.142-1.261,4.689-1.236,4.689-1.9,8.886-2.671,13.379a160.725,160.725,0,0,1-3.314,17.282c-.742,3.019-1.509,6.137-2.374,9.3-1.014,3.167-2.028,6.358-3.066,9.6-1.261,4.149-2.844,8.174-4.377,12.225l-2.3,6.063c-.792,2.013-1.682,3.977-2.522,5.99-3.611,8.739-7.716,17.233-11.945,25.677-2.127,4.1-4.179,7.88-6.133,11.071-3.561,5.278-6.727,11.341-10.238,17.4q-2.782,4.861-5.515,9.6c-1.929,3.191-3.932,6.358-5.96,9.574a43.3,43.3,0,0,1-5.292,7.193c-3.116,3.142-7.2,7.463-7.765,6.53-.841,2.381-1.459,3.142-1.954,3.486.692.074.767.982.964,1.743a5.3,5.3,0,0,1-.42,1.743,24.427,24.427,0,0,1-2.324,4.64,67.37,67.37,0,0,1-4.971,7.291c-3.067,4-6.059,8.076-9.4,11.906l-4.946,5.842c-1.706,1.915-3.487,3.78-5.243,5.7l-4.6,4.91-4.773,4.738-4.773,4.738-4.921,4.566c-3.091,2.848-6.232,5.793-9.422,8.3-6.479,5.45-13.255,10.678-20.08,15.883-8.878,6.53-17.805,12.912-27,19-3.709,2.406-7.32,5.008-11,7.266-2.894,1.817-5.713,3.56-8.507,5.327-2.869,1.767-5.861,3.338-8.9,5.032a420.464,420.464,0,0,1-60.587,27.175c-1.879.712-3.907,1.375-5.688,1.939-5.836,1.817-11.6,4.05-17.459,6.063-2.374.859-4.723,1.718-7.122,2.578l-7.147,2.357c-2.72.859-5.391,1.694-8.037,2.553-2.77.737-5.539,1.473-8.359,2.21-7.271,1.988-14.64,3.388-21.935,4.983-7.369,1.252-14.714,2.7-22.133,3.535a404.258,404.258,0,0,1-57.15,3.633c-4.971-.147-9.991-.147-14.986-.344-4.773-.295-9.4-.491-13.923-.589-2.992-.221-6.009-.417-9-.638-2.349-.172-4.674-.393-6.974-.638-2.3-.344-4.575-.736-6.85-1.178-2.794-.565-5.589-1.1-8.408-1.669-2.6-.687-5.193-1.35-7.839-2.038-2-.54-4.056-1.08-6.083-1.62-2.077-.54-4.253-1.276-6.7-1.939-1.954-.368-3.957-.736-5.96-1.129-3.462-.614-6.825-1.473-10.337-2.332a159.479,159.479,0,0,1-24.334-8.1c-1.434-.638-3.091-1.375-4.056-1.89a86.942,86.942,0,0,0-9-4.026c-3.24-1.325-6.652-2.7-10.213-4.149-1.954-.786-3.759-1.35-5.366-1.866-2.226-.736-4.006-1.375-6.257-2.185-1.83-.687-3.932-1.522-6.108-2.43-1.41-.589-2.819-1.227-4.179-1.915-1.335-.712-2.6-1.448-3.709-2.16-1.781-1.154-3.586-2.308-5.366-3.461a110.787,110.787,0,0,0-12.216-6.775c-2.522-1.178-5.119-2.455-7.79-3.8-2.621-1.448-5.317-2.97-8.062-4.566-5.564-3.093-11.153-6.849-16.964-10.8-2.646-1.718-5.168-3.609-7.716-5.5l-7.617-5.621c-5-3.879-9.867-7.855-14.763-11.832-6.281-5.474-12.661-10.826-18.572-16.4-1.657-1.522-3.413-3.118-5.094-4.713L597.83,389.48c-3.314-3.559-6.4-7.34-9.62-11a271.068,271.068,0,0,1-17.484-23.419c-8.68-12.814-16.791-26-24.161-39.547-2.151-3.879-4.105-7.831-6.182-11.734q-7.53-14.655-14.442-29.58c-5.168-11.047-9.892-22.216-14.17-33.7a268,268,0,0,1-9.521-31.544c-.322-1.326-.618-2.627-.94-3.928-.272-1.3-.47-2.6-.692-3.879-.4-2.479-.791-4.934-1.187-7.463-.3-2.308-.791-4.541-.94-7.168-.47-2.5-.915-5.032-1.385-7.585-.346-1.767-.692-3.584-1.039-5.376-.544-3.068-.668-6.26-.94-9.549-.1-1.669-.2-3.339-.272-5.032-.025-.859-.074-1.718-.1-2.6.025-.859.049-1.743.074-2.627.148-3.756.322-7.512.47-11.268.173-3.682.569-7.291.841-10.948l.569-6.972.767-7c.47-4.149.692-8.224.841-12.053.124-2.258.223-4.517.346-6.8.148-2.946.371-5.99.668-9.107.346-3.118.866-6.309,1.41-9.6.594-3.461,1.138-7.07,1.781-10.482,1.385-6.505,2.522-12.961,3.709-19.368,1.335-6.383,2.448-12.765,3.66-19.123l2.3-10.9a180.357,180.357,0,0,1,4.6-17.6c.247-.835.519-1.62.767-2.43H-48.719V810.243H1452.227V0Z" transform="translate(48.719)"/>
</svg>
