<svg xmlns="http://www.w3.org/2000/svg" viewBox="0 0 532 366">
  <path id="Selection #1" fill="#80BAC7"
        d="M 0.00,18.00
           C 0.00,18.00 0.00,0.00 0.00,0.00
             8.85,1.53 4.43,13.80 0.00,18.00 Z
           M 43.00,0.00
           C 37.19,17.46 12.81,17.46 7.00,0.00
             7.00,0.00 43.00,0.00 43.00,0.00 Z
           M 75.00,1.00
           C 66.47,5.72 59.81,7.02 52.00,0.00
             52.00,0.00 75.00,1.00 75.00,1.00 Z
           M 103.00,1.00
           C 103.00,1.00 97.00,0.00 97.00,0.00
             97.00,0.00 103.00,1.00 103.00,1.00 Z
           M 172.00,1.00
           C 172.00,1.00 158.00,4.00 158.00,4.00
             170.51,10.07 167.63,27.69 154.00,28.61
             144.93,29.22 135.47,18.44 142.97,8.18
             147.19,2.40 152.04,3.70 158.00,2.00
             158.00,2.00 154.00,0.00 154.00,0.00
             154.00,0.00 172.00,1.00 172.00,1.00 Z
           M 203.00,0.00
           C 197.97,10.94 193.55,8.00 184.00,9.00
             198.09,16.06 188.17,35.83 174.02,30.26
             165.94,27.09 165.09,15.87 171.21,10.42
             175.30,6.77 179.07,7.16 184.00,8.00
             184.00,8.00 178.00,0.00 178.00,0.00
             178.00,0.00 203.00,0.00 203.00,0.00 Z
           M 220.00,0.00
           C 221.59,0.03 223.96,-0.07 225.26,0.99
             228.20,3.37 227.31,11.87 220.00,15.69
             210.43,20.68 198.78,9.39 204.74,0.99
             208.73,-0.75 215.53,-0.07 220.00,0.00 Z
           M 265.00,0.00
           C 261.85,12.73 247.03,15.70 241.00,0.00
             241.00,0.00 265.00,0.00 265.00,0.00 Z
           M 304.00,0.00
           C 301.31,16.40 282.64,15.81 280.00,0.00
             280.00,0.00 304.00,0.00 304.00,0.00 Z
           M 320.00,1.00
           C 320.00,1.00 310.00,0.00 310.00,0.00
             310.00,0.00 320.00,1.00 320.00,1.00 Z
           M 337.78,1.60
           C 343.15,5.72 342.73,16.71 334.96,20.35
             322.12,26.37 311.72,9.76 322.13,1.02
             325.86,-0.30 334.48,-0.93 337.78,1.60 Z
           M 361.00,0.00
           C 362.84,0.04 365.73,-0.09 366.94,1.60
             369.80,5.60 363.48,12.97 360.00,14.69
             353.69,17.79 345.42,14.58 342.89,8.00
             341.93,5.51 342.02,2.63 342.00,0.00
             342.00,0.00 361.00,0.00 361.00,0.00 Z
           M 396.00,0.00
           C 392.70,17.28 370.88,16.20 369.00,0.00
             369.00,0.00 396.00,0.00 396.00,0.00 Z
           M 428.00,0.00
           C 421.85,16.05 403.89,16.40 398.00,0.00
             398.00,0.00 428.00,0.00 428.00,0.00 Z
           M 463.00,0.00
           C 461.32,5.35 459.99,9.36 454.96,12.52
             444.37,19.15 431.33,12.45 430.00,0.00
             430.00,0.00 463.00,0.00 463.00,0.00 Z
           M 499.00,0.00
           C 499.00,4.88 499.61,9.66 496.85,13.96
             490.28,24.24 475.01,24.56 467.56,14.96
             463.67,9.96 464.00,5.92 464.00,0.00
             464.00,0.00 499.00,0.00 499.00,0.00 Z
           M 532.00,22.00
           C 532.00,24.21 532.22,27.71 530.98,29.58
             527.17,35.32 515.23,34.19 510.00,31.00
             507.02,29.18 504.02,26.13 502.45,23.00
             499.71,17.51 500.35,4.48 506.21,1.02
             508.29,-0.20 511.63,0.00 514.00,0.00
             514.00,0.00 532.00,0.00 532.00,0.00
             532.00,0.00 532.00,22.00 532.00,22.00 Z
           M 129.00,28.20
           C 119.06,31.27 109.18,22.19 111.40,12.00
             112.55,6.67 116.21,3.66 121.00,1.65
             140.57,-2.34 145.35,23.15 129.00,28.20 Z
           M 96.00,2.36
           C 114.97,4.10 114.12,33.47 93.00,31.90
             77.31,30.74 74.06,7.96 91.00,2.36
             92.95,2.23 93.97,1.99 96.00,2.36 Z
           M 64.00,39.24
           C 50.48,41.20 41.20,26.75 47.44,15.00
             50.30,9.62 54.35,7.76 60.00,6.50
             81.78,5.09 84.68,36.24 64.00,39.24 Z
           M 312.77,10.60
           C 317.15,13.98 317.52,23.15 309.98,25.82
             300.47,29.18 292.98,16.00 303.10,9.74
             306.27,8.94 309.97,8.43 312.77,10.60 Z
           M 397.90,15.43
           C 406.40,22.30 403.99,37.11 392.00,37.95
             375.94,39.06 371.52,19.79 386.00,13.65
             390.29,12.76 394.26,12.49 397.90,15.43 Z
           M 422.00,13.67
           C 437.64,18.36 434.33,42.38 417.00,40.89
             403.53,39.74 398.33,20.78 414.00,13.67
             416.99,13.03 418.96,12.73 422.00,13.67 Z
           M 40.61,21.18
           C 49.33,31.01 44.52,49.07 29.00,50.81
             12.26,52.70 2.76,32.42 14.48,20.33
             17.73,16.97 20.60,16.27 25.00,15.48
             30.92,15.14 36.53,16.59 40.61,21.18 Z
           M 367.00,38.47
           C 352.58,41.81 346.18,20.53 362.00,15.55
             378.46,13.59 380.75,35.28 367.00,38.47 Z
           M 205.98,33.26
           C 197.00,36.67 188.07,23.31 200.02,16.74
             212.84,13.95 215.67,29.58 205.98,33.26 Z
           M 459.47,21.33
           C 462.25,24.34 462.88,27.04 462.98,31.00
             463.23,40.78 457.18,47.77 447.00,46.89
             430.31,45.46 427.29,19.09 448.00,16.73
             452.67,16.91 456.15,17.74 459.47,21.33 Z
           M 482.00,24.11
           C 503.98,25.89 500.46,58.96 479.00,56.80
             463.14,55.21 456.88,31.87 476.00,24.64
             478.28,24.18 479.62,23.91 482.00,24.11 Z
           M 151.00,29.77
           C 162.72,34.41 159.47,54.54 145.00,52.63
             133.66,51.14 130.41,34.99 143.00,29.77
             145.93,29.07 148.09,28.77 151.00,29.77 Z
           M 128.81,32.65
           C 136.90,39.06 134.39,51.27 125.00,54.85
             115.81,58.36 106.85,50.51 108.21,41.00
             108.95,35.91 111.70,33.22 116.00,30.85
             120.49,29.63 124.97,29.60 128.81,32.65 Z
           M 0.00,64.00
           C 0.00,64.00 0.00,31.00 0.00,31.00
             12.71,38.61 14.23,57.21 0.00,64.00 Z
           M 100.00,35.74
           C 110.58,42.40 108.23,57.00 98.00,60.74
             81.83,66.64 70.37,43.97 88.00,34.74
             91.97,33.78 96.37,33.45 100.00,35.74 Z
           M 523.00,37.57
           C 537.83,45.43 534.52,72.08 513.00,70.96
             495.36,70.04 489.92,44.87 508.00,36.70
             512.50,35.68 518.81,35.35 523.00,37.57 Z
           M 383.14,53.00
           C 381.97,43.01 391.98,36.27 399.96,40.45
             405.63,43.43 406.19,48.58 408.00,54.00
             410.02,36.55 434.57,39.79 432.89,57.00
             431.97,66.36 420.78,71.07 413.10,65.99
             408.99,63.28 408.04,58.17 406.00,54.00
             401.74,68.13 384.43,64.05 383.14,53.00 Z
           M 70.00,69.91
           C 67.55,70.98 64.63,71.10 62.00,70.96
             45.94,70.07 42.54,46.01 61.00,41.47
             79.89,39.25 85.21,63.27 70.00,69.91 Z
           M 454.00,49.96
           C 467.54,57.06 460.91,78.24 446.00,76.44
             432.79,74.86 428.84,56.69 442.00,49.96
             445.68,48.85 450.49,48.39 454.00,49.96 Z
           M 37.00,84.61
           C 21.37,88.19 11.58,71.89 19.00,60.02
             21.76,55.61 25.22,53.95 30.00,52.53
             52.12,49.41 55.54,80.36 37.00,84.61 Z
           M 123.00,57.62
           C 136.35,61.51 131.92,82.62 118.00,80.62
             107.37,79.10 102.45,64.46 115.00,57.62
             117.77,57.07 120.17,56.66 123.00,57.62 Z
           M 488.30,64.18
           C 495.23,73.33 489.23,86.91 478.00,88.29
             459.40,90.59 453.29,63.30 474.00,58.51
             479.33,58.15 484.93,59.73 488.30,64.18 Z
           M 99.96,64.09
           C 113.05,70.02 107.40,90.53 93.00,88.63
             80.10,86.94 77.31,68.95 91.00,63.57
             94.21,63.00 96.86,62.68 99.96,64.09 Z
           M 531.00,78.00
           C 529.76,71.06 529.76,70.94 531.00,64.00
             532.49,67.75 532.49,74.25 531.00,78.00 Z
           M 399.98,82.26
           C 390.02,86.15 382.28,72.15 394.02,65.75
             406.68,63.26 409.31,78.62 399.98,82.26 Z
           M 13.79,73.33
           C 24.34,83.58 18.18,103.10 0.00,104.00
             0.00,104.00 0.00,68.00 0.00,68.00
             5.31,68.45 9.81,69.46 13.79,73.33 Z
           M 408.11,80.00
           C 408.99,69.73 420.63,65.67 427.61,72.53
             431.32,76.18 430.68,81.37 432.00,86.00
             435.29,76.62 447.42,74.76 453.57,82.13
             456.72,85.91 456.00,91.37 456.00,96.00
             459.60,92.60 462.74,89.40 468.00,89.14
             477.22,88.69 485.14,97.99 482.35,107.00
             479.22,117.13 465.79,120.54 458.53,112.67
             453.88,107.63 455.25,102.19 455.00,96.00
             450.12,104.58 439.71,106.06 433.43,97.96
             430.73,94.47 431.15,90.05 430.00,86.00
             424.07,97.83 406.94,93.59 408.11,80.00 Z
           M 80.83,80.00
           C 85.68,89.57 77.78,101.72 67.00,100.44
             50.51,98.49 49.59,74.61 68.00,72.73
             73.62,72.96 78.10,74.62 80.83,80.00 Z
           M 519.85,80.01
           C 525.49,89.03 520.29,101.87 510.00,104.32
             489.30,109.25 480.31,79.31 502.00,72.53
             509.54,71.31 515.62,73.24 519.85,80.01 Z
           M 126.58,85.89
           C 131.11,89.61 130.48,97.90 124.90,100.26
             114.12,104.82 106.54,90.86 117.04,84.74
             120.34,83.94 123.73,83.54 126.58,85.89 Z
           M 43.00,86.11
           C 62.26,87.73 59.83,117.60 40.00,115.89
             25.56,114.65 19.71,93.91 37.00,86.65
             39.28,86.18 40.62,85.91 43.00,86.11 Z
           M 90.23,93.22
           C 97.14,86.28 108.87,89.91 110.38,100.00
             111.45,107.15 105.23,113.99 98.00,113.50
             93.79,113.21 90.99,110.65 88.00,108.00
             89.08,114.07 89.62,117.96 84.79,122.79
             76.58,131.00 64.34,125.61 63.20,115.00
             61.99,103.73 74.04,95.51 87.00,106.00
             87.00,101.14 86.48,96.99 90.23,93.22 Z
           M 532.00,91.00
           C 532.00,91.00 532.00,125.00 532.00,125.00
             513.40,120.57 513.94,95.64 532.00,91.00 Z
           M 18.00,135.61
           C 12.06,136.97 3.52,134.95 0.85,128.91
             -0.32,126.25 -0.05,119.15 0.00,116.00
             0.05,113.40 0.03,111.34 1.60,109.10
             3.82,105.93 7.46,104.58 11.00,103.53
             33.34,100.38 36.63,131.34 18.00,135.61 Z
           M 443.00,125.98
           C 434.81,130.07 424.10,123.47 425.62,114.00
             427.24,103.97 440.10,100.43 446.58,108.11
             450.62,112.88 449.73,116.62 448.00,122.00
             450.29,120.14 452.10,118.55 455.00,117.65
             465.51,114.37 475.73,122.72 470.00,138.00
             484.16,127.98 495.94,136.82 494.89,149.00
             493.83,161.33 477.23,165.43 470.01,155.82
             465.53,149.85 467.27,144.16 470.01,138.00
             463.80,142.39 461.44,143.26 454.00,142.00
             456.00,144.16 458.05,146.18 459.11,149.00
             465.81,166.77 434.19,171.15 436.25,152.00
             436.48,149.87 437.37,147.77 438.65,146.05
             440.06,144.15 441.77,142.73 444.00,141.89
             446.86,140.82 450.50,141.54 454.00,141.00
             444.70,136.49 445.84,130.32 448.00,122.00
             446.43,123.44 444.94,125.01 443.00,125.98 Z
           M 501.96,106.57
           C 514.50,113.46 510.32,136.54 493.00,134.80
             478.30,133.33 473.39,112.80 489.00,105.70
             493.16,104.76 498.08,104.44 501.96,106.57 Z
           M 59.98,117.74
           C 69.51,123.81 67.73,138.77 57.00,142.85
             48.90,145.93 39.37,139.51 38.64,131.00
             38.07,124.45 41.49,119.84 47.00,116.85
             51.10,115.73 56.22,115.34 59.98,117.74 Z
           M 530.40,128.23
           C 532.15,130.49 531.98,133.30 532.00,136.00
             532.06,144.91 534.81,155.26 523.00,156.81
             505.37,159.13 498.91,139.26 508.39,129.33
             511.51,126.05 514.73,125.22 519.00,124.53
             522.90,124.44 527.81,124.86 530.40,128.23 Z
           M 74.99,132.04
           C 79.20,124.66 90.20,124.14 94.99,131.18
             99.32,137.53 96.22,148.47 87.00,149.76
             81.94,150.48 78.69,147.98 75.00,145.00
             79.07,153.09 79.36,157.39 74.00,165.00
             79.21,165.00 84.50,164.17 88.35,168.48
             95.47,176.45 89.59,189.02 78.00,187.89
             74.76,187.57 72.53,186.40 70.42,183.89
             64.41,176.78 68.42,170.43 74.00,165.00
             69.78,166.78 64.49,168.00 60.00,166.26
             47.99,161.61 50.63,140.60 67.00,142.11
             70.33,142.42 72.10,143.54 74.99,145.00
             73.77,140.70 72.59,136.23 74.99,132.04 Z
           M 0.00,154.00
           C 0.00,154.00 0.00,132.00 0.00,132.00
             5.48,138.36 5.48,147.64 0.00,154.00 Z
           M 41.30,140.09
           C 47.11,148.11 43.40,161.89 33.00,163.77
             11.78,167.62 6.39,139.45 27.00,134.48
             32.58,133.94 37.84,135.32 41.30,140.09 Z
           M 512.79,157.42
           C 521.45,165.10 518.61,180.65 507.00,183.47
             487.36,188.24 479.79,160.69 499.00,154.53
             503.91,153.74 508.85,153.92 512.79,157.42 Z
           M 531.00,177.00
           C 527.34,167.79 526.93,165.29 531.00,156.00
             532.59,160.01 532.59,172.99 531.00,177.00 Z
           M 13.00,188.31
           C 11.69,188.97 10.44,189.39 9.00,189.66
             0.59,191.24 0.01,188.06 0.00,181.00
             0.00,181.00 0.00,171.00 0.00,171.00
             0.00,166.70 -1.27,160.72 2.29,157.74
             20.66,152.79 31.43,179.05 13.00,188.31 Z
           M 453.56,170.00
           C 454.68,160.63 464.71,155.31 472.95,160.28
             481.00,165.18 481.07,177.10 472.95,182.26
             468.73,184.98 463.63,183.83 459.00,183.00
             463.61,191.48 463.19,196.39 456.00,203.00
             463.50,200.19 466.90,200.14 474.00,204.00
             471.03,198.73 468.73,194.12 471.15,188.00
             474.78,178.78 486.74,176.28 493.79,183.22
             501.33,190.66 497.81,203.08 489.00,206.28
             483.59,208.23 478.78,206.41 474.00,204.00
             479.72,214.51 477.15,226.91 463.00,225.95
             458.75,225.66 457.30,224.44 454.00,222.00
             458.25,231.57 457.53,235.46 449.00,242.00
             454.19,241.12 457.53,240.83 461.95,244.42
             469.21,250.32 468.40,261.55 460.00,265.83
             451.16,270.32 440.05,263.01 441.37,253.00
             442.06,247.75 445.07,245.05 449.00,242.00
             445.60,241.99 442.15,242.19 439.04,240.55
             431.09,236.33 430.70,223.86 440.00,219.31
             445.29,216.73 449.53,219.24 454.00,222.00
             451.03,214.08 451.03,210.04 456.00,203.00
             452.08,203.48 448.81,204.12 445.04,202.35
             436.59,198.39 436.31,186.75 444.04,181.93
             448.72,178.89 453.27,180.23 458.00,181.93
             455.04,178.25 452.95,175.03 453.56,170.00 Z
           M 55.78,165.21
           C 62.89,172.49 59.78,185.30 50.00,188.35
             34.02,193.34 23.24,168.94 42.00,161.57
             47.39,160.61 51.73,161.07 55.78,165.21 Z
           M 434.01,180.76
           C 425.06,179.41 422.96,166.87 434.01,163.63
             448.03,163.52 446.40,182.64 434.01,180.76 Z
           M 532.00,197.00
           C 532.00,199.69 532.44,206.44 530.98,208.49
             529.23,210.94 524.73,211.09 522.00,210.90
             509.96,210.06 503.72,197.34 509.41,187.00
             512.17,182.00 515.73,180.08 521.00,178.54
             535.34,176.81 532.00,186.89 532.00,197.00 Z
           M 458.00,182.00
           C 458.00,182.00 459.00,183.00 459.00,183.00
             459.00,183.00 459.00,182.00 459.00,182.00
             459.00,182.00 458.00,182.00 458.00,182.00 Z
           M 39.85,191.04
           C 45.04,199.13 40.73,211.67 31.00,213.66
             10.30,217.89 4.31,189.98 24.00,184.48
             30.46,183.68 36.16,185.27 39.85,191.04 Z
           M 51.85,202.00
           C 48.19,192.93 55.13,183.10 65.00,184.20
             75.17,185.34 79.87,198.49 72.77,205.79
             67.56,211.16 62.30,210.36 56.00,208.00
             59.62,211.85 62.91,215.32 62.74,221.00
             62.43,231.04 52.16,237.85 43.00,233.43
             33.55,228.87 32.10,215.97 40.18,209.85
             45.36,205.93 50.17,207.23 56.00,208.00
             54.43,206.12 52.79,204.31 51.85,202.00 Z
           M 94.00,203.76
           C 86.09,202.56 82.06,191.23 93.00,186.69
             107.75,185.06 106.82,205.70 94.00,203.76 Z
           M 0.00,208.00
           C 0.00,208.00 0.00,196.00 0.00,196.00
             2.48,200.27 2.48,203.73 0.00,208.00 Z
           M 85.00,226.58
           C 74.72,229.12 66.97,218.67 71.31,210.02
             73.26,206.13 76.07,204.77 80.00,203.57
             96.53,202.18 97.94,223.39 85.00,226.58 Z
           M 511.66,208.33
           C 519.62,216.41 516.06,230.25 505.00,233.28
             486.39,238.39 477.14,211.96 496.00,204.57
             502.03,203.48 507.09,203.68 511.66,208.33 Z
           M 21.61,216.21
           C 29.49,224.74 26.24,239.36 15.00,243.01
             10.86,244.35 2.70,244.52 0.60,239.78
             -0.30,237.75 0.00,229.66 0.00,227.00
             0.00,220.31 -1.86,214.78 5.02,211.65
             11.20,210.36 17.14,211.36 21.61,216.21 Z
           M 532.00,238.00
           C 523.16,230.87 524.81,220.27 531.00,212.00
             531.00,212.00 532.00,238.00 532.00,238.00 Z
           M 481.00,225.62
           C 497.14,229.09 492.32,254.71 476.00,252.63
             462.85,250.96 457.92,233.47 472.00,225.62
             475.08,225.01 477.82,224.66 481.00,225.62 Z
           M 72.00,251.39
           C 63.57,252.55 57.37,244.97 58.11,237.00
             59.25,224.72 73.66,223.54 79.73,229.39
             85.02,234.50 83.37,239.89 82.00,246.00
             86.04,242.43 88.32,240.56 94.00,241.11
             102.34,241.92 106.83,252.02 102.26,258.96
             97.16,266.70 86.11,266.07 81.92,257.96
             79.52,253.53 80.58,250.41 81.92,246.00
             78.89,248.67 76.24,250.81 72.00,251.39 Z
           M 520.00,264.39
           C 506.71,267.95 495.98,254.40 501.01,242.00
             503.13,236.77 506.92,234.38 512.00,232.61
             534.47,228.39 539.54,259.15 520.00,264.39 Z
           M 47.99,240.04
           C 53.26,248.38 49.48,261.14 39.00,262.79
             35.88,263.28 30.83,263.17 28.01,261.69
             17.67,256.23 16.49,237.46 33.00,233.48
             39.06,232.89 44.58,234.63 47.99,240.04 Z
           M 0.00,276.00
           C 0.00,276.00 0.00,244.00 0.00,244.00
             15.24,248.48 15.58,271.73 0.00,276.00 Z
           M 71.61,256.10
           C 77.71,263.23 75.05,275.05 66.00,278.15
             54.93,281.94 44.31,271.69 47.65,261.00
             49.18,256.10 52.48,253.55 57.00,251.65
             62.88,250.45 67.52,251.32 71.61,256.10 Z
           M 490.00,252.36
           C 508.00,254.00 508.19,283.06 487.00,281.96
             471.03,281.13 467.32,258.19 485.00,252.36
             486.95,252.23 487.97,251.99 490.00,252.36 Z
           M 421.70,273.81
           C 416.98,267.64 419.66,258.25 427.02,255.70
             436.18,252.52 445.12,260.53 442.57,270.00
             441.34,274.55 437.72,276.67 434.00,279.00
             437.39,279.52 441.08,280.22 443.79,282.51
             455.88,292.72 440.80,312.97 427.19,302.20
             424.59,300.14 423.52,297.83 422.00,295.00
             422.00,299.30 422.48,303.32 419.57,306.89
             414.00,313.73 402.80,312.58 399.60,304.00
             396.38,295.36 403.05,287.24 412.00,288.11
             417.06,288.60 419.08,291.24 422.00,295.00
             422.48,285.26 425.21,282.51 434.00,279.00
             429.16,278.76 424.85,277.94 421.70,273.81 Z
           M 37.99,271.01
           C 44.04,280.91 37.58,294.82 26.00,295.90
             10.22,297.36 1.23,277.94 13.18,267.39
             16.23,264.70 19.13,264.12 23.00,263.61
             29.49,263.64 34.40,265.13 37.99,271.01 Z
           M 521.00,298.31
           C 508.99,292.28 507.68,276.81 518.04,268.39
             520.46,266.42 528.35,262.42 530.98,265.61
             532.14,267.03 531.99,270.23 532.00,272.00
             532.00,272.00 532.00,300.00 532.00,300.00
             527.99,299.99 524.72,300.18 521.00,298.31 Z
           M 96.49,270.10
           C 101.85,277.00 98.38,287.63 90.00,290.06
             74.34,294.58 66.85,272.15 82.00,265.65
             87.64,264.50 92.72,265.26 96.49,270.10 Z
           M 414.69,269.43
           C 418.35,272.98 418.36,283.10 410.00,284.57
             401.44,286.06 394.13,274.03 405.04,267.74
             408.54,266.91 411.86,266.69 414.69,269.43 Z
           M 470.79,271.39
           C 477.49,277.52 476.78,290.65 466.00,294.85
             455.62,298.90 447.45,290.48 448.04,280.00
             448.38,274.09 451.00,271.56 456.00,268.85
             461.15,267.44 466.62,267.58 470.79,271.39 Z
           M 114.00,298.35
           C 99.96,302.70 91.27,282.33 107.00,275.65
             123.94,272.31 127.09,294.29 114.00,298.35 Z
           M 63.81,283.39
           C 72.53,291.14 69.77,306.06 58.00,309.28
             39.09,314.45 30.82,287.70 49.00,280.57
             54.35,279.60 59.50,279.55 63.81,283.39 Z
           M 511.15,291.00
           C 516.65,300.13 511.07,312.82 501.00,315.44
             481.12,320.63 471.67,290.37 493.00,283.53
             500.41,282.33 507.04,284.20 511.15,291.00 Z
           M 139.77,285.60
           C 144.79,289.47 143.35,298.50 136.96,300.82
             127.66,304.18 119.72,290.91 130.05,284.74
             133.24,283.95 136.95,283.42 139.77,285.60 Z
           M 91.79,295.39
           C 98.96,301.95 97.12,315.98 86.00,319.04
             76.68,321.61 67.08,313.77 68.37,304.00
             69.14,298.14 72.84,294.82 78.00,292.65
             83.04,291.61 87.75,291.70 91.79,295.39 Z
           M 30.99,306.00
           C 36.49,315.12 31.43,328.85 21.00,331.65
             14.30,333.44 5.72,332.10 1.60,325.96
             0.04,323.63 0.05,321.67 0.00,319.00
             -0.20,307.73 -1.45,301.87 11.00,297.56
             19.25,296.12 26.47,298.50 30.99,306.00 Z
           M 476.79,301.21
           C 484.74,309.16 481.83,322.80 471.00,326.20
             452.70,331.94 442.02,306.33 461.00,297.70
             466.86,296.38 472.30,296.72 476.79,301.21 Z
           M 111.00,300.39
           C 127.25,302.02 124.97,327.69 108.00,325.80
             95.54,324.41 91.70,306.18 106.00,300.39
             107.94,300.24 108.97,299.97 111.00,300.39 Z
           M 532.00,303.00
           C 532.00,303.00 532.00,338.00 532.00,338.00
             515.66,331.59 515.94,308.48 532.00,303.00 Z
           M 138.99,328.30
           C 131.13,330.99 122.35,324.37 123.25,316.00
             123.83,310.60 127.31,307.63 132.00,305.65
             148.68,302.57 151.90,323.88 138.99,328.30 Z
           M 446.66,310.39
           C 453.80,317.27 451.15,329.90 441.99,333.44
             425.71,339.73 414.61,316.50 431.00,307.74
             436.21,306.48 442.53,306.42 446.66,310.39 Z
           M 53.00,343.62
           C 36.31,347.04 28.29,329.18 35.88,318.04
             38.52,314.16 41.69,312.81 46.00,311.53
             67.98,308.44 73.12,339.50 53.00,343.62 Z
           M 416.95,315.43
           C 425.12,321.85 422.77,334.36 413.00,337.72
             399.58,342.34 387.77,322.42 404.00,313.74
             408.46,312.66 413.12,312.43 416.95,315.43 Z
           M 382.00,338.89
           C 371.10,337.83 365.64,320.77 381.00,315.65
             399.03,313.67 399.65,340.61 382.00,338.89 Z
           M 508.00,318.11
           C 528.26,325.12 522.33,354.68 501.00,352.81
             488.06,351.68 480.90,337.09 487.36,326.01
             490.39,320.83 494.40,318.83 500.00,317.47
             503.31,317.08 504.75,316.98 508.00,318.11 Z
           M 86.00,321.76
           C 103.37,328.22 96.58,353.74 80.00,351.63
             64.23,349.63 60.23,327.76 78.00,321.76
             81.20,321.03 82.83,320.82 86.00,321.76 Z
           M 113.00,327.38
           C 130.59,329.08 128.88,356.52 110.00,354.89
             96.22,353.71 92.21,333.09 108.00,327.38
             109.95,327.23 110.96,326.98 113.00,327.38 Z
           M 175.26,334.11
           C 179.91,340.82 175.97,351.13 168.00,352.65
             153.24,355.48 147.68,334.41 163.00,329.55
             167.70,328.98 172.37,329.93 175.26,334.11 Z
           M 477.83,331.88
           C 489.60,340.40 484.68,358.47 471.00,361.47
             456.62,364.62 447.01,347.97 454.36,336.09
             456.78,332.19 459.81,330.84 464.00,329.53
             468.73,328.77 473.77,328.94 477.83,331.88 Z
           M 147.89,332.43
           C 154.95,338.19 153.79,350.86 145.00,354.26
             129.46,360.27 118.72,338.39 135.01,330.70
             139.40,329.70 144.18,329.40 147.89,332.43 Z
           M 0.00,345.00
           C 0.00,342.93 -0.25,339.36 0.99,337.65
             4.38,332.99 14.58,334.59 19.00,336.84
             26.01,340.39 28.99,346.36 28.99,354.00
             28.99,361.15 27.91,365.86 20.00,366.00
             20.00,366.00 0.00,366.00 0.00,366.00
             0.00,366.00 0.00,345.00 0.00,345.00 Z
           M 326.00,351.76
           C 318.36,350.59 314.56,339.23 325.02,334.66
             340.27,332.28 338.86,353.72 326.00,351.76 Z
           M 442.00,337.57
           C 455.45,344.06 452.06,367.22 434.00,365.90
             417.86,364.72 414.18,341.48 432.00,336.48
             435.70,335.98 438.51,335.89 442.00,337.57 Z
           M 355.00,359.99
           C 347.53,363.02 339.35,356.95 339.35,349.00
             339.35,343.45 342.37,340.19 347.00,337.74
             364.04,333.67 368.18,354.65 355.00,359.99 Z
           M 416.16,345.04
           C 421.30,352.82 418.08,364.45 409.00,365.85
             405.04,366.47 398.35,366.31 395.22,363.57
             388.96,358.09 388.15,342.71 403.00,339.56
             408.28,339.37 413.04,340.32 416.16,345.04 Z
           M 224.98,357.77
           C 215.26,360.94 207.39,346.18 220.02,340.66
             232.35,338.78 234.49,354.66 224.98,357.77 Z
           M 382.98,341.17
           C 394.13,346.93 390.50,366.33 375.00,364.89
             362.22,363.70 359.46,346.05 372.00,340.65
             375.50,339.92 379.67,339.47 382.98,341.17 Z
           M 35.33,351.33
           C 44.55,342.10 65.52,344.76 66.00,366.00
             66.00,366.00 30.00,366.00 30.00,366.00
             30.45,360.49 31.23,355.43 35.33,351.33 Z
           M 208.77,350.23
           C 211.95,353.40 213.79,361.91 209.49,364.98
             207.86,366.14 204.94,365.99 203.00,366.00
             200.20,366.02 193.50,366.40 191.30,364.98
             186.66,361.98 187.32,352.36 195.04,347.85
             199.87,346.51 204.96,346.41 208.77,350.23 Z
           M 532.00,366.00
           C 532.00,366.00 525.00,366.00 525.00,366.00
             525.03,356.78 525.74,354.68 531.00,347.00
             531.00,347.00 532.00,366.00 532.00,366.00 Z
           M 304.85,357.04
           C 310.81,347.61 326.57,348.97 327.00,366.00
             327.00,366.00 303.00,366.00 303.00,366.00
             303.07,362.77 303.05,359.90 304.85,357.04 Z
           M 166.22,356.22
           C 173.18,349.27 187.26,351.08 188.00,366.00
             188.00,366.00 162.00,366.00 162.00,366.00
             162.61,362.10 163.30,359.14 166.22,356.22 Z
           M 100.00,366.00
           C 100.00,366.00 68.00,366.00 68.00,366.00
             71.93,350.12 93.31,347.35 100.00,366.00 Z
           M 522.00,366.00
           C 522.00,366.00 488.00,366.00 488.00,366.00
             494.91,351.39 515.17,351.60 522.00,366.00 Z
           M 131.00,366.00
           C 131.00,366.00 103.00,366.00 103.00,366.00
             108.25,352.72 125.74,352.86 131.00,366.00 Z
           M 161.00,366.00
           C 161.00,366.00 134.00,366.00 134.00,366.00
             139.48,352.02 156.50,352.81 161.00,366.00 Z
           M 250.00,366.00
           C 250.00,366.00 226.00,366.00 226.00,366.00
             231.36,352.77 244.68,352.88 250.00,366.00 Z
           M 288.00,366.00
           C 288.00,366.00 265.00,366.00 265.00,366.00
             271.32,355.43 281.93,354.81 288.00,366.00 Z
           M 351.00,366.00
           C 351.00,366.00 328.00,366.00 328.00,366.00
             334.17,356.43 344.43,357.36 351.00,366.00 Z
           M 474.00,366.00
           C 474.00,366.00 458.00,365.00 458.00,365.00
             463.94,363.43 468.55,362.41 474.00,366.00 Z
           M 371.00,366.00
           C 371.00,366.00 362.00,365.00 362.00,365.00
             362.00,365.00 371.00,366.00 371.00,366.00 Z" />
</svg>
