<svg xmlns="http://www.w3.org/2000/svg" viewBox="0 0 840 226" preserveAspectRatio="xMidYMax">
  <path id="Selection" fill="#F98667"
        d="M 0.70,217.00
           C 1.86,213.56 6.32,208.07 8.63,205.00
             8.63,205.00 28.00,181.00 28.00,181.00
             59.22,144.83 89.92,117.62 129.00,90.28
             189.76,47.77 268.59,17.08 342.00,6.27
             363.54,3.10 385.24,1.03 407.00,1.00
             407.00,1.00 420.00,0.08 420.00,0.08
             420.00,0.08 429.00,0.98 429.00,0.98
             429.00,0.98 447.00,0.98 447.00,0.98
             447.00,0.98 457.00,1.91 457.00,1.91
             480.21,3.53 503.25,6.55 526.00,11.58
             585.83,24.79 639.92,45.28 692.00,77.95
             736.60,105.92 775.99,138.95 810.27,179.00
             810.27,179.00 830.63,204.00 830.63,204.00
             833.04,207.21 838.11,213.47 839.30,217.00
             840.18,219.61 840.00,223.22 840.00,226.00
             840.00,226.00 0.00,226.00 0.00,226.00
             0.00,223.22 -0.18,219.61 0.70,217.00 Z" />
</svg>
